<svg width="120" height="21" viewBox="0 0 120 21" xmlns="http://www.w3.org/2000/svg" xmlns:xlink="http://www.w3.org/1999/xlink"><title>Group 19</title><defs><path id="a" d="M.1.867h9.228v14.671H.1z"/><path id="c" d="M0 .008h8.854v14.755H0z"/><path id="e" d="M0 20.894h119.328V0H0z"/></defs><g fill="none" fill-rule="evenodd"><path d="M107.19 10.083l1.558-.904c-1.25-2.126-3.617-3.443-6.197-3.443-4.31 0-7.56 3.222-7.56 7.496 0 4.274 3.25 7.497 7.56 7.497 2.594 0 4.96-1.326 6.197-3.464l-1.558-.885c-.867 1.582-2.68 2.601-4.64 2.601-3.354 0-5.79-2.418-5.79-5.749 0-3.343 2.436-5.77 5.79-5.77 1.995 0 3.766 1.003 4.64 2.621" fill="#FFF"/><g transform="translate(110 4.894)"><mask id="b" fill="#fff"><use xlink:href="#a"/></mask><path d="M6.48 9.977c1.199-1.2 2.577-2.825 2.577-4.748C9.057 3.063 7.529.867 4.61.867c-1.974 0-3.601.996-4.48 2.739l1.455.857c.633-1.256 1.684-1.92 3.045-1.92 1.294 0 2.687.847 2.687 2.707 0 1.343-1.06 2.582-2.095 3.617L.1 14.095v1.445h9.229v-1.68H2.574L6.48 9.977z" fill="#FFF" mask="url(#b)"/></g><path d="M10.89 11.893c.531-2.804 2.862-4.486 5.371-4.486 2.567 0 4.633 1.712 4.987 4.486H10.89zm5.43-6.256c-4.456 0-7.408 3.364-7.408 7.613 0 4.191 2.745 7.585 7.349 7.585 3.04 0 5.194-1.387 6.463-3.57l-1.653-1.063c-1.003 1.712-2.42 2.862-4.81 2.862-3.187 0-5.401-2.479-5.43-5.489h12.336v-.53c-.03-4.694-3.069-7.408-6.847-7.408z" fill="#FFF"/><g transform="translate(0 5.894)"><mask id="d" fill="#fff"><use xlink:href="#c"/></mask><path fill="#FFF" mask="url(#d)" d="M0 .008v14.755h1.918V1.78h6.936V.01z"/></g><path d="M72.762 11.893c.531-2.804 2.863-4.486 5.372-4.486 2.567 0 4.633 1.712 4.987 4.486H72.762zm12.277 1.151c-.029-4.693-3.069-7.407-6.846-7.407-4.456 0-7.408 3.364-7.408 7.613 0 4.191 2.745 7.585 7.35 7.585 3.038 0 5.192-1.387 6.462-3.57l-1.653-1.063c-1.003 1.712-2.42 2.862-4.81 2.862-3.187 0-5.4-2.479-5.43-5.489h12.335v-.53zM63.403 5.696c-2.036 0-3.866.915-4.93 2.656-.796-1.535-2.241-2.656-4.513-2.656-1.742 0-3.335.679-4.34 2.154V5.903h-1.917v14.726h1.918v-9.503c0-2.214 2.007-3.659 3.895-3.659 2.42 0 3.719 1.8 3.719 4.19v8.972h1.918v-9.267c0-2.863 2.096-3.895 3.955-3.895 2.36 0 3.748 1.8 3.748 4.19v8.972h1.918v-8.972c0-3.63-1.977-5.961-5.371-5.961m-31.046 13.28c-3.188 0-5.431-2.538-5.431-5.666 0-3.158 2.243-5.696 5.43-5.696 3.189 0 5.372 2.243 5.372 5.696 0 3.423-2.183 5.666-5.371 5.666zm5.076-11.332c-1.24-1.21-3.04-1.948-4.958-1.948-4.368 0-7.467 3.305-7.467 7.614 0 4.309 3.099 7.584 7.467 7.584 1.918 0 3.718-.708 4.958-1.947v1.71h1.889V5.933h-1.89v1.712z" fill="#FFF"/><mask id="f" fill="#fff"><use xlink:href="#e"/></mask><path fill="#FFF" mask="url(#f)" d="M42.553 20.628h1.918V0h-1.918z"/></g></svg>