<svg id="Layer_1" data-name="Layer 1" xmlns="http://www.w3.org/2000/svg" viewBox="0 0 664.6718 133.1055"><defs><style>.cls-1{fill:#fff;}</style></defs><title>realme-5-logo</title><path class="cls-1" d="M103.9652,35.9086c-28.3883,0-47.1886,21.4322-47.1886,48.5046,0,26.6963,17.4842,48.3166,46.8127,48.3166,19.3642,0,33.0883-8.8362,41.1724-22.7484l-10.5282-6.7681c-6.3919,10.9042-15.4162,18.2363-30.6442,18.2363-20.3043,0-34.4045-15.7922-34.5925-34.9684h78.5849V83.0971C147.3938,53.2046,128.03,35.9086,103.9652,35.9086ZM69.3727,75.7651a34.476,34.476,0,0,1,34.2162-28.5765c16.3562,0,29.5162,10.9042,31.7722,28.5764Z"/><polygon class="cls-1" points="0 37.6 0 131.602 12.22 131.602 12.22 48.881 56.401 48.881 56.401 37.6 0 37.6"/><path class="cls-1" d="M541.7389,83.0969c-.1882-29.8923-19.5522-47.1885-43.6168-47.1885-28.3882,0-47.1886,21.4322-47.1886,48.5046,0,26.6963,17.4843,48.3166,46.8127,48.3166,19.3643,0,33.0883-8.8362,41.1726-22.7484L528.39,103.2131c-6.392,10.9042-15.4162,18.2363-30.6442,18.2363-20.3041,0-34.4043-15.7922-34.5926-34.9684h78.5853ZM463.53,75.7649a34.4757,34.4757,0,0,1,34.2166-28.5763c16.3562,0,29.5165,10.9042,31.7724,28.5764Z"/><path class="cls-1" d="M403.904,36.2844c-12.9722,0-24.6284,5.8281-31.3965,16.92-5.076-9.7762-14.288-16.92-28.7642-16.92-11.0922,0-21.2443,4.3241-27.6364,13.7242V37.6h-12.22v93.8131h12.22V70.8768c0-14.1,12.7841-23.3123,24.8164-23.3123,15.4162,0,23.6882,11.4682,23.6882,26.6963v57.1527h12.22V72.3808c0-18.2362,13.3482-24.8163,25.1923-24.8163,15.04,0,23.8764,11.4682,23.8764,26.6963v57.1527h12.22V74.2608C438.1206,51.1365,425.5244,36.2844,403.904,36.2844Z"/><path class="cls-1" d="M238.462,48.6925a45.4533,45.4533,0,0,0-31.5843-12.4081c-27.8244,0-47.5646,21.0562-47.5646,48.5045s19.74,48.3166,47.5646,48.3166c12.22,0,23.6882-4.512,31.5843-12.4082v10.9042h12.0322V37.7886H238.462Zm-32.3364,72.1929c-20.3042,0-34.5924-16.1682-34.5924-36.0965,0-20.1162,14.2882-36.2844,34.5924-36.2844S240.342,62.7927,240.342,84.7889C240.342,106.5973,226.43,120.8854,206.1256,120.8854Z"/><rect class="cls-1" x="271.0803" width="12.2202" height="131.4136"/><path class="cls-1" d="M619.2659,71.7759l.0315-.5158,1.6045-24.7526h40.14V35.7886h-50.526l-3.3847,47.1125,26.05.6929c12.21,0,20.0983,7.0454,20.0983,17.95,0,10.8229-8.0015,17.818-20.3751,17.818-10.53,0-18.0414-4.9978-20.7149-13.7355l-9.7316,5.5452c4.271,12.0086,15.8963,19.4469,30.4464,19.4469,15.2987,0,31.7675-9.0962,31.7675-29.0751s-16.1857-29.0749-31.2265-29.0749Z"/></svg>