<svg width="100" height="16" viewBox="0 0 100 16" xmlns="http://www.w3.org/2000/svg" xmlns:xlink="http://www.w3.org/1999/xlink"><title>product name</title><defs><path id="a" d="M.007.182h10.729v11.557H.006z"/><path id="c" d="M0 15.692h99.385V0H0z"/></defs><g fill="none" fill-rule="evenodd"><path d="M86.611 9.986h-1.246V7.795h1.246c.77 0 1.247.422 1.247 1.1 0 .673-.478 1.091-1.247 1.091m0-2.91h-1.996v6.155h.75v-2.527h1.246c1.18 0 2.004-.744 2.004-1.809 0-1.07-.824-1.818-2.004-1.818m3.395 2.361v-.474h-.775v4.267h.775v-2.757c.175-.594.55-.858 1.215-.858h.471v-.693h-.397c-.528 0-1.025.205-1.29.515m4.456 2.852c-.85 0-1.468-.64-1.468-1.521 0-.881.618-1.52 1.468-1.52s1.468.639 1.468 1.52c0 .88-.617 1.52-1.468 1.52m0-3.674c-1.227 0-2.153.926-2.153 2.154 0 1.228.926 2.154 2.153 2.154 1.228 0 2.154-.926 2.154-2.154 0-1.228-.926-2.154-2.154-2.154" fill="#231916"/><path d="M82.294 6.409c0-.743.607-1.348 1.353-1.348h13.629c.746 0 1.353.605 1.353 1.348v6.875c0 .743-.607 1.347-1.353 1.347h-13.63a1.352 1.352 0 0 1-1.352-1.347V6.409zm14.982-2.101h-13.63a2.107 2.107 0 0 0-2.108 2.1v6.876c0 1.158.946 2.1 2.109 2.1h13.629a2.107 2.107 0 0 0 2.109-2.1V6.409c0-1.16-.947-2.101-2.11-2.101zm-24.204 4.32l.004-.062.19-2.971h4.765V4.308h-5.998l-.402 5.655 3.093.084c1.449 0 2.385.846 2.385 2.155 0 1.3-.95 2.139-2.418 2.139-1.25 0-2.142-.6-2.459-1.65l-1.155.666c.507 1.442 1.887 2.335 3.614 2.335 1.816 0 3.77-1.092 3.77-3.49 0-2.399-1.92-3.49-3.706-3.49l-1.683-.084zm-64.809.185c.402-2.157 2.163-3.451 4.058-3.451 1.94 0 3.5 1.317 3.768 3.45H8.263zM12.366 4C8.999 4 6.769 6.588 6.769 9.857c0 3.224 2.074 5.835 5.552 5.835 2.297 0 3.924-1.067 4.883-2.747l-1.249-.817c-.758 1.317-1.828 2.202-3.634 2.202-2.408 0-4.08-1.907-4.102-4.223h9.32v-.409C17.515 6.088 15.218 4 12.365 4zM0 4.308v11.077h1.467V5.637h5.302v-1.33zm54.725 4.505c.401-2.157 2.162-3.451 4.058-3.451 1.94 0 3.5 1.317 3.768 3.45h-7.826zM64 9.698C63.978 6.088 61.681 4 58.827 4c-3.367 0-5.596 2.588-5.596 5.857 0 3.224 2.073 5.835 5.552 5.835 2.296 0 3.924-1.067 4.883-2.747l-1.249-.817c-.758 1.317-1.828 2.202-3.634 2.202-2.408 0-4.08-1.907-4.103-4.223H64v-.409zM47.614 4c-1.546 0-2.936.698-3.742 2.025C43.267 4.855 42.169 4 40.443 4c-1.322 0-2.532.518-3.294 1.642V4.157h-1.457v11.228h1.457V8.14c0-1.688 1.524-2.79 2.958-2.79 1.837 0 2.824 1.372 2.824 3.195v6.84h1.456V8.32c0-2.182 1.591-2.97 3.003-2.97 1.793 0 2.846 1.372 2.846 3.195v6.84h1.456v-6.84C51.692 5.777 50.191 4 47.614 4" fill="#231916"/><g transform="translate(18.77 4)"><mask id="b" fill="#fff"><use xlink:href="#a"/></mask><path d="M5.515 10.28c-2.39 0-4.07-1.93-4.07-4.308 0-2.402 1.68-4.332 4.07-4.332 2.389 0 4.026 1.706 4.026 4.332 0 2.603-1.637 4.308-4.026 4.308zM9.32 1.663C8.39.743 7.04.182 5.603.182 2.33.182.007 2.695.007 5.972c0 3.276 2.322 5.767 5.596 5.767 1.438 0 2.788-.538 3.717-1.48v1.3h1.416V.361H9.32v1.302z" fill="#231916" mask="url(#b)"/></g><mask id="d" fill="#fff"><use xlink:href="#c"/></mask><path fill="#231916" mask="url(#d)" d="M32.308 15.385h1.23V0h-1.23z"/></g></svg>