<svg width="663" height="415" viewBox="0 0 663 415" xmlns="http://www.w3.org/2000/svg"><title>长宽高线框</title><g fill="none" fill-rule="evenodd"><path d="M26.229 103.5L.5 110.5m345 295l-30 9" stroke="#D7D7D7"/><path d="M109.152 259.576h1.296v10.288h6.608V271h-7.904v-11.424zm12.656 2.928c1.328 0 2.336.448 3.008 1.344.608.8.928 1.936.96 3.376h-6.528c.064.928.304 1.648.752 2.16.448.512 1.072.768 1.856.768.672 0 1.232-.176 1.648-.512.352-.288.624-.72.832-1.296h1.28c-.192.8-.56 1.44-1.12 1.952-.688.608-1.568.928-2.64.928-1.184 0-2.144-.4-2.848-1.168-.736-.8-1.088-1.856-1.088-3.2 0-1.216.336-2.24 1.04-3.056.704-.864 1.648-1.296 2.848-1.296zm.032 1.072c-.736 0-1.328.24-1.776.72-.448.48-.704 1.12-.784 1.936h5.168c-.16-1.776-1.04-2.656-2.608-2.656zm9.312-1.072c2.048 0 3.088 1.136 3.088 3.408V271h-1.28v-4.992c0-1.616-.736-2.416-2.176-2.416-.576 0-1.072.208-1.488.624-.448.448-.688 1.04-.736 1.792V271h-1.28v-8.272h1.28v1.216a2.905 2.905 0 0 1 1.104-1.056 2.946 2.946 0 0 1 1.488-.384zm8.48 0c1.248 0 2.176.544 2.784 1.648v-1.424h1.28v7.696c0 2.64-1.264 3.968-3.776 3.968-1.12 0-1.984-.224-2.56-.672-.592-.448-.96-1.12-1.104-2.016h1.28c.096.56.336.976.704 1.232.368.272.928.416 1.68.416 1.664 0 2.496-.928 2.496-2.752v-1.456c-.608 1.104-1.536 1.664-2.784 1.664-1.152 0-2.064-.4-2.736-1.184-.672-.768-.992-1.744-.992-2.944 0-1.216.32-2.192.992-2.96.672-.816 1.584-1.216 2.736-1.216zm.192 1.056c-.832 0-1.472.288-1.936.896-.448.544-.672 1.296-.672 2.224 0 .864.192 1.584.592 2.128.448.608 1.104.928 2 .928.832 0 1.472-.288 1.952-.864.448-.56.672-1.296.672-2.192 0-.928-.224-1.68-.672-2.224-.48-.608-1.12-.896-1.936-.896zm8.064-3.504v2.672h2.048v1.072h-2.048v5.264c0 .304.048.528.176.656.112.128.32.208.608.208h1.056V271h-1.248c-.672 0-1.168-.176-1.456-.528-.272-.32-.4-.784-.4-1.408V263.8h-1.664v-1.072h1.664v-2.144l1.264-.528zm3.472-.704h1.28v4.736a2.978 2.978 0 0 1 1.152-1.2 2.963 2.963 0 0 1 1.504-.384c.96 0 1.712.272 2.224.848.512.56.768 1.376.768 2.432V271h-1.28v-5.024c0-.768-.192-1.36-.544-1.776-.384-.416-.912-.624-1.6-.624-.64 0-1.168.256-1.584.768-.432.512-.64 1.168-.64 1.936V271h-1.28v-11.648zm463.792 68.224h1.312v4.96h6.608v-4.96h1.312V339h-1.312v-5.328h-6.608V339h-1.312v-11.424zm14.768 2.928c1.328 0 2.336.448 3.008 1.344.608.8.928 1.936.96 3.376h-6.528c.064.928.304 1.648.752 2.16.448.512 1.072.768 1.856.768.672 0 1.232-.176 1.648-.512.352-.288.624-.72.832-1.296h1.28c-.192.8-.56 1.44-1.12 1.952-.688.608-1.568.928-2.64.928-1.184 0-2.144-.4-2.848-1.168-.736-.8-1.088-1.856-1.088-3.2 0-1.216.336-2.24 1.04-3.056.704-.864 1.648-1.296 2.848-1.296zm.032 1.072c-.736 0-1.328.24-1.776.72-.448.48-.704 1.12-.784 1.936h5.168c-.16-1.776-1.04-2.656-2.608-2.656zm6.496-3.968c.272 0 .496.08.688.272.192.16.288.384.288.672a.93.93 0 0 1-.288.688.981.981 0 0 1-.688.272.981.981 0 0 1-.688-.272.916.916 0 0 1-.272-.688c0-.288.08-.512.272-.672a.916.916 0 0 1 .688-.272zm-.64 3.12h1.28V339h-1.28v-8.272zm7.088-.224c1.248 0 2.176.544 2.784 1.648v-1.424h1.28v7.696c0 2.64-1.264 3.968-3.776 3.968-1.12 0-1.984-.224-2.56-.672-.592-.448-.96-1.12-1.104-2.016h1.28c.096.56.336.976.704 1.232.368.272.928.416 1.68.416 1.664 0 2.496-.928 2.496-2.752v-1.456c-.608 1.104-1.536 1.664-2.784 1.664-1.152 0-2.064-.4-2.736-1.184-.672-.768-.992-1.744-.992-2.944 0-1.216.32-2.192.992-2.96.672-.816 1.584-1.216 2.736-1.216zm.192 1.056c-.832 0-1.472.288-1.936.896-.448.544-.672 1.296-.672 2.224 0 .864.192 1.584.592 2.128.448.608 1.104.928 2 .928.832 0 1.472-.288 1.952-.864.448-.56.672-1.296.672-2.192 0-.928-.224-1.68-.672-2.224-.48-.608-1.12-.896-1.936-.896zm5.856-4.208h1.28v4.736a2.978 2.978 0 0 1 1.152-1.2 2.963 2.963 0 0 1 1.504-.384c.96 0 1.712.272 2.224.848.512.56.768 1.376.768 2.432V339h-1.28v-5.024c0-.768-.192-1.36-.544-1.776-.384-.416-.912-.624-1.6-.624-.64 0-1.168.256-1.584.768-.432.512-.64 1.168-.64 1.936V339h-1.28v-11.648zm11.104.704v2.672h2.048v1.072h-2.048v5.264c0 .304.048.528.176.656.112.128.32.208.608.208h1.056V339h-1.248c-.672 0-1.168-.176-1.456-.528-.272-.32-.4-.784-.4-1.408V331.8h-1.664v-1.072h1.664v-2.144l1.264-.528zM107.08 16.576h1.472l2.512 9.584h.064l2.608-9.584h1.424l2.592 9.584h.064l2.512-9.584h1.472L118.52 28h-1.456l-2.592-9.52h-.048L111.816 28h-1.456l-3.28-11.424zm16.848.032c.272 0 .496.08.688.272.192.16.288.384.288.672a.93.93 0 0 1-.288.688.981.981 0 0 1-.688.272.981.981 0 0 1-.688-.272.916.916 0 0 1-.272-.688c0-.288.08-.512.272-.672a.916.916 0 0 1 .688-.272zm-.64 3.12h1.28V28h-1.28v-8.272zm9.792-3.376h1.28V28h-1.2v-1.36c-.576 1.056-1.504 1.584-2.752 1.584-1.216 0-2.16-.448-2.832-1.312-.624-.8-.928-1.824-.928-3.072 0-1.216.304-2.208.928-3.008.672-.896 1.584-1.328 2.768-1.328 1.184 0 2.096.576 2.736 1.744v-4.896zm-2.464 4.208c-.912 0-1.6.32-2.048.96-.416.56-.608 1.328-.608 2.32 0 .992.192 1.776.592 2.352.448.64 1.12.976 2.016.976.832 0 1.472-.32 1.936-.96.4-.576.608-1.328.608-2.256v-.16c0-.96-.24-1.744-.688-2.336-.464-.608-1.072-.896-1.808-.896zm7.936-3.504v2.672h2.048V20.8h-2.048v5.264c0 .304.048.528.176.656.112.128.32.208.608.208h1.056V28h-1.248c-.672 0-1.168-.176-1.456-.528-.272-.32-.4-.784-.4-1.408V20.8h-1.664v-1.072h1.664v-2.144l1.264-.528zm3.472-.704h1.28v4.736a2.978 2.978 0 0 1 1.152-1.2 2.963 2.963 0 0 1 1.504-.384c.96 0 1.712.272 2.224.848.512.56.768 1.376.768 2.432V28h-1.28v-5.024c0-.768-.192-1.36-.544-1.776-.384-.416-.912-.624-1.6-.624-.64 0-1.168.256-1.584.768-.432.512-.64 1.168-.64 1.936V28h-1.28V16.352z" fill="#9B9B9B" fill-rule="nonzero"/><path d="M10.5 107.772l323 301.728M23.855 63.772L42 78.5M237.855.772L256 15.5m-8.5-7l-215 62m553.95 247h27.587m-14.037 0v33m-13.55 0h27.587" stroke="#D7D7D7"/><g stroke="#949494" stroke-width=".5"><path d="M118.623 63.347c4.615-1.345 9.317-3.029 14.345-4.129 5.028-1.1 11.878-2.413 20.269-.47 8.484 1.963 14.769 4.558 21.84 1.277 3.706-1.72 3.812-3.737 4.163-5.756.315-1.807.472-3.378 1.179-4.949.853-1.897 2.622-3.274 5.264-4.714 2.64-1.44 14.203-4.815 16.486-5.478 2.284-.662 30.755-8.905 33.914-9.842 3.16-.936 7.028-1.963 10.013-2.435 2.985-.47 16.629-1.12 25.139 4.714 8.51 5.835 273.078 254.066 284.077 265.064 10.998 11 13.099 18.242-2.671 23.57-15.77 5.326-152.082 44.185-159.322 46.193-7.24 2.008-23.006 1.46-32.053-6.6-9.047-8.059-271.978-254.93-281.405-263.57-4.308-3.95-7.274-7.34-7.856-10.764-.752-4.419 2.092-8.53 7.227-10.213 10.147-3.324 39.39-11.898 39.39-11.898z"/><path d="M579.116 316.663s1.478 2.44 3.221 6.52c3.66 8.564.864 14.927-3.614 21.998-3.478 5.49-12.649 10.292-19.64 12.255-37.9 10.646-131.31 38.194-151.466 43.995-20.155 5.8-32.603 1.492-50.593-15.555 0 0-291.51-272.727-295.232-276.221-5.609-5.263-8.236-12.177-7.385-17.912 1.243-8.386 5.468-10.54 7.07-11.941C63.08 78.4 65.05 76.72 65.05 76.72"/><path d="M71.22 97.714c-8.633-8.415-9.114-11-8.957-15.398.154-4.321 4.085-7.856 12.255-10.685 8.171-2.828 62.85-18.226 62.85-18.226s2.403.422 5.027-.314c2.624-.735 31.581-9.113 32.29-9.505.706-.393.492-1.306 1.963-1.65 1.47-.345 42.28-12.844 47.922-14.377 5.642-1.533 12.62-3.693 15.398-4.242 2.778-.55 19.848-3.692 32.917 4.32 13.07 8.014 296.253 275.907 298.768 278.578 2.513 2.67 8.17 7.542 7.856 13.826-.315 6.285-2.986 9-23.647 15.499-20.662 6.498-126.876 36.98-139.917 40.594-13.04 3.614-16.154 5.328-26.633 4.87-10.478-.456-16.89-1.413-29.46-12.333-11.76-10.218-217.767-201.867-288.633-270.957zm.248 15.458c-3.405-3.214-5.415-5.122-5.774-5.481-4.557-4.556-11.287-9.898-10.815-18.305m20.513 27.487c-.477-.45-1.253-1.299-1.7-1.719m58.344 54.993l-20.122-18.91m47.804 44.913l-5.539-5.202"/><path d="M425.593 385.49c-13.135 3.796-22.151 6.468-23.79 6.827-10.37 2.278-26.71.814-35.587-5.027-4.924-3.24-7.91-5.124-14.534-11.156-5.895-5.367-93.43-87.464-170.128-159.479m402.464 114.463c-.424 6.992-5.687 10.057-11.894 12.02-4.84 1.532-92.758 26.794-140.703 40.667m-1.391 9.376c40.826-11.483 120.904-35.138 126.57-36.845 13.56-4.086 20.736-8.17 23.83-13.984"/><path d="M180.497 218.304a219126.606 219126.606 0 0 0 168.316 157.672c2.2 2.043 14.22 14.263 26.28 19.611 11.117 4.931 20.537 6.306 32.838 3.487 3.235-.743 8.366-2.087 16.471-4.339M153.08 192.588c1.7 1.596 3.774 3.519 5.496 5.134m-27.494-25.812a55427.28 55427.28 0 0 1-20.188-18.97m-37.651-35.489l1.724 1.631M54.25 94.021c.434 2.691 1.788 6.363 6.756 11.706.65.7 4.182 4.086 9.998 9.602"/><path d="M78.918 116.883c4.32 4.085 22.833 21.358 30.378 28.648.64.617 1.408 1.527 1.91 2.54.77 1.548.924 3.37.079 4.557-.864 1.214-2.933-.471-4.558-2.042-7.22-6.982-22.252-20.977-29.773-27.786-.92-.832-2.677-3.246-1.807-5.29.89-2.09 3.077-1.284 3.77-.627zM431.17 392.064c-2.393 2.75-5.78 3.722-7.561 2.17-1.783-1.55-1.288-5.039 1.106-7.789s5.78-3.723 7.563-2.17c1.783 1.551 1.287 5.038-1.107 7.79z"/><path d="M431.605 383.824c1.15 1.73.525 4.767-1.608 7.218-2.124 2.44-5.03 3.48-6.903 2.6m31.661-10.914c-.933 1.072-2.253 1.452-2.949.847-.695-.606-.502-1.965.432-3.037.934-1.074 2.253-1.453 2.95-.847.694.605.501 1.965-.433 3.037zm70.829-20.184c-.934 1.073-2.337 1.379-3.136.684-.8-.695-.69-2.128.244-3.201.934-1.072 2.338-1.378 3.136-.683.799.695.69 2.128-.244 3.2z"/><path d="M525.346 359.01c.325.755.1 1.82-.633 2.663-.81.93-1.974 1.284-2.79.906m9.833-1.795c-.934 1.073-2.337 1.379-3.136.684-.8-.695-.69-2.128.244-3.201.934-1.072 2.338-1.378 3.136-.683.799.695.69 2.128-.244 3.2z"/><path d="M531.517 357.25c.325.755.101 1.82-.633 2.663-.81.93-1.974 1.284-2.789.907m9.833-1.796c-.933 1.073-2.337 1.38-3.136.684-.8-.695-.69-2.128.244-3.2.934-1.073 2.338-1.379 3.137-.684.798.695.689 2.128-.245 3.2z"/><path d="M537.69 355.49c.324.755.1 1.82-.634 2.663-.81.931-1.974 1.284-2.789.907m9.833-1.796c-.933 1.073-2.337 1.38-3.136.684-.8-.695-.69-2.128.243-3.2.935-1.073 2.339-1.379 3.137-.684s.69 2.128-.245 3.2z"/><path d="M543.861 353.73c.325.755.101 1.82-.633 2.663-.81.931-1.974 1.284-2.789.907m9.833-1.795c-.934 1.073-2.338 1.379-3.136.684-.8-.695-.69-2.128.244-3.201.934-1.072 2.337-1.378 3.136-.683.798.695.689 2.128-.244 3.2z"/><path d="M550.033 351.97c.325.755.101 1.82-.633 2.663-.81.932-1.974 1.285-2.789.908m9.833-1.795c-.934 1.072-2.338 1.378-3.136.683-.8-.695-.69-2.128.244-3.201.934-1.072 2.338-1.378 3.136-.683.798.695.689 2.128-.244 3.2z"/><path d="M556.205 350.21c.325.756.101 1.82-.633 2.664-.81.93-1.974 1.284-2.789.907m-75.449 25.022c-2.408.73-3.726-1.255-3.726-2.67 0-2.984 2.038-4.285 4.2-4.87 4.028-1.088 13.235-3.79 17.876-5.027 1.178-.315 3.378.286 3.378 2.512 0 2.516-1.336 3.745-4.399 4.767-2.972.99-13.12 4.014-17.329 5.288zm101.938-61.511c1.022 3.525.961 4.962.55 7.306-.41 2.344-2.985 6.992-13.748 10.606-4.597 1.543-147.672 43.165-153.115 44.7-5.443 1.536-14.982 4.592-25.14 4.086-10.157-.507-14.926-2.985-17.283-4.242-2.357-1.257-5.342-3.143-7.778-5.343l-10.605-9.584S76.011 106.12 73.104 103.213c-2.907-2.907-10.897-9.853-11.784-14.926-.887-5.074 1.64-8.8 1.64-8.8m10.719 35.486c.064.217.106.433.129.641.1.93-.2 1.714-.778 1.884-.708.208-1.564-.585-1.914-1.77-.35-1.187-.058-2.317.65-2.526.707-.208 1.564.585 1.913 1.771zm60.074 57.67c1.944 1.806 15.084 14.158 16.341 15.415 1.257 1.258 1.948 2.263 1.728 3.457-.219 1.194-1.5.103-2.108-.472-.608-.573-15.635-14.522-16.589-15.397-1.336-1.226-2.67-2.976-1.807-4.086.59-.756 1.947.63 2.435 1.083z"/><path d="M150.88 191.927s2.35 1.476 3.064.06c.872-1.73-.677-3.928-1.964-5.106-.687-.63-15.278-14.256-17.667-16.499-.753-.707-2.068-.299-2.62.237-.486.47-.61 1.292-.61 1.292"/><path d="M131.693 170.618c.902-.314 2.096.846 2.532 1.257.436.41 16.72 15.775 17.519 16.493.799.72 1.363 2.283 1.022 3.304-.342 1.022-1.415.55-1.415.55m9.752 6.046c1.944 1.806 15.083 14.16 16.34 15.416 1.258 1.257 1.949 2.263 1.729 3.457-.22 1.194-1.5.102-2.108-.472a12827.5 12827.5 0 0 0-16.59-15.398c-1.335-1.225-2.671-2.975-1.807-4.085.589-.757 1.948.63 2.436 1.082z"/><path d="M178.229 217.552s2.35 1.476 3.064.06c.872-1.73-.677-3.927-1.964-5.106-.687-.63-15.278-14.256-17.667-16.498-.753-.707-2.068-.3-2.62.236-.486.471-.61 1.292-.61 1.292"/><path d="M159.042 196.244c.902-.314 2.096.846 2.532 1.257.436.41 16.72 15.775 17.52 16.494.798.719 1.362 2.282 1.02 3.304-.34 1.02-1.414.549-1.414.549M137.917 53.26l37.552-10.708m-3.394 12.961c-.188 1.214-1.893 1.958-3.809 1.662-1.916-.296-3.317-1.52-3.129-2.735.188-1.214 1.893-1.958 3.81-1.662 1.915.296 3.315 1.521 3.128 2.735z"/><path d="M170.668 55.295c-.112.722-1.125 1.165-2.265.988-1.138-.176-1.97-.904-1.86-1.626.112-.72 1.126-1.164 2.265-.988 1.14.176 1.971.904 1.86 1.626zm326.587 311.097c.491.727-.109 4.526-4.635 5.813-4.526 1.288-15.596 4.468-17.126 4.872-1.53.402-1.84-.472-1.84-.472"/></g></g></svg>