<svg width="609" height="293" viewBox="0 0 609 293" xmlns="http://www.w3.org/2000/svg" xmlns:xlink="http://www.w3.org/1999/xlink"><title>屏幕显示</title><defs><path id="a" d="M.791.197h3.101V1h-3.1z"/><path id="c" d="M.864.101h1V1h-1z"/><path id="e" d="M.325.102H3.57V1H.325z"/><path id="g" d="M.806.104h1V1h-1z"/><path id="i" d="M.574.307h3.218V1H.574z"/><path id="k" d="M.543.27h1.658V1H.543z"/><path id="m" d="M.842.294h1.7V1h-1.7z"/><path id="o" d="M.682.301h1.007V1H.682z"/><path id="q" d="M.687.144h1V1h-1z"/><path id="s" d="M.072.29h1.215V1H.072z"/><path id="u" d="M.01.305h1V1h-1z"/><path id="w" d="M.09.254h1V1h-1z"/><path id="y" d="M.54.24h6.38V1H.54z"/><path id="A" d="M.191.24h1.151V1H.191z"/><path id="C" d="M.985.322h2.188V1H.985z"/><path id="E" d="M.98.24h1.682V1H.98z"/><path id="G" d="M.084.23h1V1h-1z"/><path id="I" d="M.663.222h1.444V1H.663z"/><path id="K" d="M.678.18h1V1h-1z"/><path id="M" d="M.194.172h1.988V1H.194z"/><path id="O" d="M.952.154h3.372V1H.952z"/><path id="Q" d="M.602.076h1V1h-1z"/><path id="S" d="M.176.082h7.922V1H.176z"/><path id="U" d="M.542.127h6.501V1h-6.5z"/><path id="W" d="M.7.093h1.6V1H.7z"/><path id="Y" d="M.948.15h2.945V1H.948z"/><path id="aa" d="M.498.164h2.45V1H.497z"/><path id="ac" d="M.658.128h1V1h-1z"/><path id="ae" d="M.071.153h1.472V1H.07z"/><path id="ag" d="M.92.19h2.938V1H.92z"/><path id="ai" d="M.905.125h1.003V1H.905z"/><path id="ak" d="M.498.168h2.588V1H.498z"/><path id="am" d="M.008.13h1V1h-1z"/><path id="ao" d="M.612.116h2.712V1H.611z"/><path id="aq" d="M.893.137H2.21V1H.893z"/><path id="as" d="M.62.155h1.922V1H.62z"/><path id="au" d="M.043.1h1.305V1H.043z"/><path id="aw" d="M.072.154H1.15V1H.07z"/><path id="ay" d="M.3.06h9.65V1H.3z"/><path id="aA" d="M.098.037H8.09V1H.1z"/><path id="aC" d="M.498.167h2.448V1H.498z"/><path id="aE" d="M.098.036h7.99V1H.099z"/><path id="aG" d="M.348.079H7.75V1H.35z"/><path id="aI" d="M.29.06h7.532V1H.29z"/><path id="aK" d="M.07.015h2.542V1H.07z"/><path id="aM" d="M.542.085H16.54V1H.542z"/><path id="aO" d="M.758.05h1V1h-1z"/><path id="aQ" d="M.663.164h1.44V1H.663z"/><path id="aS" d="M.635.337h3.35V1H.635z"/><path id="aU" d="M.031.165h1V1h-1z"/><path id="aW" d="M.22.337h3.354V1H.22z"/><path id="aY" d="M.275.208h1V1h-1z"/><path id="ba" d="M.033.163h1.92V1H.032z"/><path id="bc" d="M.244.016h2.242V1H.244z"/><path id="be" d="M.055.02h5.286V1H.055z"/><path id="bg" d="M.612.155h2.422V1H.612z"/><path id="bi" d="M.807.159h1V1h-1z"/><path id="bk" d="M.151.308h1V1h-1z"/><path id="bm" d="M.423.036h2.705V1H.423z"/><path id="bo" d="M.487.059h13.719V1H.486z"/><path id="bq" d="M.341.055h8.16V1H.34z"/><path id="bs" d="M.002.154h1.08V1H.002z"/><path id="bu" d="M.184.059h5.18V1H.184z"/><path id="bw" d="M.262.141H3.91V1H.262z"/><path id="by" d="M.406.113H5.27V1H.405z"/><path id="bA" d="M.578.134h2.34V1H.577z"/><path id="bC" d="M.5.104h7.762V1H.5z"/><path id="bE" d="M.881.181h1V1h-1z"/><path id="bG" d="M.91.166h4.197V1H.91z"/><path id="bI" d="M.27.139h3.424V1H.27z"/><path id="bK" d="M.09.095h1V1h-1z"/><path id="bM" d="M.5.084h2.706V1H.5z"/><path id="bO" d="M.774.111h4.488V1H.774z"/><path id="bQ" d="M.693.16h4.414V1H.693z"/><path id="bS" d="M.774.11h4.488V1H.774z"/><path id="bU" d="M.694.16H3.95V1H.694z"/><path id="bW" d="M.612.12H2.08V1H.61z"/><path id="bY" d="M.609.143h2.394V1H.609z"/><path id="ca" d="M.5.087h2.705V1H.5z"/><path id="cc" d="M.95.18h2.071V1H.951z"/><path id="ce" d="M.654.224h7.208V1H.654z"/><path id="cg" d="M.928.207h1V1h-1z"/><path id="ci" d="M.672.275h1V1h-1z"/><path id="ck" d="M.465.156h1V1h-1z"/><path id="cm" d="M.91.171h4.196V1H.91z"/><path id="co" d="M.275.21h1V1h-1z"/><path id="cq" d="M.61.218h1.583V1H.61z"/><path id="cs" d="M.082.23h1V1h-1z"/><path id="cu" d="M.992.322h2.23V1H.991z"/><path id="cw" d="M.896.24h1V1h-1z"/><path id="cy" d="M.734.25h1V1h-1z"/><path id="cA" d="M.187.27h1V1h-1z"/><path id="cC" d="M.752.263h1V1h-1z"/><path id="cE" d="M.647.263H1.81V1H.647z"/><path id="cG" d="M.732.288H3.31V1H.73z"/><path id="cI" d="M.732.275h1.423V1H.732z"/><path id="cK" d="M.711.277h1V1h-1z"/><path id="cM" d="M.42.308h3.215V1H.42z"/><path id="cO" d="M.752.261h1V1h-1z"/><path id="cQ" d="M.516.157h1V1h-1z"/><path id="cS" d="M.98.265h1V1h-1z"/><path id="cU" d="M.734.135h1V1h-1z"/><path id="cW" d="M.302.296h1V1h-1z"/><path id="cY" d="M.325.2H3.42V1H.325z"/><path id="da" d="M.855.102h1V1h-1z"/><path id="dc" d="M.042.213h1V1h-1z"/><path id="de" d="M.443.006h34.008V1H.443z"/><path id="dg" d="M.608.019h44.05V1H.608z"/><path id="di" d="M.822.022h22.187V1H.822z"/><path id="dk" d="M.3.04h19.027V1H.3z"/><path id="dm" d="M.665.042h14.9V1H.666z"/><path id="do" d="M.542.103H16.43V1H.54z"/><path id="dq" d="M.543.068H16.07V1H.543z"/><path id="ds" d="M.63.104h9.979V1H.629z"/><path id="du" d="M.542.112H12.29V1H.542z"/><path id="dw" d="M.107.196h4.087V1H.107z"/><path id="dy" d="M.826.203h5.54V1H.825z"/><path id="dA" d="M.542.232h9.316V1H.542z"/><path id="dC" d="M.543.226h9.65V1H.544z"/><path id="dE" d="M.656.19H3.36V1H.656z"/><path id="dG" d="M.056.235h3.806V1H.056z"/><path id="dI" d="M.656.194H3.36V1H.656z"/><path id="dK" d="M.543.264H3.19V1H.543z"/><path id="dM" d="M.056.23h3.806V1H.056z"/><path id="dO" d="M.977.349h1.189V1H.976z"/><path id="dQ" d="M.48.235h1.994V1H.48z"/><path id="dS" d="M.479.241h1.994V1H.479z"/><path id="dU" d="M.788.115h1V1h-1z"/><path id="dW" d="M.603.093h1V1h-1z"/><path id="dY" d="M.446.06h1V1h-1z"/><path id="ea" d="M.985.055h1V1h-1z"/><path id="ec" d="M.221.046h1V1h-1z"/><path id="ee" d="M.353.047h1V1h-1z"/><path id="eg" d="M.852.041h1V1h-1z"/><path id="ei" d="M.706.132h1V1h-1z"/><path id="ek" d="M.582.146h1V1h-1z"/><path id="em" d="M.204.089h1V1h-1z"/><path id="eo" d="M.54.075h1V1h-1z"/><path id="eq" d="M.049.053h1V1h-1z"/><path id="es" d="M.235.15h1V1h-1z"/><path id="eu" d="M.892.14h1V1h-1z"/><path id="ew" d="M.104.155h1.733V1H.104z"/><path id="ey" d="M.537.13h1.006V1H.537z"/><path id="eA" d="M.396.112h1V1h-1z"/><path id="eC" d="M.753.18H4.49V1H.753z"/><path id="eE" d="M.532.163h1.866V1H.532z"/><path id="eG" d="M.033.165H1.74V1H.033z"/><path id="eI" d="M.06.068h74.552V1H.06z"/><path id="eK" d="M.311.315h9.442V1H.311z"/><path id="eM" d="M.612.018h74.965V1H.612z"/><path id="eO" d="M.473.316h9.369V1H.473z"/><path id="eQ" d="M.975.109h1.232V1H.975z"/><path id="eS" d="M.451.036h7.95V1H.451z"/><path id="eU" d="M.402.061H6.63V1H.4z"/><path id="eW" d="M.166.329h4.516V1H.166z"/><path id="eY" d="M.602.143h7.47V1H.602z"/><path id="fa" d="M.901.328h7.941V1H.901z"/><path id="fc" d="M.95.017h7.67V1H.95z"/><path id="fe" d="M.679.976h3.697v.655H.679z"/><path id="fg" d="M.777.976h3.697v.654H.777z"/><path id="fi" d="M.244.22h4.65V1H.244z"/><path id="fk" d="M.022.199H2.61V1H.02z"/><path id="fm" d="M.658.09h1V1h-1z"/><path id="fo" d="M.576.03h93.035V1H.576z"/></defs><g fill="none" fill-rule="evenodd"><path d="M2.05 259.769l.563 2.78m-.445-2.861l.49 2.854m-1.023-5.659l.414 2.886m-.235-3.024l.354 2.942m-.809-5.795l.276 2.99m-.066-3.174l.245 3.037" stroke="#949494" stroke-width=".3"/><g transform="matrix(0 1 -1 0 1.976 250)"><mask id="b" fill="#fff"><use xlink:href="#a"/></mask><path d="M.791.775L3.892.618" stroke="#949494" stroke-width=".3" mask="url(#b)"/></g><path d="M1.414 250.572l.154 3.137" stroke="#949494" stroke-width=".3"/><g transform="matrix(0 1 -1 0 1.976 248)"><mask id="d" fill="#fff"><use xlink:href="#c"/></mask><path d="M1.25.605l.228-.007" stroke="#949494" stroke-width=".3" mask="url(#d)"/></g><g transform="matrix(0 1 -1 0 1.976 247)"><mask id="f" fill="#fff"><use xlink:href="#e"/></mask><path d="M.325.642L3.57.562" stroke="#949494" stroke-width=".3" mask="url(#f)"/></g><g transform="rotate(90 -35.512 37.488)"><mask id="h" fill="#fff"><use xlink:href="#g"/></mask><path d="M1.29.604h.033" stroke="#949494" stroke-width=".3" mask="url(#h)"/></g><g transform="matrix(0 1 -1 0 1.976 247)"><mask id="j" fill="#fff"><use xlink:href="#i"/></mask><path d="M.574.839L3.792.776" stroke="#949494" stroke-width=".3" mask="url(#j)"/></g><g transform="rotate(90 -25.512 27.488)"><mask id="l" fill="#fff"><use xlink:href="#k"/></mask><path d="M2.201.759L.543.782" stroke="#949494" stroke-width=".3" mask="url(#l)"/></g><g transform="rotate(90 -24.512 26.488)"><mask id="n" fill="#fff"><use xlink:href="#m"/></mask><path d="M2.542.782l-1.7.023" stroke="#949494" stroke-width=".3" mask="url(#n)"/></g><g transform="rotate(90 -24.512 26.488)"><mask id="p" fill="#fff"><use xlink:href="#o"/></mask><path d="M1.689.794L.682.808" stroke="#949494" stroke-width=".3" mask="url(#p)"/></g><g transform="matrix(0 1 -1 0 1.976 246)"><mask id="r" fill="#fff"><use xlink:href="#q"/></mask><path d="M.837.649l.7-.01" stroke="#949494" stroke-width=".3" mask="url(#r)"/></g><g transform="rotate(90 -25.012 26.988)"><mask id="t" fill="#fff"><use xlink:href="#s"/></mask><path d="M1.287.781L.072.798" stroke="#949494" stroke-width=".3" mask="url(#t)"/></g><g transform="rotate(90 -24.512 26.488)"><mask id="v" fill="#fff"><use xlink:href="#u"/></mask><path d="M.85.8L.17.81" stroke="#949494" stroke-width=".3" mask="url(#v)"/></g><g transform="rotate(90 -26.512 28.488)"><mask id="x" fill="#fff"><use xlink:href="#w"/></mask><path d="M.98.75L.202.76" stroke="#949494" stroke-width=".3" mask="url(#x)"/></g><g transform="rotate(90 -25.512 27.488)"><mask id="z" fill="#fff"><use xlink:href="#y"/></mask><path d="M.54.778L6.92.7" stroke="#949494" stroke-width=".3" mask="url(#z)"/></g><g transform="rotate(90 -27.012 28.988)"><mask id="B" fill="#fff"><use xlink:href="#A"/></mask><path d="M1.342.733L.191.747" stroke="#949494" stroke-width=".3" mask="url(#B)"/></g><g transform="rotate(90 -23.012 24.988)"><mask id="D" fill="#fff"><use xlink:href="#C"/></mask><path d="M.985.834L3.173.81" stroke="#949494" stroke-width=".3" mask="url(#D)"/></g><g transform="rotate(90 -26.512 28.488)"><mask id="F" fill="#fff"><use xlink:href="#E"/></mask><path d="M2.662.73L.98.75" stroke="#949494" stroke-width=".3" mask="url(#F)"/></g><g transform="rotate(90 -27.512 29.488)"><mask id="H" fill="#fff"><use xlink:href="#G"/></mask><path d="M.825.728L.342.733" stroke="#949494" stroke-width=".3" mask="url(#H)"/></g><g transform="rotate(90 -27.512 29.488)"><mask id="J" fill="#fff"><use xlink:href="#I"/></mask><path d="M2.107.714L.663.73" stroke="#949494" stroke-width=".3" mask="url(#J)"/></g><g transform="rotate(90 -30.012 31.988)"><mask id="L" fill="#fff"><use xlink:href="#K"/></mask><path d="M1.498.677l-.64.005" stroke="#949494" stroke-width=".3" mask="url(#L)"/></g><g transform="rotate(90 -30.512 32.488)"><mask id="N" fill="#fff"><use xlink:href="#M"/></mask><path d="M2.182.665L.194.68" stroke="#949494" stroke-width=".3" mask="url(#N)"/></g><g transform="matrix(0 1 -1 0 1.976 243)"><mask id="P" fill="#fff"><use xlink:href="#O"/></mask><path d="M.952.665L4.324.642" stroke="#949494" stroke-width=".3" mask="url(#P)"/></g><g transform="rotate(90 -35.512 37.488)"><mask id="R" fill="#fff"><use xlink:href="#Q"/></mask><path d="M1.176.575l-.149.001" stroke="#949494" stroke-width=".3" mask="url(#R)"/></g><g transform="rotate(90 -36.012 37.988)"><mask id="T" fill="#fff"><use xlink:href="#S"/></mask><path d="M8.098.556L.176.609" stroke="#949494" stroke-width=".3" mask="url(#T)"/></g><g transform="rotate(90 -25.512 27.488)"><mask id="V" fill="#fff"><use xlink:href="#U"/></mask><path d="M7.043.605l-6.5.044" stroke="#949494" stroke-width=".3" mask="url(#V)"/></g><g transform="rotate(90 -36.512 38.488)"><mask id="X" fill="#fff"><use xlink:href="#W"/></mask><path d="M2.3.588L.7.599" stroke="#949494" stroke-width=".3" mask="url(#X)"/></g><g transform="rotate(90 -31.512 33.488)"><mask id="Z" fill="#fff"><use xlink:href="#Y"/></mask><path d="M3.893.64L.948.66" stroke="#949494" stroke-width=".3" mask="url(#Z)"/></g><g transform="rotate(90 -30.512 32.488)"><mask id="ab" fill="#fff"><use xlink:href="#aa"/></mask><path d="M2.947.655L.498.672" stroke="#949494" stroke-width=".3" mask="url(#ab)"/></g><g transform="rotate(90 -31.512 33.488)"><mask id="ad" fill="#fff"><use xlink:href="#ac"/></mask><path d="M1.23.627l-.144.001" stroke="#949494" stroke-width=".3" mask="url(#ad)"/></g><g transform="rotate(90 -25.012 26.988)"><mask id="af" fill="#fff"><use xlink:href="#ae"/></mask><path d="M.071.658l1.472-.01" stroke="#949494" stroke-width=".3" mask="url(#af)"/></g><g transform="rotate(90 -28.512 30.488)"><mask id="ah" fill="#fff"><use xlink:href="#ag"/></mask><path d="M.92.7L3.858.681" stroke="#949494" stroke-width=".3" mask="url(#ah)"/></g><g transform="rotate(90 -34.012 35.988)"><mask id="aj" fill="#fff"><use xlink:href="#ai"/></mask><path d="M1.908.622L.905.628" stroke="#949494" stroke-width=".3" mask="url(#aj)"/></g><g transform="rotate(90 -30.512 32.488)"><mask id="al" fill="#fff"><use xlink:href="#ak"/></mask><path d="M3.086.66L.498.676" stroke="#949494" stroke-width=".3" mask="url(#al)"/></g><g transform="rotate(90 -34.012 35.988)"><mask id="an" fill="#fff"><use xlink:href="#am"/></mask><path d="M.905.628L.111.633" stroke="#949494" stroke-width=".3" mask="url(#an)"/></g><g transform="rotate(90 -34.512 36.488)"><mask id="ap" fill="#fff"><use xlink:href="#ao"/></mask><path d="M3.324.607L.611.625" stroke="#949494" stroke-width=".3" mask="url(#ap)"/></g><g transform="rotate(90 -33.012 34.988)"><mask id="ar" fill="#fff"><use xlink:href="#aq"/></mask><path d="M2.21.633L.893.64" stroke="#949494" stroke-width=".3" mask="url(#ar)"/></g><g transform="rotate(90 -24.512 26.488)"><mask id="at" fill="#fff"><use xlink:href="#as"/></mask><path d="M2.542.649L.62.66" stroke="#949494" stroke-width=".3" mask="url(#at)"/></g><g transform="rotate(90 -29.012 30.988)"><mask id="av" fill="#fff"><use xlink:href="#au"/></mask><path d="M1.348.597L.043.605" stroke="#949494" stroke-width=".3" mask="url(#av)"/></g><g transform="rotate(90 -25.012 26.988)"><mask id="ax" fill="#fff"><use xlink:href="#aw"/></mask><path d="M1.15.651L.073.657" stroke="#949494" stroke-width=".3" mask="url(#ax)"/></g><g transform="rotate(90 -37.512 39.488)"><mask id="az" fill="#fff"><use xlink:href="#ay"/></mask><path d="M9.95.533L.3.588" stroke="#949494" stroke-width=".3" mask="url(#az)"/></g><g transform="rotate(90 -40.012 41.988)"><mask id="aB" fill="#fff"><use xlink:href="#aA"/></mask><path d="M8.09.516L.097.559" stroke="#949494" stroke-width=".3" mask="url(#aB)"/></g><g transform="rotate(90 -30.512 32.488)"><mask id="aD" fill="#fff"><use xlink:href="#aC"/></mask><path d="M.498.673L2.946.66" stroke="#949494" stroke-width=".3" mask="url(#aD)"/></g><g transform="rotate(90 -40.012 41.988)"><mask id="aF" fill="#fff"><use xlink:href="#aE"/></mask><path d="M.098.556l7.99-.04" stroke="#949494" stroke-width=".3" mask="url(#aF)"/></g><g transform="rotate(90 -29.512 31.488)"><mask id="aH" fill="#fff"><use xlink:href="#aG"/></mask><path d="M7.75.56L.347.598" stroke="#949494" stroke-width=".3" mask="url(#aH)"/></g><g transform="rotate(90 -31.512 33.488)"><mask id="aJ" fill="#fff"><use xlink:href="#aI"/></mask><path d="M7.822.544L.29.576" stroke="#949494" stroke-width=".3" mask="url(#aJ)"/></g><g transform="rotate(90 -33.512 35.488)"><mask id="aL" fill="#fff"><use xlink:href="#aK"/></mask><path d="M.07.52L2.612.51" stroke="#949494" stroke-width=".3" mask="url(#aL)"/></g><g transform="rotate(90 -25.512 27.488)"><mask id="aN" fill="#fff"><use xlink:href="#aM"/></mask><path d="M16.54.554L.541.616" stroke="#949494" stroke-width=".3" mask="url(#aN)"/></g><g transform="rotate(90 -34.012 35.988)"><mask id="aP" fill="#fff"><use xlink:href="#aO"/></mask><path d="M.905.55h.706" stroke="#949494" stroke-width=".3" mask="url(#aP)"/></g><g transform="matrix(0 1 -1 0 1.976 243)"><mask id="aR" fill="#fff"><use xlink:href="#aQ"/></mask><path d="M.663.665l1.44-.003" stroke="#949494" stroke-width=".3" mask="url(#aR)"/></g><g transform="rotate(90 -21.512 23.488)"><mask id="aT" fill="#fff"><use xlink:href="#aS"/></mask><path d="M.635.839l3.35-.005" stroke="#949494" stroke-width=".3" mask="url(#aT)"/></g><path d="M1.48 96.593l-.002-1.584m.009 20.649v63.786m.002-32.868v18.484" stroke="#949494" stroke-width=".3"/><g transform="matrix(0 1 -1 0 1.976 243)"><mask id="aV" fill="#fff"><use xlink:href="#aU"/></mask><path d="M.399.665h.265" stroke="#949494" stroke-width=".3" mask="url(#aV)"/></g><g transform="matrix(0 1 -1 0 1.976 244)"><mask id="aX" fill="#fff"><use xlink:href="#aW"/></mask><path d="M.22.835L3.575.84" stroke="#949494" stroke-width=".3" mask="url(#aX)"/></g><g transform="matrix(0 1 -1 0 1.976 233)"><mask id="aZ" fill="#fff"><use xlink:href="#aY"/></mask><path d="M1.056.708H.495" stroke="#949494" stroke-width=".3" mask="url(#aZ)"/></g><g transform="matrix(0 1 -1 0 1.976 242)"><mask id="bb" fill="#fff"><use xlink:href="#ba"/></mask><path d="M.033.66l1.92.005" stroke="#949494" stroke-width=".3" mask="url(#bb)"/></g><g transform="rotate(90 -99.512 101.488)"><mask id="bd" fill="#fff"><use xlink:href="#bc"/></mask><path d="M.244.51l2.242.01" stroke="#949494" stroke-width=".3" mask="url(#bd)"/></g><g transform="rotate(90 -99.512 101.488)"><mask id="bf" fill="#fff"><use xlink:href="#be"/></mask><path d="M5.341.531L.055.507" stroke="#949494" stroke-width=".3" mask="url(#bf)"/></g><g transform="matrix(0 1 -1 0 1.976 239)"><mask id="bh" fill="#fff"><use xlink:href="#bg"/></mask><path d="M.612.649L3.034.66" stroke="#949494" stroke-width=".3" mask="url(#bh)"/></g><g transform="matrix(0 1 -1 0 1.976 240)"><mask id="bj" fill="#fff"><use xlink:href="#bi"/></mask><path d="M1.082.657l.45.003" stroke="#949494" stroke-width=".3" mask="url(#bj)"/></g><g transform="matrix(0 1 -1 0 1.976 241)"><mask id="bl" fill="#fff"><use xlink:href="#bk"/></mask><path d="M.992.81L.31.806" stroke="#949494" stroke-width=".3" mask="url(#bl)"/></g><g transform="matrix(0 1 -1 0 1.976 206)"><mask id="bn" fill="#fff"><use xlink:href="#bm"/></mask><path d="M3.128.543L.423.528" stroke="#949494" stroke-width=".3" mask="url(#bn)"/></g><g transform="matrix(0 1 -1 0 1.976 203)"><mask id="bp" fill="#fff"><use xlink:href="#bo"/></mask><path d="M.487.52l13.719.077" stroke="#949494" stroke-width=".3" mask="url(#bp)"/></g><g transform="matrix(0 1 -1 0 1.976 206)"><mask id="br" fill="#fff"><use xlink:href="#bq"/></mask><path d="M8.5.58L.341.53" stroke="#949494" stroke-width=".3" mask="url(#br)"/></g><g transform="matrix(0 1 -1 0 1.976 240)"><mask id="bt" fill="#fff"><use xlink:href="#bs"/></mask><path d="M.002.651l1.08.006" stroke="#949494" stroke-width=".3" mask="url(#bt)"/></g><g transform="matrix(0 1 -1 0 1.976 209)"><mask id="bv" fill="#fff"><use xlink:href="#bu"/></mask><path d="M5.364.574L.184.544" stroke="#949494" stroke-width=".3" mask="url(#bv)"/></g><g transform="matrix(0 1 -1 0 1.976 222)"><mask id="bx" fill="#fff"><use xlink:href="#bw"/></mask><path d="M3.91.652L.261.63" stroke="#949494" stroke-width=".3" mask="url(#bx)"/></g><g transform="matrix(0 1 -1 0 1.976 217)"><mask id="bz" fill="#fff"><use xlink:href="#by"/></mask><path d="M.406.598l4.864.03" stroke="#949494" stroke-width=".3" mask="url(#bz)"/></g><g transform="matrix(0 1 -1 0 1.976 222)"><mask id="bB" fill="#fff"><use xlink:href="#bA"/></mask><path d="M2.917.642L.578.627" stroke="#949494" stroke-width=".3" mask="url(#bB)"/></g><g transform="matrix(0 1 -1 0 1.976 214)"><mask id="bD" fill="#fff"><use xlink:href="#bC"/></mask><path d="M8.262.63L.5.579" stroke="#949494" stroke-width=".3" mask="url(#bD)"/></g><g transform="matrix(0 1 -1 0 1.976 229)"><mask id="bF" fill="#fff"><use xlink:href="#bE"/></mask><path d="M1.655.683L1.107.68" stroke="#949494" stroke-width=".3" mask="url(#bF)"/></g><g transform="matrix(0 1 -1 0 1.976 225)"><mask id="bH" fill="#fff"><use xlink:href="#bG"/></mask><path d="M5.107.679L.91.653" stroke="#949494" stroke-width=".3" mask="url(#bH)"/></g><g transform="matrix(0 1 -1 0 1.976 222)"><mask id="bJ" fill="#fff"><use xlink:href="#bI"/></mask><path d="M.27.628L3.694.65" stroke="#949494" stroke-width=".3" mask="url(#bJ)"/></g><g transform="matrix(0 1 -1 0 1.976 217)"><mask id="bL" fill="#fff"><use xlink:href="#bK"/></mask><path d="M.774.597L.406.594" stroke="#949494" stroke-width=".3" mask="url(#bL)"/></g><g transform="matrix(0 1 -1 0 1.976 214)"><mask id="bN" fill="#fff"><use xlink:href="#bM"/></mask><path d="M3.206.593L.5.575" stroke="#949494" stroke-width=".3" mask="url(#bN)"/></g><g transform="matrix(0 1 -1 0 1.976 217)"><mask id="bP" fill="#fff"><use xlink:href="#bO"/></mask><path d="M5.262.625L.774.597" stroke="#949494" stroke-width=".3" mask="url(#bP)"/></g><g transform="matrix(0 1 -1 0 1.976 225)"><mask id="bR" fill="#fff"><use xlink:href="#bQ"/></mask><path d="M5.107.675L.693.647" stroke="#949494" stroke-width=".3" mask="url(#bR)"/></g><g transform="matrix(0 1 -1 0 1.976 217)"><mask id="bT" fill="#fff"><use xlink:href="#bS"/></mask><path d="M.774.597l4.488.028" stroke="#949494" stroke-width=".3" mask="url(#bT)"/></g><g transform="matrix(0 1 -1 0 1.976 225)"><mask id="bV" fill="#fff"><use xlink:href="#bU"/></mask><path d="M.694.65L3.95.672" stroke="#949494" stroke-width=".3" mask="url(#bV)"/></g><g transform="matrix(0 1 -1 0 1.976 239)"><mask id="bX" fill="#fff"><use xlink:href="#bW"/></mask><path d="M.612.615l1.469.01" stroke="#949494" stroke-width=".3" mask="url(#bX)"/></g><g transform="matrix(0 1 -1 0 1.976 237)"><mask id="bZ" fill="#fff"><use xlink:href="#bY"/></mask><path d="M.609.634l2.394.018" stroke="#949494" stroke-width=".3" mask="url(#bZ)"/></g><g transform="matrix(0 1 -1 0 1.976 214)"><mask id="cb" fill="#fff"><use xlink:href="#ca"/></mask><path d="M.5.577l2.705.02" stroke="#949494" stroke-width=".3" mask="url(#cb)"/></g><g transform="matrix(0 1 -1 0 1.976 228)"><mask id="cd" fill="#fff"><use xlink:href="#cc"/></mask><path d="M.95.672l2.071.016" stroke="#949494" stroke-width=".3" mask="url(#cd)"/></g><g transform="matrix(0 1 -1 0 1.976 230)"><mask id="cf" fill="#fff"><use xlink:href="#ce"/></mask><path d="M.654.695l7.208.058" stroke="#949494" stroke-width=".3" mask="url(#cf)"/></g><g transform="matrix(0 1 -1 0 1.976 232)"><mask id="ch" fill="#fff"><use xlink:href="#cg"/></mask><path d="M1.495.707H1.36" stroke="#949494" stroke-width=".3" mask="url(#ch)"/></g><g transform="matrix(0 1 -1 0 1.976 238)"><mask id="cj" fill="#fff"><use xlink:href="#ci"/></mask><path d="M.732.77l.88.009" stroke="#949494" stroke-width=".3" mask="url(#cj)"/></g><g transform="rotate(90 -31.512 33.488)"><mask id="cl" fill="#fff"><use xlink:href="#ck"/></mask><path d="M.948.655l.034.001" stroke="#949494" stroke-width=".3" mask="url(#cl)"/></g><g transform="matrix(0 1 -1 0 1.976 225)"><mask id="cn" fill="#fff"><use xlink:href="#cm"/></mask><path d="M.91.651l4.196.04" stroke="#949494" stroke-width=".3" mask="url(#cn)"/></g><g transform="matrix(0 1 -1 0 1.976 233)"><mask id="cp" fill="#fff"><use xlink:href="#co"/></mask><path d="M1.056.713L.494.707" stroke="#949494" stroke-width=".3" mask="url(#cp)"/></g><g transform="matrix(0 1 -1 0 1.976 233)"><mask id="cr" fill="#fff"><use xlink:href="#cq"/></mask><path d="M.61.71l1.583.016" stroke="#949494" stroke-width=".3" mask="url(#cr)"/></g><g transform="matrix(0 1 -1 0 1.976 235)"><mask id="ct" fill="#fff"><use xlink:href="#cs"/></mask><path d="M.193.726L.97.735" stroke="#949494" stroke-width=".3" mask="url(#ct)"/></g><g transform="matrix(0 1 -1 0 1.976 241)"><mask id="cv" fill="#fff"><use xlink:href="#cu"/></mask><path d="M.992.81l2.23.025" stroke="#949494" stroke-width=".3" mask="url(#cv)"/></g><g transform="matrix(0 1 -1 0 1.976 235)"><mask id="cx" fill="#fff"><use xlink:href="#cw"/></mask><path d="M.97.735l.852.01" stroke="#949494" stroke-width=".3" mask="url(#cx)"/></g><g transform="matrix(0 1 -1 0 1.976 236)"><mask id="cz" fill="#fff"><use xlink:href="#cy"/></mask><path d="M.822.745l.825.01" stroke="#949494" stroke-width=".3" mask="url(#cz)"/></g><g transform="matrix(0 1 -1 0 1.976 238)"><mask id="cB" fill="#fff"><use xlink:href="#cA"/></mask><path d="M.732.77h-.09" stroke="#949494" stroke-width=".3" mask="url(#cB)"/></g><g transform="matrix(0 1 -1 0 1.976 237)"><mask id="cD" fill="#fff"><use xlink:href="#cC"/></mask><path d="M1.642.769L.862.758" stroke="#949494" stroke-width=".3" mask="url(#cD)"/></g><g transform="matrix(0 1 -1 0 1.976 237)"><mask id="cF" fill="#fff"><use xlink:href="#cE"/></mask><path d="M.647.755L1.81.771" stroke="#949494" stroke-width=".3" mask="url(#cF)"/></g><g transform="matrix(0 1 -1 0 1.976 238)"><mask id="cH" fill="#fff"><use xlink:href="#cG"/></mask><path d="M3.31.806L.733.77" stroke="#949494" stroke-width=".3" mask="url(#cH)"/></g><g transform="matrix(0 1 -1 0 1.976 238)"><mask id="cJ" fill="#fff"><use xlink:href="#cI"/></mask><path d="M2.155.785L.732.765" stroke="#949494" stroke-width=".3" mask="url(#cJ)"/></g><g transform="matrix(0 1 -1 0 1.976 238)"><mask id="cL" fill="#fff"><use xlink:href="#cK"/></mask><path d="M.81.77l.802.013" stroke="#949494" stroke-width=".3" mask="url(#cL)"/></g><g transform="rotate(90 -20.012 21.988)"><mask id="cN" fill="#fff"><use xlink:href="#cM"/></mask><path d="M.42.777L3.635.84" stroke="#949494" stroke-width=".3" mask="url(#cN)"/></g><g transform="matrix(0 1 -1 0 1.976 237)"><mask id="cP" fill="#fff"><use xlink:href="#cO"/></mask><path d="M1.642.77L.862.753" stroke="#949494" stroke-width=".3" mask="url(#cP)"/></g><g transform="rotate(90 -31.512 33.488)"><mask id="cR" fill="#fff"><use xlink:href="#cQ"/></mask><path d="M.946.655l.14.004" stroke="#949494" stroke-width=".3" mask="url(#cR)"/></g><g transform="matrix(0 1 -1 0 1.976 237)"><mask id="cT" fill="#fff"><use xlink:href="#cS"/></mask><path d="M1.318.76l.324.01" stroke="#949494" stroke-width=".3" mask="url(#cT)"/></g><g transform="rotate(90 -31.012 32.988)"><mask id="cV" fill="#fff"><use xlink:href="#cU"/></mask><path d="M1.207.634l.054.002" stroke="#949494" stroke-width=".3" mask="url(#cV)"/></g><g transform="matrix(0 1 -1 0 1.976 240)"><mask id="cX" fill="#fff"><use xlink:href="#cW"/></mask><path d="M.883.8L.72.793" stroke="#949494" stroke-width=".3" mask="url(#cX)"/></g><g transform="rotate(90 -18.512 20.488)"><mask id="cZ" fill="#fff"><use xlink:href="#cY"/></mask><path d="M.325.622L3.42.777" stroke="#949494" stroke-width=".3" mask="url(#cZ)"/></g><path d="M1.627 36.338l-.273 2.986m.682-5.867l-.409 2.881m.63-4.098l.012-.06m.327-1.5l-.56 2.777m.802-3.677l-.242.9M588.35 7.24l-2.686-1.09m5.225 2.396L588.35 7.24m4.914 2.816l-2.376-1.51m4.581 3.205l-2.204-1.695M604.68 23.97l.024.056M2.614 262.55l.243.895m-.227-.822l.014.058m.015-.139l.654 2.763" stroke="#949494" stroke-width=".3"/><g transform="rotate(90 -35.512 37.488)"><mask id="db" fill="#fff"><use xlink:href="#da"/></mask><path d="M1.176.609l.357-.013" stroke="#949494" stroke-width=".3" mask="url(#db)"/></g><path d="M6.632 53.542v189.2m0-192.332v3.132m3.285 186.301V53.31m20.085-3.486V243.33M51.929 3.206v-.07m0 286.811v.07M28.639 4.727l-.093.02m5.988-.937l-.101.013m4.818 7.044l.125-.014M37.729 3.53l-.047.004m3.496-.188l-.093.004m3.699-.103l-.227.004m4.019-.041l-.454.003m308.391-.006H51.929m353.086 0h-10.16m86.841.001H443.36m38.336 0H443.36m103.264-.001l-64.619.001m68.662-.002l-3.732.001m10.594-.001h-4.24m-2.625 0h-3.729m10.594 0h-4.236m-148.206.014h-10.303m86.944.002H443.29m104.242-.002l-65.492.002m71.352-.002h-.232m-2.364 0H546.9m10.629 0l-4.136.001m-71.353.006h-.064m64.678-.001h-.064m-5.53.647l-53.49.003m69.959 3.249h-505.6m507.7 0h-2.1m-505.6 0h-2.01m510.006 3.285H52.818m505.95 6.563H62.854M541.06 3.783l-53.917.002m72.135-.579h-1.75m2.986.011l-2.985-.003m3.951-.001h-.202m2.692.031l-3.457-.027m2.367.007l-.33-.003m2.703.037l-.165-.003m.145.003l.02.001m2.081.063l-3.363-.077m6.639.227l-3.276-.15m3.769.187l-.187-.012m.188-.003l-.187-.012m.186.027l-.038-.003m0 0l-.455-.034m3.19.247l-2.697-.21m5.804.576l-3.106-.366m6.125.876l-3.02-.51m5.944 1.189l-2.924-.68m5.738 1.556l-2.814-.876M482.037 3.22l-.032-.012m-.279.012l-.031-.012m105.25 164.845l-.21-.308m.415.619l-.205-.311m.407.627l-.202-.315m.4.635l-.198-.32m.389.643l-.192-.323m.38.65l-.187-.326m.37.656l-.183-.33m.361.665l-.179-.334m.351.669l-.173-.335m.341.675l-.167-.34m.329.682l-.162-.342m.319.687l-.157-.345m.308.691l-.151-.346m.298.693l-.146-.348m.288.698l-.142-.35m.278.7l-.136-.35m.267.702l-.13-.352m.256.704l-.125-.352m.245.704l-.12-.353m.235.706l-.115-.353m.225.705l-.11-.353m.215.705l-.105-.352m.205.703l-.1-.352" stroke="#949494" stroke-width=".3"/><g transform="rotate(90 -25.512 27.488)"><mask id="dd" fill="#fff"><use xlink:href="#dc"/></mask><path d="M.542.649v.129" stroke="#949494" stroke-width=".3" mask="url(#dd)"/></g><path d="M580.898 161.711l-.997-.82m1.504 1.241l-.506-.42m-.998-.822l-.965-.805m2.978 2.478l-.51-.431m-2.468-2.047l-.466-.403m3.954 3.323l-.51-.442m-3.444-2.881l-.229-.203m4.437 3.753l-.255-.227m-4.182-3.526l-.225-.204m4.917 4.186l-.254-.229m.507.464l-.253-.234m-4.917-4.187l-.222-.205m0 0l-.219-.206m5.863 5.07l-.252-.238m.504.48l-.251-.242m-5.864-5.071l-.215-.208m6.579 5.767l-.25-.246m-6.329-5.521l-.21-.21m7.037 6.229l-.248-.252m-6.789-5.976l-.208-.213m7.491 6.696l-.246-.255m-7.245-6.441l-.203-.214m7.937 7.171l-.243-.261m-7.693-6.91l-.2-.217m8.377 7.652l-.24-.265m-8.137-7.387l-.196-.219m8.812 8.141l-.238-.27m-8.574-7.871l-.191-.222m9.238 8.639l-.236-.276m-9.002-8.362l-.187-.224m9.658 9.141l-.233-.28m-9.425-8.861l-.184-.227m10.072 9.652l-.23-.284m.456.571l-.227-.287m-10.07-9.652l-.178-.229m10.697 10.463l-.222-.294m-10.476-10.169l-.175-.232m11.091 10.993l-.218-.298M575.43 156.45l-.17-.236m11.475 11.531l-.215-.303m-11.26-11.228l-.168-.237m.001 0l-.162-.24M443.36 3.208l-.015.008m-48.49-.009l-.015.008m151.784-.008l-.029.011m6.695-.012l-.03.008m-196.996-.642l-.002.004m214.324 287.107l3.201-.247m-6.485.397l3.285-.15m-6.656.227l3.371-.077m-2.21.065l.16-.003m-2.701.037l.28-.002m-2.363.006l3.463-.026m-2.653.03h.203m-3.952.007l2.939-.012M49.89 286.033l2.039-.004m10.925-9.849h495.914m-1.239 9.849h2.11m-507.71 0h505.6m-151.344 3.903h151.343m-505.599.001l308.521-.001m-308.521.016l77.01-.003m428.59.002h1.308m-152.58-.001h151.272m-505.6.001h308.449m-54.239 0h54.237m-231.437-.002l177.2.003m-257.229-.012l3.02.003m-3.808.001l.454.003m-3.16-.035l3.493.027m-4.352-.033l.227.004m-2.772-.076l3.404.078m-4.33-.104l.091.003m-2.483-.13l3.318.152m-4.332-.209l.05.002m-2.272-.196l3.235.251M576.344 135.57l.195-.22m8.137-7.387l.241-.265m-8.377 7.652l.198-.216m7.695-6.91l.243-.261m-7.937 7.171l.204-.214m7.244-6.44l.246-.256m-7.491 6.696l.207-.212m6.79-5.978l.248-.25m-7.037 6.228l.21-.21m6.33-5.521l.249-.246m-6.579 5.766l.215-.208m5.863-5.07l.251-.242m-6.114 5.313l.219-.207m5.392-4.626l.252-.238m-5.644 4.864l.222-.205m4.917-4.188l.253-.232m-.508.463l.254-.23m-4.916 4.187l.225-.204m4.183-3.526l.255-.227m-4.438 3.753l.229-.202m3.444-2.882l.51-.442m-3.954 3.324l.466-.404m2.469-2.046l.509-.432m-2.978 2.478l.965-.806m.997-.82l.506-.42m-1.503 1.24l.997-.82m-3.995 157.627l3.028-.511m-6.144.878l3.116-.367m-542.47.262l.102.011m-2.228-.286l3.15.37m-6.214-.886l3.063.516m-3.76-.649l.093.02m-2.361-.575l2.966.688m-5.821-1.578l2.854.89m563.112-167.419l.136-.351m-.278.7l.142-.35m-.289.698l.147-.348m-.298.695l.152-.347m-.309.69l.157-.343m-.319.685l.162-.342m-.33.682l.167-.34m-.339.678l.172-.338m-.35.67l.178-.333m-.361.664l.183-.33m-.371.657l.187-.327m-.378.651l.191-.323m-.389.642l.197-.32m-.399.635l.203-.315m-.408.627l.206-.312m-12.22 12.629l.162-.24m11.642-11.77l.21-.307m-11.852 12.076l.167-.237m11.26-11.229l.215-.303m-11.475 11.532l.17-.235m10.872-10.696l.218-.298m-11.09 10.993l.175-.23m10.475-10.171l.221-.294m-10.697 10.464l.178-.23m10.072-9.651l.226-.289m-10.297 9.94l.184-.228m9.657-9.139l.23-.284m-.463.563l.233-.278m-9.658 9.139l.187-.224m9.003-8.362l.236-.274m-9.239 8.636l.191-.222m8.573-7.871l.238-.27m5.766 157.16l2.378-1.516m-4.92 2.828l2.542-1.312m-5.235 2.407l2.692-1.096m-5.514 1.976l2.822-.88m-5.755 1.563l2.933-.683m-562.161-2.017l2.72 1.104m-5.289-2.424l2.57 1.32m-4.972-2.841l2.402 1.52m572.294-108.652l-.095-.351m.185.701l-.09-.35m.176.697l-.086-.348m.166.695l-.08-.347m.157.691l-.077-.344m.149.686l-.072-.343m.139.684l-.067-.34m.131.678l-.063-.338m.123.674l-.06-.336m.116.669l-.057-.333m.107.663l-.05-.33m.099.658l-.048-.328m.092.653l-.044-.324m.086.646l-.042-.322m.08.64l-.038-.318m.105.946l-.067-.628m.123 1.244l-.056-.616m.102 1.22l-.046-.604m.084 1.197l-.038-.593m.067 1.174l-.03-.581m.053 1.151l-.023-.57m.041 1.13l-.018-.56m.041 1.659l-.023-1.099m7.929-138.368l-.003-.155m-7.892 140.695l-.011-1.073M557.529 3.206v-.07M591.62 243.33l-.007-56.42m5.994-19.077V125.32m1.933 115.876V171.18m0-49.208V51.957m1.932 115.876V125.32m1.353-69.846v-5.062m0 192.33v-5.063m0 0V55.474m-11.211 50.768l.006-56.419m-.017 57.494l.01-1.074m7.891 140.782l.004-.241m-7.928-138.37l.023-1.098m-.041 1.659l.018-.561m-.041 1.131l.023-.57m-.052 1.151l.03-.58m-.068 1.172l.037-.592m-.083 1.197l.046-.604m-.102 1.22l.056-.616m-.123 1.244l.067-.628m-.105.947l.038-.319m-.08.64l.042-.32m-.086.645l.044-.325m-.093.653l.049-.327m-.099.657l.05-.33m-.106.663l.056-.333m-.116.669l.06-.336m-.124.675l.064-.34m-.131.679l.068-.34m-.14.683l.072-.343m-.149.688l.077-.345m-.157.69l.08-.345m-.166.695l.086-.35m-.176.698l.09-.35m-.186.7l.095-.35m-.195.702l.1-.352m-.205.704l.105-.353m-.215.705l.11-.353m-.225.706l.115-.353m-.235.706l.12-.354m-.246.706l.125-.353m-.256.703l.131-.35m5.847 161.641l2.025-1.867m-4.228 3.566l2.204-1.699m-581.997-.059l2.225 1.703m-4.269-3.573l2.044 1.87m-3.898-3.892l1.854 2.021m-3.518-4.187l1.664 2.166M608.845 55.474v182.205M6.478 272.954l1.467 2.302m-2.731-4.733l1.264 2.432m-2.318-4.986l1.054 2.554m-1.901-5.218l.848 2.664m47.768 21.978c-1 0-2 0-3-.003m3 .004c-1.118 0-2.235-.001-3.353-.005m4.242-7.2c-.771 0-1.543 0-2.314-.003m510.29 7.203c-1.088.003-2.177.005-3.265.004M541.81 3.783h-.75m17.776 286.164c.814 0 1.628-.002 2.442-.007" stroke="#949494" stroke-width=".3"/><g transform="rotate(90 -88.512 90.488)"><mask id="df" fill="#fff"><use xlink:href="#de"/></mask><path d="M34.451.524A14277.82 14277.82 0 0 0 .443.49" stroke="#949494" stroke-width=".3" mask="url(#df)"/></g><g transform="rotate(90 -34.512 36.488)"><mask id="dh" fill="#fff"><use xlink:href="#dg"/></mask><path d="M44.657.491C29.975.481 15.293.501.608.55" stroke="#949494" stroke-width=".3" mask="url(#dh)"/></g><g transform="rotate(90 -35.012 36.988)"><mask id="dj" fill="#fff"><use xlink:href="#di"/></mask><path d="M23.009.498C15.613.503 8.218.52.822.545" stroke="#949494" stroke-width=".3" mask="url(#dj)"/></g><g transform="rotate(90 -37.512 39.488)"><mask id="dl" fill="#fff"><use xlink:href="#dk"/></mask><path d="M19.327.493C12.984.515 6.642.547.3.588" stroke="#949494" stroke-width=".3" mask="url(#dl)"/></g><g transform="rotate(90 -37.512 39.488)"><mask id="dn" fill="#fff"><use xlink:href="#dm"/></mask><path d="M15.566.502C10.599.523 5.632.55.665.582" stroke="#949494" stroke-width=".3" mask="url(#dn)"/></g><g transform="rotate(90 -25.512 27.488)"><mask id="dp" fill="#fff"><use xlink:href="#do"/></mask><path d="M16.43.557C11.135.58 5.839.61.543.649" stroke="#949494" stroke-width=".3" mask="url(#dp)"/></g><g transform="rotate(90 -25.512 27.488)"><mask id="dr" fill="#fff"><use xlink:href="#dq"/></mask><path d="M16.07.52C10.894.546 5.718.578.543.617" stroke="#949494" stroke-width=".3" mask="url(#dr)"/></g><g transform="matrix(0 1 -1 0 1.976 227)"><mask id="dt" fill="#fff"><use xlink:href="#ds"/></mask><path d="M10.609.634C7.283.61 3.957.59.629.574" stroke="#949494" stroke-width=".3" mask="url(#dt)"/></g><g transform="rotate(90 -25.512 27.488)"><mask id="dv" fill="#fff"><use xlink:href="#du"/></mask><path d="M12.29.576C8.374.596 4.458.62.542.648" stroke="#949494" stroke-width=".3" mask="url(#dv)"/></g><g transform="rotate(90 -28.512 30.488)"><mask id="dx" fill="#fff"><use xlink:href="#dw"/></mask><path d="M4.194.679C2.832.689 1.469.699.107.714" stroke="#949494" stroke-width=".3" mask="url(#dx)"/></g><g transform="rotate(90 -27.512 29.488)"><mask id="dz" fill="#fff"><use xlink:href="#dy"/></mask><path d="M6.365.678C4.52.692 2.672.707.825.728" stroke="#949494" stroke-width=".3" mask="url(#dz)"/></g><g transform="rotate(90 -25.512 27.488)"><mask id="dB" fill="#fff"><use xlink:href="#dA"/></mask><path d="M9.858.682C6.753.706 3.647.74.542.782" stroke="#949494" stroke-width=".3" mask="url(#dB)"/></g><g transform="rotate(90 -25.512 27.488)"><mask id="dD" fill="#fff"><use xlink:href="#dC"/></mask><path d="M10.194.674C6.976.697 3.759.732.543.778" stroke="#949494" stroke-width=".3" mask="url(#dD)"/></g><g transform="matrix(0 1 -1 0 1.976 230)"><mask id="dF" fill="#fff"><use xlink:href="#dE"/></mask><path d="M3.36.701C2.46.692 1.558.685.657.68" stroke="#949494" stroke-width=".3" mask="url(#dF)"/></g><g transform="matrix(0 1 -1 0 1.976 234)"><mask id="dH" fill="#fff"><use xlink:href="#dG"/></mask><path d="M3.862.758A1207.39 1207.39 0 0 0 .056.713" stroke="#949494" stroke-width=".3" mask="url(#dH)"/></g><g transform="matrix(0 1 -1 0 1.976 230)"><mask id="dJ" fill="#fff"><use xlink:href="#dI"/></mask><path d="M3.36.705L.657.683" stroke="#949494" stroke-width=".3" mask="url(#dJ)"/></g><g transform="rotate(90 -25.512 27.488)"><mask id="dL" fill="#fff"><use xlink:href="#dK"/></mask><path d="M3.19.746L.544.782" stroke="#949494" stroke-width=".3" mask="url(#dL)"/></g><g transform="matrix(0 1 -1 0 1.976 234)"><mask id="dN" fill="#fff"><use xlink:href="#dM"/></mask><path d="M3.862.753A1207.39 1207.39 0 0 0 .056.708" stroke="#949494" stroke-width=".3" mask="url(#dN)"/></g><path d="M44.784 289.906c1.112.02 2.226.03 3.338.035M31.445 4.215a53.58 53.58 0 0 0-2.806.512M2.569 30.79a49.88 49.88 0 0 0-.3 1.391m.346-1.587c-.017.065-.03.13-.047.195M28.546 4.746c-.85.181-1.694.386-2.532.616M2.9 29.455a41.19 41.19 0 0 0-.285 1.14M26.014 5.363l-.112.03m0 .001c-.8.222-1.591.47-2.373.746m0 0c-.763.269-1.515.564-2.257.886m0 0l-.111.049m.406 10.394a29.208 29.208 0 0 0-4.684 4.707m.364-.452c-.122.149-.244.3-.363.452m5.134-5.059c-.153.117-.306.236-.457.357" stroke="#949494" stroke-width=".3"/><g transform="rotate(90 -21.512 23.488)"><mask id="dP" fill="#fff"><use xlink:href="#dO"/></mask><path d="M.977.848C1.373.85 1.77.85 2.166.85" stroke="#949494" stroke-width=".3" mask="url(#dP)"/></g><g transform="rotate(90 -19.012 20.988)"><mask id="dR" fill="#fff"><use xlink:href="#dQ"/></mask><path d="M.48.693c.664.036 1.329.064 1.994.086" stroke="#949494" stroke-width=".3" mask="url(#dR)"/></g><g transform="rotate(90 -19.012 20.988)"><mask id="dT" fill="#fff"><use xlink:href="#dS"/></mask><path d="M.479.698c.665.035 1.329.064 1.994.086" stroke="#949494" stroke-width=".3" mask="url(#dT)"/></g><path d="M10.363 39.853a65.862 65.862 0 0 0-.144 1.604m30.657-30.739c-.463.037-.927.078-1.389.125m-5.054-7.02c-1 .108-1.995.239-2.988.393m8.043 6.627l-.236.024" stroke="#949494" stroke-width=".3"/><g transform="rotate(90 -31.512 33.488)"><mask id="dV" fill="#fff"><use xlink:href="#dU"/></mask><path d="M1.49.571L1.087.66" stroke="#949494" stroke-width=".3" mask="url(#dV)"/></g><g transform="rotate(90 -35.512 37.488)"><mask id="dX" fill="#fff"><use xlink:href="#dW"/></mask><path d="M1.176.609L1.03.578" stroke="#949494" stroke-width=".3" mask="url(#dX)"/></g><g transform="rotate(90 -35.512 37.488)"><mask id="dZ" fill="#fff"><use xlink:href="#dY"/></mask><path d="M1.03.577A9.88 9.88 0 0 0 .863.543" stroke="#949494" stroke-width=".3" mask="url(#dZ)"/></g><g transform="rotate(90 -33.012 34.988)"><mask id="eb" fill="#fff"><use xlink:href="#ea"/></mask><path d="M1.54.553c-.037 0-.073.003-.109.004" stroke="#949494" stroke-width=".3" mask="url(#eb)"/></g><g transform="rotate(90 -34.012 35.988)"><mask id="ed" fill="#fff"><use xlink:href="#ec"/></mask><path d="M.905.55A22.714 22.714 0 0 0 .536.543" stroke="#949494" stroke-width=".3" mask="url(#ed)"/></g><g transform="rotate(90 -33.512 35.488)"><mask id="ef" fill="#fff"><use xlink:href="#ee"/></mask><path d="M1.167.54C.958.541.748.545.54.553" stroke="#949494" stroke-width=".3" mask="url(#ef)"/></g><g transform="rotate(90 -33.512 35.488)"><mask id="eh" fill="#fff"><use xlink:href="#eg"/></mask><path d="M1.536.542C1.413.54 1.29.54 1.167.54" stroke="#949494" stroke-width=".3" mask="url(#eh)"/></g><g transform="rotate(90 -31.512 33.488)"><mask id="ej" fill="#fff"><use xlink:href="#ei"/></mask><path d="M1.183.637a.787.787 0 0 0 .047-.01" stroke="#949494" stroke-width=".3" mask="url(#ej)"/></g><g transform="rotate(90 -31.512 33.488)"><mask id="el" fill="#fff"><use xlink:href="#ek"/></mask><path d="M.982.656c.067 0 .135-.007.2-.02" stroke="#949494" stroke-width=".3" mask="url(#el)"/></g><g transform="rotate(90 -36.012 37.988)"><mask id="en" fill="#fff"><use xlink:href="#em"/></mask><path d="M.533.596L.874.582" stroke="#949494" stroke-width=".3" mask="url(#en)"/></g><g transform="rotate(90 -36.012 37.988)"><mask id="ep" fill="#fff"><use xlink:href="#eo"/></mask><path d="M.874.582l.33-.014" stroke="#949494" stroke-width=".3" mask="url(#ep)"/></g><g transform="rotate(90 -36.512 38.488)"><mask id="er" fill="#fff"><use xlink:href="#eq"/></mask><path d="M.204.569l.69-.031" stroke="#949494" stroke-width=".3" mask="url(#er)"/></g><g transform="rotate(90 -31.512 33.488)"><mask id="et" fill="#fff"><use xlink:href="#es"/></mask><path d="M.524.644c.14.005.28.009.422.012" stroke="#949494" stroke-width=".3" mask="url(#et)"/></g><g transform="rotate(90 -31.012 32.988)"><mask id="ev" fill="#fff"><use xlink:href="#eu"/></mask><path d="M1.261.636l.263.008" stroke="#949494" stroke-width=".3" mask="url(#ev)"/></g><path d="M561.48 289.94c.357-.002.714-.004 1.07-.008M405.015 3.207l.07.014m38.117.018c.053-.01.105-.021.158-.03m-38.344-.002l-.026.008m38.397.001l-.029-.009m-48.475.009l-.028-.009m86.871.013c.028.013.057.024.085.036m68.853-.05l.13.015m2.378-.002l.121-.013m-.239.026l.118-.013m-.376.034l.258-.02m-71.243.023a.954.954 0 0 0 .074.03m71.449-.072l-.041-.007m-2.629 0l-.042.008m-4.588.303c.08-.021.158-.043.236-.067m.387-.132l.088-.034m-.951.192c.071-.017.142-.035.212-.056m.264.029a5.32 5.32 0 0 0 .387-.132m-64.179.062c.072.022.145.044.218.063m63.31-.022c.063-.018.127-.037.19-.057m0 .001l.167-.057m-64.667-.101l-.013.01m65.273.003l-.02-.013m-64.93.001c-.01.005-.018.011-.027.017m64.678.002l-.032-.02m.077.05a.586.586 0 0 0-.045-.03m4.139-.007l-.039-.003m2.503-.003a.824.824 0 0 0-.1.007m-2.402-.004a.622.622 0 0 0-.061-.002m40.214 15.776a26.162 26.162 0 0 0-.404-.412m-.004-.004a24.747 24.747 0 0 0-.327-.32m.332.325a25.87 25.87 0 0 0-3.343-2.822m3.012 2.496a25.942 25.942 0 0 0-2.911-2.424m-.001 0c-.03-.02-.06-.043-.09-.064m-.011-.008l-.137-.096m.001 0c-.031-.02-.062-.043-.093-.064m.24.168a25.75 25.75 0 0 0-1.737-1.125m1.496.957a24.656 24.656 0 0 0-1.622-1.03m.126.072l-.125-.072M562.831 289.93c.753-.007 1.507-.018 2.26-.032M580.339 4.685a45.14 45.14 0 0 0-.53-.106m.533.091a35.53 35.53 0 0 0-.53-.107m-16.15 285.357c.472-.006.944-.013 1.416-.022M574.497 3.78c-.184-.02-.367-.037-.55-.056m.549.07a114.4 114.4 0 0 0-.551-.056m-2.149 7.02c-.1-.01-.202-.019-.303-.027m1.771.179a55.264 55.264 0 0 0-1.468-.152m2.291.255a51.746 51.746 0 0 0-2.291-.255M9.92 50.975c-.002.778-.003 1.557-.003 2.335m34.64-50.059c-1.126.02-2.253.052-3.38.095m0 286.461c1.127.044 2.253.075 3.38.095m-6.827-.28c1.117.078 2.236.138 3.356.182M41.085 3.35c-1.119.043-2.238.104-3.356.18m-3.195 285.812a85.2 85.2 0 0 0 3.147.277m.001-286.086c-1.051.073-2.1.166-3.147.277m7.114 6.851a65.16 65.16 0 0 0-.772.057M39.492 282.31c.46.047.92.089 1.383.125m526.048 7.418c1.123-.033 2.245-.081 3.366-.145m.628-286.225a122.064 122.064 0 0 0-3.966-.182m.099 7.182l-.408-.012m7.304-6.747a87.249 87.249 0 0 0-2.842-.23m2.841.245a87.254 87.254 0 0 0-2.842-.23m3.828 133.908a16.62 16.62 0 0 0 0 18.32m10.772-3.131a6.03 6.03 0 1 0-.001-12.059 6.03 6.03 0 0 0 .001 12.059m12.87-28.959a1.93 1.93 0 0 0-.966 1.673m.966-1.673c.598-.346.967-.984.966-1.675" stroke="#949494" stroke-width=".3"/><path d="M601.472 125.32c0-.69-.369-1.328-.966-1.673m0 0a1.93 1.93 0 0 0-1.933 0m-.966 44.186c0 .69.368 1.328.966 1.674m.967 1.673c0-.69-.369-1.328-.967-1.673" stroke="#949494" stroke-width=".3"/><path d="M600.506 169.507a1.934 1.934 0 0 1-1.933 0m2.899-1.674c0 .691-.368 1.328-.966 1.674M48.122 3.213c-1.113.004-2.227.016-3.339.034" stroke="#949494" stroke-width=".3"/><g transform="matrix(0 1 -1 0 1.976 245)"><mask id="ex" fill="#fff"><use xlink:href="#ew"/></mask><path d="M.104.662C.682.66 1.26.655 1.837.648" stroke="#949494" stroke-width=".3" mask="url(#ex)"/></g><g transform="matrix(0 1 -1 0 1.976 247)"><mask id="ez" fill="#fff"><use xlink:href="#ey"/></mask><path d="M.537.639a83.97 83.97 0 0 0 1.006-.02" stroke="#949494" stroke-width=".3" mask="url(#ez)"/></g><g transform="matrix(0 1 -1 0 1.976 248)"><mask id="eB" fill="#fff"><use xlink:href="#eA"/></mask><path d="M.543.62L1.25.604" stroke="#949494" stroke-width=".3" mask="url(#eB)"/></g><g transform="matrix(0 1 -1 0 1.976 250)"><mask id="eD" fill="#fff"><use xlink:href="#eC"/></mask><path d="M.753.781A80.36 80.36 0 0 0 4.49.577" stroke="#949494" stroke-width=".3" mask="url(#eD)"/></g><path d="M10.171 251.055c.015.213.03.426.047.639m0 0c.042.538.091 1.075.146 1.61m22.393 35.823l.254.033m-1.579-.224c.997.154 1.997.286 3 .396m-1.672-.22c.084.012.17.022.254.033m-22.65-35.84l.015.145m18.26 34.976a55.03 55.03 0 0 0 2.793.51M2.577 262.4c.018.075.034.149.053.224m23.384 25.167a45.08 45.08 0 0 0 2.532.615M2.644 262.68c.058.243.118.485.18.727m23.078 24.353l.112.031m-2.485-.778c.782.275 1.574.524 2.373.747m-4.63-1.633c.74.322 1.494.617 2.257.886m-2.369-.935c.037.017.075.032.111.05m-2.151-1.03c.668.35 1.35.678 2.04.98m-4.286-15.112a29.208 29.208 0 0 0 4.682 4.71m-.252-.206c.082.069.165.136.248.202m-4.881-4.967l.203.261" stroke="#949494" stroke-width=".3"/><g transform="matrix(0 1 -1 0 1.976 241)"><mask id="eF" fill="#fff"><use xlink:href="#eE"/></mask><path d="M.532.66c.623.003 1.244.005 1.866.005" stroke="#949494" stroke-width=".3" mask="url(#eF)"/></g><g transform="matrix(0 1 -1 0 1.976 242)"><mask id="eH" fill="#fff"><use xlink:href="#eG"/></mask><path d="M.033.663c.57.003 1.138.004 1.707.004" stroke="#949494" stroke-width=".3" mask="url(#eH)"/></g><path d="M360.352 289.939l.024.007m45.88 0a.198.198 0 0 0 .026-.008M9.917 239.843c0 .87.001 1.741.004 2.611M565.088 3.255c-.736-.014-1.472-.024-2.208-.03m8.918 279.17c.49-.044.98-.095 1.47-.152m0-.001l.165-.02m17.075-7.648c.136-.137.27-.273.403-.411m-.704.705c.1-.096.198-.192.295-.29m-3.337 2.817a25.95 25.95 0 0 0 3.343-2.821m-3.336 2.815c.104-.073.206-.146.308-.222m-.554.393c.083-.056.165-.113.246-.171m-.562.387c.106-.07.211-.143.316-.215m-1.612 1.024c.564-.329 1.116-.68 1.653-1.053m-2.01 1.258a24.292 24.292 0 0 0 1.653-1.015m-180.353 12.171l-.07-.014m-45.627-.021a5.89 5.89 0 0 0-.182.035m.393-.072l-.21.037M562.551 3.22l-1.07-.007m-.203-.001c-.667-.003-1.333-.005-2-.006m-507.349 0c-1.266 0-2.53.001-3.796.006m4.685 7.198c-.865 0-1.731 0-2.597.003m1.708-7.207l-3 .003m3-.003c-1.118 0-2.235.001-3.353.004m512.218 0a888.355 888.355 0 0 0-3.265-.004m4.527 7.206a504.89 504.89 0 0 0-2.132-.002" stroke="#949494" stroke-width=".3"/><g transform="rotate(90 -81.512 83.488)"><mask id="eJ" fill="#fff"><use xlink:href="#eI"/></mask><path stroke="#949494" stroke-width=".3" mask="url(#eJ)" d="M.06.487h.003l7.455.001h7.455l7.455.002 7.455.004 7.455.008 3.728.006 7.455.015 7.454.025 3.727.015 7.455.038 7.455.047"/></g><path stroke="#949494" stroke-width=".3" d="M1.309 243.74l.003 1.495.019 2.059.038 1.862.054 1.723.007.18.07 1.56.088 1.457.104 1.37.118 1.305.135 1.246.024.203.15 1.163.165 1.106.177 1.06.13.695.199.971.213.93.226.89.014.052.244.868.26.848.278.825.294.808.073.19.317.79.336.775.355.76.37.747m0-.001l.417.78.44.772.466.761.489.751.51.739.533.724.2.261.56.703.579.687.598.667.615.649.636.634.655.615.673.599.457.387.446.365.715.554.729.536.743.512.757.492.769.468.785.448.799.427.813.406.516.243.832.368.855.349.876.332.898.312.447.146.93.283.964.267 1 .251 1.04.235 1.084.218 1.13.204 1.188.186.843.119m.254.033l.564.071.577.068.588.064.068.007.599.061.601.055.602.051.6.048.602.043.601.04.602.036m0 0l1.07.056 1.12.048 1.179.042 1.25.034.544.011 1.29.023 1.293.015 1.292.007 1.292.005 1.292.001h1.292"/><path stroke="#949494" stroke-width=".3" d="M2.993 264.053l-.146-.546-.14-.554-.135-.561-.128-.568-.026-.123-.12-.577-.115-.588-.109-.597-.102-.61-.098-.621-.092-.634-.085-.646-.08-.66-.073-.675-.068-.69-.06-.707-.018-.206"/><g transform="matrix(0 1 -1 0 1.976 241)"><mask id="eL" fill="#fff"><use xlink:href="#eK"/></mask><path stroke="#949494" stroke-width=".3" mask="url(#eL)" d="M9.753.781l-.869.025-.919.02-.569.01-.475.005-.944.005-.945.002-.944-.003L3.144.84 2.2.83 1.255.82.311.804"/></g><g transform="rotate(90 -34.512 36.488)"><mask id="eN" fill="#fff"><use xlink:href="#eM"/></mask><path stroke="#949494" stroke-width=".3" mask="url(#eN)" d="M.612.549L8.108.525l7.496-.016L23.1.499l7.496-.006L38.094.49 45.59.488l7.497-.001h22.489"/></g><path stroke="#949494" stroke-width=".3" d="M51.929 3.206h-.064l-4.345.01-3.278.04-2.802.08-.637.024-2.401.125-2.198.164-1.506.145-1.909.227-1.791.265-.537.091-1.625.308-1.523.34-1.44.376-1.059.314-1.345.447-1.291.487-1.24.526-1.116.526-1.191.621-1.16.668-1.126.714-1.096.76-1.064.806-.96.792-.995.891-.907.881-.916.967-.873 1.002-.827 1.034-.763 1.043-.736 1.097-.686 1.127-.636 1.151-.587 1.177-.543 1.213-.497 1.25-.418 1.187-.405 1.31-.369 1.38-.335 1.464-.186.927-.28 1.626-.245 1.74-.205 1.825-.181 2.08-.141 2.251-.043.9-.087 2.61-.044 2.632-.01 3.448.008 1.796"/><g transform="rotate(90 -20.012 21.988)"><mask id="eP" fill="#fff"><use xlink:href="#eO"/></mask><path stroke="#949494" stroke-width=".3" mask="url(#eP)" d="M9.842.806l-.471.006-.937.012-.937.01-.536.005-.936.006-.938.003-.936-.001L3.213.84 2.277.828l-.924-.02-.88-.023"/></g><path stroke="#949494" stroke-width=".3" d="M1.278 40.479l.03-.518.055-.821.06-.794.07-.77.076-.747.082-.73.09-.71.096-.692.094-.622.11-.67.118-.657.125-.646.132-.636.138-.624.147-.613.152-.604.159-.592M487.57 3.876h-1.109l-.418-.005-.367-.006-.334-.01-.311-.01-.235-.013-.257-.016-.24-.018-.224-.02-.212-.024-.203-.025-.194-.029-.187-.03-.18-.034-.174-.036-.17-.039m.001-.001l-.085-.02-.09-.023-.087-.024-.003-.001-.088-.026-.087-.026-.087-.028-.087-.03-.086-.031-.086-.031-.085-.033m65.049-.08l-.004.001-.019.008-.019.01-.015.004-.019.008-.019.008-.019.008-.018.008-.019.007-.019.008-.019.007m-.711.234l-.166.042-.17.039-.177.036-.182.034-.19.032-.198.028-.208.025-.218.024-.23.02-.246.019-.267.015-.07.004-.304.013-.327.01-.356.009-.4.004-.475.002h-.29l-.5-.001m11.736-.62l-.09.006-.139.01-.138.005-.137.004-.137.003-.138.001h-.138l-.139-.002-.14-.004-.14-.005-.14-.008-.142-.009-.142-.01-.142-.013-.1-.01m6.735 286.726h1.879l.939-.002.94-.005.94-.005.939-.009.94-.01.939-.017.939-.02.94-.026m3.366-.145l.146-.008 1.09-.07 1.035-.077.992-.086.952-.095.92-.102.888-.112.863-.12.84-.129.581-.097.79-.14.765-.15.742-.157.72-.164.7-.172.682-.179.664-.188.647-.195.63-.203.616-.21m10.482-274.828l-.334-.291-.507-.426-.516-.415-.524-.404-.53-.392-.54-.381-.546-.367-.553-.356-.56-.346-.57-.333-.576-.321-.584-.31-.59-.298-.404-.194-.6-.276-.613-.267-.624-.257-.637-.247-.648-.236-.66-.226-.316-.103-.677-.21-.696-.202-.715-.193-.734-.184-.757-.175-.682-.147m-.53-.106l-.461-.088-.47-.085-.475-.082-.484-.08-.493-.075-.502-.073-.511-.072-.521-.067-.533-.065-.33-.038-.534-.057m-7.547-.48l-.942-.025-.942-.022-.942-.015-.943-.012-.941-.009-.943-.006-.942-.004-.943-.001-.942-.001h-.942m15.735 7.704l.673.083.677.093.655.1.635.107.616.113.598.12.581.126.566.134.551.14.536.145.523.153.51.16.498.165.486.172.475.178.464.186.455.191.449.2.446.21.44.22.44.23.435.237.34.194m14.227 37.39v-1.68l-.003-.56-.002-.559-.003-.559-.004-.559-.005-.558-.006-.556-.009-.557m-.002-.154l-.035-1.544-.054-1.534-.071-1.409-.086-1.31-.103-1.23-.118-1.164-.135-1.105-.15-1.053-.165-1.006-.182-.966-.196-.927-.213-.894-.227-.86-.243-.832-.258-.804-.274-.777-.294-.769-.316-.758-.337-.748-.356-.738-.041-.079-.38-.723-.397-.71-.418-.698-.435-.682-.454-.668-.471-.652-.487-.634-.504-.619-.52-.6-.534-.583-.548-.564m-19.011-7.845l-.438-.035-.44-.033-.441-.031-.443-.028-.444-.025-.445-.023-.446-.021-.447-.02-.449-.015-.449-.016m-.409-.013l-.456-.011-.456-.01-.457-.008-.458-.007-.458-.006-.46-.006-.46-.003-.46-.003-.46-.003-.46-.001m-511.836.001l-.422.002-.422.002-.422.003-.421.004-.42.004-.42.006-.42.005-.419.008-.419.01-.419.01m0-.001l-.44.011-.44.013-.44.015-.438.017-.437.017-.437.021-.435.022-.435.024-.434.026-.432.03m-2.398.205l-.415.044-.894.106-.858.118-.827.127-.799.136-.772.147-.749.156-.726.166-.704.177-.685.185-.665.197-.648.205-.63.215-.615.226-.6.235-.594.248-.589.263-.584.277-.579.29-.572.304-.567.318-.56.331-.554.343-.546.358-.539.37-.532.383-.523.395-.074.058m-4.968 4.931l-.146.187-.4.526-.387.535-.374.543-.36.55-.349.557-.335.565-.32.57-.308.577-.292.583-.28.588-.264.594-.25.599-.239.604-.226.62-.218.636-.207.653-.196.672-.188.691-.178.711-.167.732-.157.756-.146.781-.138.808-.127.837-.116.868-.107.904-.046.43m-.143 1.603l-.037.497-.034.497-.032.5-.027.5-.025.502-.023.504-.02.504-.018.506-.015.506-.014.507m0 .001l-.011.447-.01.448-.006.448-.007.449-.005.449-.005.45-.004.452-.003.45-.002.45-.001.452m6.755 219.736l-.377-.5-.382-.53-.37-.539-.356-.546-.345-.553-.33-.56-.318-.566-.303-.57-.29-.579-.277-.583-.262-.588-.248-.593-.236-.6-.224-.614-.216-.63-.205-.646-.197-.665-.185-.684-.176-.703-.167-.725-.156-.747-.147-.77-.136-.799-.127-.826-.117-.858-.107-.89-.057-.528m-.443-10.865l.001.423.003.424.003.423.004.422.004.422.006.422.005.421.008.421.01.421.01.42m-.001 0l.012.441.013.442.015.44.017.44.018.438.02.44.022.435.025.437.027.434.028.435"/><path stroke="#949494" stroke-width=".3" d="M10.378 253.45l.048.442.107.886.116.854.127.82.137.795.147.767.156.745.166.72.176.7.185.682.196.661.205.646.213.627.225.613.234.596.248.591.261.585.276.582.288.575.302.57.317.564.33.558.341.551.355.545.368.536.38.529.39.515m4.884 4.97l.27.215.53.403.54.391.546.378.554.364.562.352.568.337.576.324.58.31.588.296.593.281.598.267.602.253.61.238.625.229.64.218.66.208.678.199.697.188.717.178.74.168.763.157.788.148.817.137.846.127.878.116.914.106.457.048m1.381.124l.508.038.51.035.51.032.513.03.514.025.515.024.516.02.518.019.518.016.52.014m0 0l.446.01.448.009.448.007.447.007.449.006.45.004.449.004.45.003.45.002h.45m534.811-4.155l-.341.195-.435.24-.44.227-.441.22-.446.21-.448.2-.454.191-.464.185-.475.18-.486.171-.498.166-.51.16-.523.151-.537.147-.55.14-.566.132-.582.127-.597.12-.617.113-.634.107-.656.1-.676.093-.673.083"/><path stroke="#949494" stroke-width=".3" d="M571.798 282.395l-.502.044-.51.04-.511.036-.513.033-.515.03-.517.026-.518.023-.52.022-.521.017-.522.016h-.006l-513.825.062-2.834-.004-2.832-.03-2.351-.058-2.066-.092-1.866-.126-1.715-.158-1.592-.191-1.49-.223-1.4-.256-1.326-.288-1.256-.32-1.196-.352-1.14-.384-1.09-.416-1.07-.46-1.052-.505-1.036-.55-1.014-.593-.993-.638-.968-.68-.942-.718-.915-.76-.882-.797-.441-.422-.833-.85-.797-.883-.758-.913-.721-.943-.68-.968-.637-.992-.593-1.014-.55-1.035-.506-1.052-.46-1.07-.415-1.088-.384-1.14-.351-1.195-.321-1.256-.288-1.325-.256-1.401-.224-1.49-.191-1.591-.16-1.714-.124-1.865-.093-2.065-.06-2.35-.026-2.83-.005-2.85m580.585 34.735l.548-.563.534-.582.518-.599.503-.617.487-.635.47-.65.454-.666.435-.682.417-.695.399-.71.379-.723.047-.095.357-.736.336-.747.315-.758.294-.767.273-.777.258-.803.243-.83.227-.859.212-.892.196-.926.18-.963.168-1.005.149-1.05.135-1.104.118-1.16.103-1.227.087-1.308.07-1.405.055-1.528.034-1.492m.005-.241l.008-.557.007-.556.005-.558.004-.558.003-.559.002-.56v-.559l.002-.56v-1.12"/><path stroke="#949494" stroke-width=".3" d="M6.632 242.742l.001 1.316.015 3.12.046 2.482.078 2.161.051.987.128 1.834.161 1.693.005.045.195 1.565.227 1.467.261 1.385.144.67.31 1.283.344 1.224.376 1.17.37 1.013.44 1.083.487 1.064.487.965.58 1.045.627 1.028.671 1.006.53.74.747.966.787.94.827.908.597.614.613.597.91.827.937.788.967.748.736.531 1.008.673 1.027.626 1.044.582.965.49 1.064.486 1.083.442 1.013.371 1.167.377 1.224.344 1.283.312.672.144 1.383.262 1.465.228 1.562.195.051.006 1.69.162 1.83.128.993.052 2.157.08 2.477.045 3.105.015 1.341.001"/><g transform="rotate(90 -30.512 32.488)"><mask id="eR" fill="#fff"><use xlink:href="#eQ"/></mask><path stroke="#949494" stroke-width=".3" mask="url(#eR)" d="M.975.583l.013.001.123.006.123.006.11.005.124.005.123.005.123.005.123.005.124.004.123.005.123.004"/></g><path stroke="#949494" stroke-width=".3" d="M49.92 7.125h-1.322l-3.118.016-2.483.045-2.16.08-.99.05-1.833.128-1.693.161-.048.006-1.564.195-1.467.227-1.385.261-.669.143-1.285.312-1.224.344-1.169.377-1.014.37-1.084.441-1.064.487-.966.488-1.045.581-1.027.627-1.008.672-.738.53-.967.747-.939.788-.91.827-.614.598-.598.614-.827.91-.788.94-.747.966-.53.738-.673 1.008-.627 1.027-.58 1.044-.49.966-.486 1.064-.442 1.083-.369 1.015-.377 1.17-.344 1.223-.31 1.284-.145.671-.26 1.384-.228 1.467-.195 1.565-.005.047-.162 1.693-.128 1.833-.05.99-.08 2.16-.045 2.484-.015 3.118v1.32M559.64 286.029l1.384-.001 3.074-.017 2.463-.045 2.148-.082 1-.052 1.824-.13 1.684-.163.057-.006 1.558-.196 1.461-.23 1.38-.263.675-.145 1.28-.313 1.22-.345 1.165-.38 1.011-.37 1.082-.444 1.062-.49.963-.488 1.043-.583 1.026-.63 1.006-.673.733-.53.965-.747.937-.79.908-.827.61-.596.595-.613.825-.911.785-.94.746-.966.527-.736.671-1.008.625-1.028.578-1.044.487-.964.484-1.065.441-1.083.367-1.012.376-1.17.343-1.225.31-1.285.141-.663.26-1.386.227-1.467.194-1.566.005-.04.161-1.692.127-1.834.051-.982.08-2.162.044-2.483.015-3.122v-1.304M546.596 3.218l-.004.002-.023.01-.024.009-.018.007-.025.009-.023.009-.023.009-.024.008-.023.009-.023.009-.024.009m-.568.169l-.146.034-.15.032-.156.03-.16.028-.169.026-.175.024-.183.02-.193.02-.205.019-.219.016-.103.007-.25.014-.267.01-.285.01-.312.007-.35.005-.26.002-.4.002m61.014 46.628v-1.305l-.015-3.122-.046-2.483-.078-2.162-.051-.983-.127-1.834-.162-1.692-.004-.04-.194-1.567-.227-1.466-.26-1.386-.142-.664-.31-1.285-.343-1.225-.376-1.17-.368-1.012-.44-1.083-.485-1.065-.487-.964-.578-1.045-.626-1.027-.67-1.008-.528-.736-.746-.967-.786-.939-.825-.91-.594-.614-.612-.597-.907-.827-.937-.789-.966-.749-.733-.529-1.006-.674-1.027-.628-1.043-.583-.963-.489-1.063-.488-1.082-.445-1.011-.37-1.165-.378-1.221-.346-1.28-.312-.674-.146-1.381-.262-1.461-.23-1.56-.196-.055-.006-1.686-.163-1.824-.129-1-.054-2.15-.08-2.464-.046-3.08-.016h-1.377m-72.485-3.34h-.331l-.446-.002-.392-.004-.345-.007-.313-.008-.291-.012-.274-.014-.03-.002-.241-.015-.223-.018-.208-.02-.196-.022-.186-.024-.178-.027-.17-.028-.164-.03-.158-.035-.153-.036-.148-.038m-.219-.063l-.043-.014-.044-.014-.045-.015h-.002l-.044-.017-.044-.015-.045-.017-.044-.016-.043-.017-.044-.017-.043-.017"/><path stroke="#949494" stroke-width=".3" d="M589.3 261.429l.212-.517.202-.531.19-.547.182-.56.096-.318.166-.584.155-.602.145-.621.135-.64.02-.103.124-.665.113-.69.103-.718.067-.52.086-.774.076-.808.065-.853.012-.178.054-.919.043-.983.024-.721.026-1.145.016-1.304.002-.175.005-1.653v-.971m-14.75 30.533l.504-.222.502-.235.499-.25.496-.264.304-.17.489-.285.486-.3.479-.312.475-.326.233-.167.466-.346.458-.357.45-.37.443-.38.183-.163.43-.398.422-.408.16-.16.408-.421.398-.432.162-.182.382-.443.369-.451.358-.458.345-.465.167-.233.326-.475.313-.48.299-.485.286-.49.17-.304.264-.496.25-.5.235-.501.22-.504m-30.532 14.751h.977l1.648-.006.175-.001 1.302-.016 1.147-.026.72-.024.983-.043.918-.054.179-.012.853-.066.809-.075.773-.087.52-.067.718-.102.69-.113.665-.123.103-.021.64-.135.62-.145.603-.155.585-.166.317-.096.56-.182.547-.191.53-.201.519-.211m-532.116 0l.517.21.532.202.546.192.561.18.317.097.584.166.602.155.62.145.641.135.103.02.665.124.69.113.718.103.52.066.774.087.808.075.853.067.18.01.917.055.983.043.721.025 1.146.025 1.303.017h.175l1.647.006h.978m-30.532-14.751l.22.504.236.502.25.499.264.496.169.304.286.49.3.485.313.48.325.474.167.234.346.465.357.458.37.451.38.442.163.183.398.431.408.421.16.16.42.409.433.397.182.162.444.382.45.369.458.358.465.345.233.167.475.327.479.312.486.3.49.286.304.17.496.264.499.249.502.235.504.222M30.002 243.33v.976l.006 1.647.002.175.015 1.303.027 1.146.023.721.044.982.053.92.013.178.065.852.076.81.086.772.067.521.103.718.113.69.123.664.021.103.135.64.145.621.155.603.165.584.096.317.182.561.191.547.202.531.211.517m.001-229.705l-.212.517-.201.53-.191.548-.182.56-.096.318-.165.584-.155.602-.146.62-.134.64-.021.104-.123.665-.113.69-.104.718-.066.52-.086.774-.076.808-.066.854-.012.178-.053.918-.044.983-.024.72-.026 1.147-.016 1.303-.001.175-.006 1.647v.977m14.75-30.533l-.504.221-.5.235-.5.25-.496.264-.305.17-.49.286-.485.3-.48.312-.474.326-.234.167-.465.345-.458.358-.45.37-.443.38-.183.163-.43.398-.422.408-.16.16-.409.421-.397.432-.162.182-.382.443-.369.451-.358.458-.345.465-.166.233-.327.475-.313.48-.3.485-.286.49-.169.304-.265.496-.249.5-.235.501-.22.504m30.532-14.751h-.977l-1.648.006h-.174l-1.304.017-1.146.027-.721.023-.982.043-.918.054-.18.012-.851.066-.81.075-.773.087-.521.067-.717.102-.69.113-.665.123-.103.02-.64.137-.621.144-.602.155-.585.166-.317.096-.562.182-.546.19-.531.202-.517.21m532.116.001l-.517-.21-.531-.202-.547-.192-.561-.18-.317-.097-.585-.166-.603-.155-.62-.145-.64-.135-.102-.02-.666-.124-.69-.113-.718-.103-.52-.066-.773-.086-.81-.076-.853-.067-.178-.01-.918-.055-.983-.043-.72-.024-1.148-.026-1.302-.017h-.175l-1.648-.006h-.977M589.3 31.724l-.22-.504-.236-.502-.25-.5-.263-.495-.17-.304-.286-.49-.3-.485-.312-.48-.326-.474-.167-.234-.345-.465-.358-.458-.37-.451-.381-.442-.162-.183-.398-.431-.408-.422-.16-.16-.421-.408-.431-.397-.183-.163-.443-.381-.451-.37-.458-.358-.465-.344-.233-.167-.474-.327-.48-.312-.486-.3-.49-.286-.304-.17-.496-.264-.5-.25-.501-.235-.503-.221m14.751 30.533v-.971l-.007-1.654-.002-.174-.016-1.303-.026-1.147-.024-.72-.043-.982-.053-.918-.013-.18-.065-.852-.076-.81-.086-.773-.067-.52-.103-.718-.113-.69-.123-.664-.02-.103-.136-.64-.145-.622-.155-.602-.165-.584-.097-.318-.18-.561-.193-.546-.2-.531-.212-.517"/><g transform="matrix(0 1 -1 0 1.976 213)"><mask id="eT" fill="#fff"><use xlink:href="#eS"/></mask><path stroke="#949494" stroke-width=".3" mask="url(#eT)" d="M.451.524h.281l.815.003.808.002.805.003h.525l.797.004.793.002.788.003.784.003.78.002.774.002"/></g><g transform="matrix(0 1 -1 0 1.976 221)"><mask id="eV" fill="#fff"><use xlink:href="#eU"/></mask><path stroke="#949494" stroke-width=".3" mask="url(#eV)" d="M.402.548L.888.55l.633.003.63.002.629.003.624.003h.146l.623.003.618.003.616.002.613.003.61.003"/></g><path stroke="#949494" stroke-width=".3" d="M557.529 3.206h1.54l.77.001.772.002.77.004.77.005.77.006.772.008.77.012.77.014m.02.001l.628.014 1.433.04 1.327.05 1.247.059 1.183.069 1.13.08.415.034 1.056.092 1.014.103.975.112.943.121.912.132.885.142.574.099.83.155.802.164.776.172.753.181.73.19"/><g transform="rotate(90 -22.512 24.488)"><mask id="eX" fill="#fff"><use xlink:href="#eW"/></mask><path stroke="#949494" stroke-width=".3" mask="url(#eX)" d="M4.682.808L4.23.815 3.779.82l-.452.006-.453.004-.451.005-.451.004-.452.004-.451.003-.451.002H.166"/></g><path stroke="#949494" stroke-width=".3" d="M1.128 45.977l.013-1.301.016-.956.033-1.181.042-1.114.053-1.058.064-1.013.074-.973.035-.412.09-.922.098-.891.108-.863.12-.837L2 33.64l.14-.793.01-.06.151-.777.161-.763.172-.751.182-.738.194-.723m-1.522 89.14v-.359l-.001-2.159v-4.12l-.001-2.158v-2.158l-.001-2.158-.001-1.995-.001-2.159-.002-2.158-.001-2.158"/><g transform="rotate(90 -21.012 22.988)"><mask id="eZ" fill="#fff"><use xlink:href="#eY"/></mask><path stroke="#949494" stroke-width=".3" mask="url(#eZ)" d="M8.072.657l-.748.004-.747.003-.747.001H4.337L3.59.66 2.841.654 2.095.645l-.746-.01L.6.62"/></g><path stroke="#949494" stroke-width=".3" d="M1.356 44.602l.006-.266.005-.235.08-2.435.115-2.2.15-2.032.096-1.032.199-1.777.232-1.66.264-1.565.257-1.293.318-1.38.347-1.3.378-1.232.322-.934.453-1.184.494-1.155.534-1.121.578-1.1.623-1.077.667-1.053.32-.476.73-1.014.769-.984.219-.268.819-.945.855-.91.893-.88.93-.844.233-.201.972-.8 1.005-.76 1.035-.723.346-.227 1.073-.667.563-.328 1.11-.602 1.133-.557 1.153-.512 1.197-.477 1.24-.44 1.016-.325 1.318-.374 1.388-.343L29.26 4.6l1.32-.243 1.662-.26L34 3.87l1.877-.193 1.045-.088 2.134-.143 2.326-.11 2.609-.075.07-.001 3.106-.043.965-.006"/><g transform="rotate(90 -20.512 22.488)"><mask id="fb" fill="#fff"><use xlink:href="#fa"/></mask><path stroke="#949494" stroke-width=".3" mask="url(#fb)" d="M8.842.806l-.805.01-.828.01-.82.01-.811.007-.8.005-.791.002-.782-.001-.769-.005-.76-.01h-.028L.901.823"/></g><path stroke="#949494" stroke-width=".3" d="M1.155 43.9v-.023l.026-1.012.034-.972.042-.931.048-.895.056-.86.063-.826.056-.655.073-.757.08-.727.087-.706.093-.688.102-.675.108-.665.117-.66.118-.608"/><g transform="rotate(90 -42.012 43.988)"><mask id="fd" fill="#fff"><use xlink:href="#fc"/></mask><path stroke="#949494" stroke-width=".3" mask="url(#fd)" d="M8.62.5h-.089l-.765.003L7 .506 6.232.51l-.766.004-.768.003-.766.003-.679.002-.768.004-.767.004L.95.533"/></g><path stroke="#949494" stroke-width=".3" d="M1.316 51.62l-.002-.6.004-3.714.044-2.97.074-2.396.12-2.37.157-2.137.064-.708.207-1.912.242-1.769.277-1.645.2-1.023.336-1.485.367-1.392.397-1.305.436-1.247.478-1.212.525-1.182.364-.752.602-1.143.642-1.105.689-1.079.256-.379.762-1.059.8-1.02.843-.986.13-.146.105-.115.896-.944.933-.904.484-.44.494-.432.197-.167 1.019-.823 1.053-.78 1.089-.74.452-.289 1.11-.665 1.139-.62 1.178-.58.765-.346 1.235-.51 1.278-.469 1.329-.429 1.395-.395 1.49-.363 1.586-.33 1.024-.187 1.738-.27 1.872-.237 2.018-.2.714-.059 2.237-.15 2.499-.112 2.404-.067 3.22-.043 1.646-.009m510.996 7.201h.539l3.198.01 2.456.038 2.09.067 1.858.1 1.686.13 1.552.16 1.442.19 1.348.221 1.268.252 1.196.28 1.133.311 1.075.34 1.022.37.975.397.953.44.937.48.919.525.902.566.882.607.86.65.838.688.814.73.788.766.76.805.733.841.7.875.67.908.635.94.599.97.563.995.297.57.502 1.034.46 1.056.42 1.078.38 1.095.348 1.148.318 1.204.288 1.267.258 1.337.227 1.417.197 1.51.165 1.617.135 1.75.102 1.92.072 2.148.04 2.5.015 3.184v1.06"/><path stroke="#949494" stroke-width=".3" d="M9.917 53.31l.005-2.85.027-2.83.06-2.35.093-2.064.125-1.866.16-1.714.19-1.592.224-1.49.256-1.4.288-1.324.32-1.256.352-1.196.383-1.14.416-1.088.46-1.07.505-1.052.55-1.034.594-1.015.638-.992.678-.968.721-.941.76-.914.796-.883.833-.85.44-.423.883-.797.914-.758.942-.72.968-.68.993-.637 1.015-.594 1.035-.55 1.053-.505 1.07-.46 1.09-.415 1.14-.384 1.195-.352 1.257-.32 1.325-.288 1.401-.256 1.49-.223 1.591-.192 1.715-.158 1.866-.125 2.067-.093 2.35-.06 2.832-.027 2.834-.003m556.024 230.965l-.013 1.56-.04 2.56-.064 2.221-.086 1.985-.056.994-.124 1.792-.149 1.678-.17 1.572-.192 1.473-.008.061-.218 1.41-.24 1.347-.265 1.29-.286 1.231-.307 1.177-.33 1.136-.355 1.102-.38 1.068-.405 1.038-.429 1.011-.064.143-.46.984-.486.962-.514.942-.543.926-.535.853-.604.901-.628.877-.65.851-.673.824-.475.551-.707.776-.725.746-.746.72-.768.693-.502.431-.322.265"/><g transform="rotate(90 186.488 423.488)"><mask id="ff" fill="#fff"><use xlink:href="#fe"/></mask><path stroke="#949494" stroke-width=".3" mask="url(#ff)" d="M.679 1.131h.124l.372-.002.372-.002h1.235l.369.002h.123l.368.002.367.002.367.002"/></g><g transform="rotate(90 279.488 330.488)"><mask id="fh" fill="#fff"><use xlink:href="#fg"/></mask><path stroke="#949494" stroke-width=".3" mask="url(#fh)" d="M.777 1.135l.122-.001.367-.001.368-.002.369-.002h.123l.369-.002.37-.001h.494l.37.003.373.002h.372"/></g><path stroke="#949494" stroke-width=".3" d="M595.322 11.625l.317.262.329.28.47.413.464.423.454.432.445.441.439.451.217.23.215.232.425.473.325.374.412.492.405.502.396.513.389.521.38.53.37.54.363.55.06.094.349.553.337.558.325.564.315.57.304.574.294.583.284.591.275.6m.024.055l.093.21.348.826.332.843.315.863.299.884.283.906.267.93.25.956.236.992.223 1.03.207 1.07.193 1.108.176 1.15.029.207.158 1.198.143 1.264.129 1.332.113 1.405.098 1.484.043.795.072 1.615.057 1.77.042 1.972.027 2.263.004.678M356.512 3.206h-91.375l-30.458.001H204.22l-30.458.001H82.387l-30.458-.002"/><g transform="matrix(0 1 -1 0 1.976 249)"><mask id="fj" fill="#fff"><use xlink:href="#fi"/></mask><path stroke="#949494" stroke-width=".3" mask="url(#fj)" d="M.244.821l.487-.01.483-.013.477-.016.473-.017.467-.019.463-.022.458-.023.452-.026.448-.027.442-.029"/></g><path stroke="#949494" stroke-width=".3" d="M1.357 253.895l.012.17.054.707.008.092.059.673.063.646.069.627.073.608.077.595.084.584.089.574.095.57.1.564.083.438.113.558.118.553.124.547"/><g transform="matrix(0 1 -1 0 1.976 231)"><mask id="fl" fill="#fff"><use xlink:href="#fk"/></mask><path stroke="#949494" stroke-width=".3" mask="url(#fl)" d="M.022.688h.125l.252.003.254.002H.78l.257.003.257.003.26.002.263.002.263.003.264.002.266.002"/></g><path stroke="#949494" stroke-width=".3" d="M1.378 249.479l.066 1.933.118 2.26.151 2.047.087.949.202 1.82.234 1.69.267 1.575.24 1.21.323 1.414.355 1.33.382 1.252.417 1.197.457 1.165.498 1.137.431.894.576 1.097.613 1.062.656 1.037.344.51.73 1.017.764.979.804.949.237.266.213.233.862.902.898.865.464.422.474.413.321.27.98.785 1.013.747 1.045.709.587.373 1.067.633 1.094.59 1.131.557.914.41 1.188.486 1.23.447 1.274.412 1.337.378 1.424.35 1.511.322 1.223.223 1.666.26 1.788.23 1.921.196.968.082 2.143.144 2.382.11 2.615.074 3.085.042 1.781.01m357.313-.006h-.011l-.006-.001h-.005l-.006-.001h-.006l-.006-.001-.005-.001-.006-.001-.005-.001M546.617 3.215h-.008l-.003.001h-.003l-.003.001-.003.001-.002.001-.003.001-.002.001m-103.245-.005h.015l.008.001h.007l.008.001.007.002.008.001.008.002.007.002.007.002m38.282-.011h.008l.003.001h.003l.002.001.003.001.002.001.003.001.002.001m-76.698-.007h.012l.006.001h.005l.006.001h.006l.006.001.005.001.006.001.005.001"/><g transform="rotate(90 -35.512 37.488)"><mask id="fn" fill="#fff"><use xlink:href="#fm"/></mask><path stroke="#949494" stroke-width=".3" mask="url(#fn)" d="M1.027.576l.025.006.027.004.026.005.026.003.027.003.026.002.027.002.026.001.026.001h.027"/></g><path stroke="#949494" stroke-width=".3" d="M2.946 263.857l-.143-.545-.136-.551-.131-.557-.125-.566-.02-.087-.116-.573-.112-.584-.107-.595-.1-.605-.095-.617-.09-.63-.083-.643-.078-.656-.071-.671-.067-.686-.06-.704-.007-.098M1.284 40.48l.027-.477.054-.82.062-.791.067-.767.074-.746.082-.726.089-.707.096-.692.085-.574.109-.668.115-.657.124-.645.13-.634.136-.623.145-.614.15-.602.157-.593M360.45 289.932l-.005.002h-.012l-.005.002h-.006l-.006.002h-.022"/><path stroke="#949494" stroke-width=".3" d="M1.35 241.08l-.004.717-.006 2.26.007 1.988.023 1.77.035 1.621.05 1.511.063 1.426.046.856.083 1.282.096 1.215.108 1.162.12 1.114.117.94.14 1.005.15.961.163.921.173.887.185.855m0 .001l.138.587.214.84.228.82.243.8.258.783.273.763.285.744.299.725.318.717.336.71.354.702.043.083.374.693.39.68.408.672.425.66.439.649.456.637.474.626.49.616.506.603.523.593.538.58.55.567.569.553.05.048.583.538.596.525.61.509.624.495.02.016.637.479.646.46.657.446.666.427"/><path stroke="#949494" stroke-width=".3" d="M17.118 283.917l.551.335.558.325.567.315.574.304.582.292.59.282.236.11.598.265.608.255.62.246.63.237.642.226.653.217.124.04.667.205.684.197.701.187.721.18.741.172.764.163.786.154.812.147.841.138.871.13.52.072m.255.034l.785.098.806.09.827.085.853.079.879.07.91.066.947.059.986.052 1.034.046 1.093.039h.002l1.144.032 1.143.025m0 0l.75.013.751.01.75.008.751.006.75.004.751.003.751.002.75.001h1.502"/><g transform="rotate(90 -72.012 73.988)"><mask id="fp" fill="#fff"><use xlink:href="#fo"/></mask><path stroke="#949494" stroke-width=".3" mask="url(#fp)" d="M.576.445h27.912l9.304.003 9.303.004 4.652.005 9.304.012 9.303.024L72.68.5l9.303.04 2.324.012 9.304.064"/></g><path stroke="#949494" stroke-width=".3" d="M1.466 71.612l.024 7.496.018 7.496.011 7.497.007 7.496.002 7.497.002 7.497.001 7.497v22.489M404.955 3.226l.007-.002.008-.002.007-.001.008-.002.008-.001.007-.001.008-.001h.007l.008-.001h.007m38.26.007l.004-.001.006-.001.006-.001.005-.001.006-.001h.005l.006-.001h.017m38.695.006l-.002-.001-.003-.001-.003-.001-.003-.001-.002-.001h-.003l-.003-.001h-.008m64.887.004h.004l.002-.001.003-.001.003-.001h.002l.003-.001.003-.001h.008m10.601 286.718h1.453l.727-.001.727-.001.727-.003.726-.004.727-.006.726-.006.727-.01.727-.012m0 0l.549-.011.55-.011.549-.015.55-.016.549-.017.549-.021.55-.022.549-.025.549-.027.549-.03m-.001 0l1.09-.068 1.257-.094 1.2-.108 1.15-.12 1.107-.132.022-.003 1.051-.145 1.005-.154.964-.167.928-.178.896-.19.867-.202.13-.031.837-.216.815-.228.793-.24.772-.253.751-.265.731-.277.711-.29.468-.2.698-.316.69-.332.68-.348.668-.363.658-.378.646-.392.634-.407M592.498 9.55l-.475-.307-.483-.298-.489-.292-.497-.283-.504-.275-.51-.267-.518-.258-.523-.25-.529-.24-.534-.23-.54-.224-.24-.097-.548-.209-.557-.202-.57-.195-.582-.188-.595-.183-.609-.175-.622-.169-.637-.16-.65-.156-.669-.148-.279-.059m-.53-.107l-.458-.088-.465-.085-.473-.08-.482-.08-.49-.076-.502-.073-.51-.07-.52-.069-.534-.065-.345-.04-.533-.058m-3.58-.298l-.594-.036-.594-.032-.594-.03-.594-.026-.595-.023-.594-.022-.595-.018-.595-.017-.595-.014-.594-.01m-.001-.001l-.745-.013-.744-.01-.744-.008-.744-.006-.744-.004-.745-.003-.744-.002-.745-.001h-1.488M360.857 289.764l.024-.007.018-.006.012-.003.018-.005.018-.004.02-.005.017-.005.018-.005.02-.004.017-.005c.07-.016.14-.032.21-.046l.146-.028.151-.025.158-.025.163-.021.171-.02.18-.017.188-.016.202-.014.218-.011.19-.01.264-.008.287-.007.317-.004.367-.003.354-.001h37.968l.362.003.313.004.281.008.26.009.242.01.012.002.226.014.213.017.202.018.194.022.187.023h.01l.162.025.148.024.137.024.127.028.121.028.115.03.3.016v1.509l-.002.006-.456.635-.037.01-44.583-.001-.037-.01-.459-.641v-1.508h.246z"/><path stroke="#949494" stroke-width=".3" d="M360.612 291.293v-.008l.006-.007.01-.007.005-.003.038-.024.028-.013.049-.02.063-.023h.005l.086-.028.084-.02.116-.029.105-.02.154-.027.11-.018.198-.028.208-.025.22-.023.24-.02.253-.017.204-.012.278-.01.315-.01.13-.004.429-.006.302-.002h38.3l.307.002.424.006.13.003.316.01.279.011.204.012.252.016.24.021.222.023.208.025.195.028.11.018.156.027.104.02.117.028.084.021.086.027.005.001.063.022.049.021.028.014.038.023.005.003.009.007.005.008.002.008M394.895 3.225l-.02.007-.016.005-.01.003-.015.005-.016.004-.015.004-.015.005-.016.005-.015.004-.015.004c-.059.016-.118.03-.177.044l-.123.026-.128.025-.133.022-.138.02-.144.019-.15.017-.16.014-.17.013-.183.012-.16.008-.223.007-.242.007-.267.004-.309.003H359.74l-.306-.002-.264-.004-.237-.007-.218-.008-.205-.012h-.01l-.19-.014-.18-.015-.17-.018-.164-.02-.157-.022-.008-.001-.137-.021-.125-.024-.115-.023-.108-.026-.102-.026-.096-.03-.253-.014V1.8l.001-.006.385-.6.031-.008h37.573l.03.01.387.605v1.423h-.207z"/><path stroke="#949494" stroke-width=".3" d="M395.102 1.782v.007l-.005.007-.008.007-.005.003-.032.022-.023.013-.042.019-.053.022h-.004l-.073.025-.07.02-.098.026-.088.02-.13.026-.094.016-.166.027-.175.023-.186.022-.203.019-.212.017-.172.01-.234.01-.266.009-.11.003-.362.007-.254.002H359.76l-.258-.002-.358-.007-.11-.002-.265-.01-.235-.01-.172-.01-.213-.017-.202-.02-.187-.021-.175-.023-.166-.027-.093-.016-.13-.026-.088-.02-.098-.025-.07-.021-.073-.024-.005-.001-.052-.022-.042-.02-.024-.012-.032-.022-.004-.003-.008-.007-.004-.007V1.78m86.299 1.409l-.021.007-.015.005-.01.003-.015.005-.015.003-.016.005-.015.005-.016.004-.015.005-.015.004a3.51 3.51 0 0 1-.177.043l-.123.027-.128.025-.132.02-.14.022-.142.018-.151.017-.16.015-.17.013-.183.01-.16.009-.223.008-.242.007-.267.004-.31.002H407.84l-.306-.001-.264-.005-.236-.007-.22-.008-.204-.011-.01-.001-.19-.013-.18-.015-.171-.018-.163-.02-.157-.022-.008-.001-.137-.022-.124-.023-.116-.024-.108-.025-.102-.027-.096-.028-.253-.015V1.765l.002-.006.384-.6.032-.01 37.572.002.03.009.387.605v1.424h-.207z"/><path stroke="#949494" stroke-width=".3" d="M443.202 1.744l-.001.008-.004.007-.008.006-.005.004-.032.022-.023.013-.042.02-.052.02-.005.002-.073.024-.07.02-.098.026-.088.02-.13.026-.094.016-.166.027-.175.023-.186.022-.203.018-.212.017-.172.011-.234.01-.266.01-.11.002-.361.006-.254.003-.246.001h-32.033l-.257-.004-.358-.006-.11-.003-.265-.009-.235-.01-.172-.01-.213-.017-.202-.019-.187-.022-.175-.023-.165-.027-.094-.016-.13-.027-.088-.019-.098-.026-.071-.02-.072-.024-.005-.002-.052-.02-.042-.02-.024-.014-.032-.022-.004-.003-.008-.007-.004-.007-.001-.007"/><path d="M354.568 125.552l231.419-99.319M257.97 167.28L33.5 263.5" opacity=".6" stroke="#949494"/><path d="M241.914 148.117c0-2.245.436-3.923 1.309-5.035.872-1.112 2.162-1.668 3.87-1.668.59 0 1.053.05 1.391.149v1.117a4.449 4.449 0 0 0-1.375-.196c-1.224 0-2.158.382-2.804 1.145-.646.763-1 1.962-1.063 3.598h.094c.573-.896 1.48-1.344 2.719-1.344 1.026 0 1.834.31 2.425.93.592.62.887 1.46.887 2.523 0 1.187-.324 2.121-.972 2.8-.649.68-1.525 1.02-2.63 1.02-1.182 0-2.12-.444-2.812-1.332-.693-.888-1.039-2.123-1.039-3.707zm3.836 3.938c.74 0 1.314-.233 1.723-.7.409-.466.613-1.139.613-2.02 0-.754-.19-1.348-.57-1.78-.38-.433-.948-.649-1.703-.649-.47 0-.899.097-1.29.29-.39.192-.701.458-.933.796-.232.339-.348.69-.348 1.055 0 .536.104 1.036.313 1.5.208.463.504.83.886 1.101.383.271.82.407 1.309.407zm5.586.117c0-.35.08-.613.238-.793.16-.18.387-.27.684-.27.302 0 .538.09.707.27.17.18.254.444.254.793 0 .338-.086.599-.258.781-.172.182-.406.274-.703.274a.926.926 0 0 1-.66-.247c-.175-.164-.262-.433-.262-.808zm10.93-7.906c0 .729-.205 1.325-.614 1.789-.409.463-.988.773-1.738.93v.062c.917.114 1.596.406 2.04.875.442.469.663 1.083.663 1.844 0 1.088-.377 1.925-1.133 2.511-.755.586-1.828.88-3.218.88a9.328 9.328 0 0 1-1.66-.137 5.682 5.682 0 0 1-1.465-.48v-1.235a7.123 7.123 0 0 0 1.582.558c.56.128 1.09.192 1.59.192 1.973 0 2.96-.774 2.96-2.32 0-1.386-1.088-2.079-3.265-2.079h-1.125v-1.117h1.14c.891 0 1.597-.197 2.118-.59.52-.393.78-.939.78-1.637 0-.557-.19-.994-.573-1.312-.383-.318-.903-.477-1.559-.477-.5 0-.971.068-1.414.204-.443.135-.948.385-1.516.75l-.656-.875c.469-.37 1.01-.66 1.621-.872a5.892 5.892 0 0 1 1.934-.316c1.11 0 1.971.254 2.586.762.614.508.922 1.204.922 2.09zm1.945 5.039v-1.188h3.836v1.188h-3.836zm7.164 3.695h-1.297v-8.563h1.297V153zm-1.406-10.883c0-.297.073-.514.219-.652a.764.764 0 0 1 .546-.207c.209 0 .388.07.54.21.15.141.226.358.226.65 0 .29-.076.508-.227.652a.757.757 0 0 1-.539.214.75.75 0 0 1-.546-.214c-.146-.144-.22-.361-.22-.653zM279.984 153v-5.54c0-.697-.158-1.218-.476-1.562-.318-.343-.815-.515-1.492-.515-.896 0-1.552.242-1.97.726-.416.485-.624 1.284-.624 2.399V153h-1.297v-8.563h1.055l.21 1.172h.063a2.648 2.648 0 0 1 1.117-.98 3.63 3.63 0 0 1 1.602-.348c1.031 0 1.807.249 2.328.746.52.498.781 1.293.781 2.387V153h-1.297zm7.383.156c-1.24 0-2.199-.381-2.879-1.144-.68-.763-1.02-1.843-1.02-3.239 0-1.432.346-2.539 1.036-3.32.69-.781 1.673-1.172 2.95-1.172.41 0 .822.045 1.233.133.412.089.735.193.97.313l-.4 1.101a6.098 6.098 0 0 0-.937-.285 4.186 4.186 0 0 0-.898-.113c-1.74 0-2.61 1.11-2.61 3.328 0 1.052.213 1.86.637 2.422.425.562 1.054.843 1.887.843.713 0 1.445-.153 2.195-.46v1.148c-.573.297-1.294.445-2.164.445zm10.055-.156v-5.54c0-.697-.159-1.218-.477-1.562-.317-.343-.815-.515-1.492-.515-.9 0-1.558.245-1.973.734-.414.49-.62 1.292-.62 2.406V153h-1.298v-12.156h1.297v3.68c0 .442-.02.81-.062 1.101h.078a2.645 2.645 0 0 1 1.09-.973c.471-.237 1.009-.355 1.613-.355 1.047 0 1.832.249 2.356.746.523.497.785 1.288.785 2.371V153h-1.297zm7.383-4.383c0-1.38.202-2.672.605-3.875.404-1.203.986-2.258 1.746-3.164h1.266a11.015 11.015 0 0 0-1.692 3.313 12.32 12.32 0 0 0-.566 3.71c0 1.25.193 2.472.578 3.665.386 1.192.94 2.28 1.664 3.265h-1.25a9.207 9.207 0 0 1-1.75-3.101c-.4-1.183-.601-2.453-.601-3.813zm9.68 4.383h-1.266v-8.14c0-.678.02-1.318.062-1.923-.11.11-.232.224-.367.344-.135.12-.755.628-1.86 1.524l-.687-.89 3.024-2.337h1.093V153zm4.476-4.883c0-2.245.436-3.923 1.309-5.035.872-1.112 2.162-1.668 3.87-1.668.59 0 1.053.05 1.391.149v1.117a4.449 4.449 0 0 0-1.375-.196c-1.224 0-2.159.382-2.804 1.145-.646.763-1 1.962-1.063 3.598h.094c.573-.896 1.479-1.344 2.719-1.344 1.026 0 1.834.31 2.425.93.591.62.887 1.46.887 2.523 0 1.187-.324 2.121-.973 2.8-.648.68-1.524 1.02-2.628 1.02-1.183 0-2.12-.444-2.813-1.332-.693-.888-1.04-2.123-1.04-3.707zm3.836 3.938c.74 0 1.314-.233 1.723-.7.408-.466.613-1.139.613-2.02 0-.754-.19-1.348-.57-1.78-.38-.433-.948-.649-1.704-.649-.468 0-.898.097-1.289.29a2.38 2.38 0 0 0-.933.796c-.232.339-.348.69-.348 1.055 0 .536.104 1.036.313 1.5.208.463.503.83.886 1.101s.82.407 1.309.407zm5.586.117c0-.35.08-.613.238-.793.159-.18.387-.27.684-.27.302 0 .537.09.707.27.169.18.254.444.254.793 0 .338-.086.599-.258.781-.172.182-.406.274-.703.274a.926.926 0 0 1-.66-.247c-.175-.164-.262-.433-.262-.808zm11.422-4.899c0 1.974-.312 3.448-.934 4.422-.622.974-1.574 1.461-2.855 1.461-1.23 0-2.164-.498-2.805-1.496-.64-.997-.961-2.46-.961-4.387 0-1.99.31-3.466.93-4.43.62-.963 1.565-1.445 2.836-1.445 1.24 0 2.18.503 2.824 1.508.643 1.005.965 2.461.965 4.367zm-6.243 0c0 1.662.196 2.872.586 3.63.391.757 1.013 1.136 1.868 1.136.864 0 1.49-.384 1.879-1.152.388-.769.582-1.973.582-3.614 0-1.64-.194-2.842-.582-3.605-.388-.763-1.015-1.145-1.88-1.145-.854 0-1.476.377-1.867 1.13-.39.752-.586 1.959-.586 3.62zm11.836 5.883c-1.24 0-2.199-.381-2.878-1.144-.68-.763-1.02-1.843-1.02-3.239 0-1.432.345-2.539 1.035-3.32.69-.781 1.673-1.172 2.95-1.172a5.9 5.9 0 0 1 1.234.133c.411.089.734.193.969.313l-.399 1.101a6.098 6.098 0 0 0-.937-.285 4.186 4.186 0 0 0-.899-.113c-1.74 0-2.61 1.11-2.61 3.328 0 1.052.213 1.86.637 2.422.425.562 1.054.843 1.887.843.714 0 1.445-.153 2.195-.46v1.148c-.572.297-1.294.445-2.164.445zm15.11-.156v-5.57c0-.683-.146-1.194-.438-1.535-.291-.342-.744-.512-1.36-.512-.806 0-1.403.232-1.788.695-.386.464-.578 1.177-.578 2.14V153h-1.297v-5.57c0-.683-.146-1.194-.438-1.535-.291-.342-.747-.512-1.367-.512-.812 0-1.407.243-1.785.73-.378.487-.566 1.285-.566 2.395V153h-1.297v-8.563h1.054l.211 1.172h.063c.245-.416.59-.742 1.035-.976a3.162 3.162 0 0 1 1.496-.352c1.339 0 2.214.485 2.625 1.453h.063a2.73 2.73 0 0 1 1.109-1.062c.484-.26 1.036-.39 1.656-.39.969 0 1.694.248 2.176.745.482.498.723 1.293.723 2.387V153h-1.297zm6.687-4.383c0 1.37-.202 2.646-.605 3.828-.404 1.183-.986 2.211-1.746 3.086h-1.25a11.253 11.253 0 0 0 1.664-3.261c.385-1.196.578-2.418.578-3.668 0-1.271-.189-2.508-.566-3.711a11.015 11.015 0 0 0-1.692-3.313h1.266a9.584 9.584 0 0 1 1.75 3.176c.4 1.206.601 2.493.601 3.863z" fill="#949494" fill-rule="nonzero"/></g></svg>