<svg width="340" height="55" viewBox="0 0 340 55" xmlns="http://www.w3.org/2000/svg"><title>Combined shape 26</title><path d="M331.836 15.046c3.983 0 7.223 3.266 7.223 7.274v23.807c0 4.008-3.24 7.268-7.223 7.268h-46.674c-3.981 0-7.22-3.26-7.22-7.268V22.32c0-4.008 3.239-7.274 7.22-7.274h46.674zm-36.215 8.659c4.072 0 6.917 2.518 6.917 6.13 0 3.59-2.845 6.099-6.917 6.099h-4.302v8.52h-2.585v-20.75h6.887zm0 9.807c2.654 0 4.303-1.408 4.303-3.677 0-2.287-1.65-3.712-4.303-3.712h-4.302v7.39h4.302zm12.073-2.153c.822-1.07 2.368-1.776 4.012-1.776h1.236v2.392h-1.467c-2.067 0-3.234.913-3.78 2.96v9.518h-2.411V29.727h2.41v1.632zm13.838-1.918c4.422 0 7.757 3.287 7.757 7.65 0 4.362-3.335 7.648-7.757 7.648s-7.758-3.286-7.758-7.649c0-4.362 3.336-7.649 7.758-7.649zm0 13.05c3.063 0 5.287-2.271 5.287-5.4 0-3.13-2.224-5.404-5.287-5.404-3.064 0-5.288 2.274-5.288 5.403 0 3.13 2.224 5.401 5.288 5.401zM280.53 22.32v23.807c0 2.57 2.078 4.664 4.632 4.664h46.674c2.555 0 4.633-2.093 4.633-4.664V22.32c0-2.573-2.078-4.667-4.633-4.667h-46.674c-2.554 0-4.632 2.094-4.632 4.667zm-23.029 8.475c4.683.89 9.685 4.25 9.685 11.027 0 8.1-6.627 11.789-12.784 11.789-5.803 0-10.35-2.789-12.198-7.466l3.888-2.308c1.17 3.347 4.111 5.188 8.31 5.188 4.934 0 8.122-2.827 8.122-7.203 0-4.404-3.188-7.252-8.122-7.252h-1.198l-1.876-2.912 8.89-12.103H243.24v-4.37h22.324v4.218l-8.175 11.106-.173.233.284.053zM41.896 14.574c9.697 0 17.5 7.02 17.577 19.15V35.1H27.805c.075 7.786 5.757 14.194 13.94 14.194 6.136 0 9.773-2.977 12.349-7.402l4.242 2.749c-3.257 5.647-8.788 9.23-16.591 9.23-11.82 0-18.865-8.777-18.865-19.61 0-10.988 7.576-19.686 19.016-19.686zM27.956 30.75h26.592c-.909-7.174-6.212-11.599-12.803-11.599-6.44 0-12.425 4.352-13.79 11.6zM0 15.261h22.729v4.577H4.925v33.576H0V15.26zm218.311 18.464v1.374h-31.668c.075 7.786 5.758 14.194 13.94 14.194 6.137 0 9.773-2.977 12.349-7.402l4.243 2.749c-3.258 5.647-8.789 9.23-16.592 9.23-11.819 0-18.865-8.777-18.865-19.61 0-10.988 7.577-19.686 19.016-19.686 9.698 0 17.501 7.02 17.577 19.15zm-31.517-2.975h26.593c-.91-7.174-6.213-11.599-12.804-11.599-6.44 0-12.425 4.352-13.789 11.6zm-24.028-16.024c8.713 0 13.789 6.025 13.789 15.416v23.193h-4.924V30.142c0-6.183-3.561-10.839-9.622-10.839-4.774 0-10.153 2.67-10.153 10.073v23.96h-4.924V30.141c0-6.183-3.334-10.839-9.546-10.839-4.85 0-10 3.738-10 9.464v24.568h-4.925V15.261h4.925v5.036c2.576-3.816 6.667-5.571 11.136-5.571 5.834 0 9.546 2.898 11.592 6.867 2.728-4.501 7.425-6.867 12.652-6.867zm-66.67 5.036v-4.425h4.849v38.077h-4.85v-4.428c-3.181 3.208-7.802 5.036-12.727 5.036-11.213 0-19.168-8.467-19.168-19.61 0-11.14 7.955-19.686 19.168-19.686 4.925 0 9.546 1.907 12.728 5.036zM83.065 49.065c8.182 0 13.789-5.8 13.789-14.653 0-8.929-5.607-14.728-13.789-14.728-8.182 0-13.94 6.565-13.94 14.728 0 8.09 5.758 14.653 13.94 14.653zm26.175 4.27V0h4.925v53.335h-4.925z" fill="#FFF" fill-rule="evenodd"/></svg>