<svg xmlns="http://www.w3.org/2000/svg" viewBox="0 0 231.08 320.3"><defs><style>.cls-1{fill:#676c73;}</style></defs><title>Asset 2</title><g id="Layer_2" data-name="Layer 2"><g id="图层_1" data-name="图层 1"><path class="cls-1" d="M145.51,94.83a3.67,3.67,0,0,1-4,4H29.86A2.71,2.71,0,0,0,27,101.7V316.3a3.66,3.66,0,0,1-4,4H4c-2.51,0-4-1.14-4-4V78.59a3.67,3.67,0,0,1,4-4H141.51a3.66,3.66,0,0,1,4,4ZM103.4,177.75a2.62,2.62,0,0,1,2-4.33h39.22c47.13,0,86.49-35.23,86.49-86.48C231.08,38,193.55,0,135.9,0H4A3.67,3.67,0,0,0,0,4V20.25a3.67,3.67,0,0,0,4,4H134.52c44.84,0,69.55,23.8,69.55,62.69,0,39.35-24.71,62.23-69.55,62.23h-53a3.67,3.67,0,0,0-4,4v30.77a5.93,5.93,0,0,0,1,3.78L196.87,318.59a5.46,5.46,0,0,0,4.46,1.71h27c2.64,0,3.55-2.54,1.86-4.26Z"/></g></g></svg>