<svg xmlns="http://www.w3.org/2000/svg" viewBox="0 0 144.77 22.89"><defs><style>.cls-1{fill:#231916;}</style></defs><title>Asset 1</title><g id="Layer_2" data-name="Layer 2"><g id="Layer_1-2" data-name="Layer 1"><path class="cls-1" d="M126.34,10.12h-2.92v8.74h1.09V15.27h1.83a2.6,2.6,0,1,0,0-5.15Zm0,4.13h-1.83V11.14h1.83c1.13,0,1.82.6,1.82,1.56S127.47,14.25,126.34,14.25Z"/><path class="cls-1" d="M131.46,13.35v-.69h-1v6.2h1v-4a1.48,1.48,0,0,1,1.6-1.24h.63v-1h-.53A2.19,2.19,0,0,0,131.46,13.35Z"/><path class="cls-1" d="M137.33,12.54a3.22,3.22,0,1,0,3.29,3.22A3.18,3.18,0,0,0,137.33,12.54Zm0,5.49a2.18,2.18,0,0,1-2.24-2.27,2.24,2.24,0,1,1,4.48,0A2.18,2.18,0,0,1,137.33,18Z"/><path class="cls-1" d="M141.7,6.48H121.9a3.06,3.06,0,0,0-3.06,3.06v10a3.07,3.07,0,0,0,3.06,3.06h19.8a3.07,3.07,0,0,0,3.07-3.06v-10A3.07,3.07,0,0,0,141.7,6.48ZM119.94,9.54a2,2,0,0,1,2-2h19.8a2,2,0,0,1,2,2v10a2,2,0,0,1-2,2H121.9a2,2,0,0,1-2-2Z"/><path class="cls-1" d="M106.24,12.63v-.09l.28-4.25h6.9V6.44h-8.69l-.58,8.1,4.48.12c2.1,0,3.45,1.22,3.45,3.09s-1.37,3.06-3.5,3.06A3.41,3.41,0,0,1,105,18.45l-1.68,1a5.29,5.29,0,0,0,5.24,3.34c2.63,0,5.46-1.56,5.46-5s-2.78-5-5.37-5Z"/><path class="cls-1" d="M17.88,6.17c-4.89,0-8.12,3.69-8.12,8.34s3,8.31,8,8.31a7.75,7.75,0,0,0,7.08-3.91l-1.81-1.16a5.69,5.69,0,0,1-5.27,3.13,5.89,5.89,0,0,1-5.95-6H25.37v-.58C25.34,9.15,22,6.17,17.88,6.17ZM11.93,13a5.93,5.93,0,0,1,5.88-4.92A5.36,5.36,0,0,1,23.27,13Z"/><polygon class="cls-1" points="0 6.46 0 22.63 2.1 22.63 2.1 8.4 9.7 8.4 9.7 6.46 0 6.46"/><path class="cls-1" d="M93.15,14.29c0-5.14-3.37-8.12-7.5-8.12-4.89,0-8.12,3.69-8.12,8.34s3,8.31,8,8.31a7.75,7.75,0,0,0,7.08-3.91l-1.81-1.16a5.69,5.69,0,0,1-5.27,3.13,5.89,5.89,0,0,1-6-6H93.15ZM79.7,13a5.93,5.93,0,0,1,5.88-4.92A5.36,5.36,0,0,1,91,13Z"/><path class="cls-1" d="M69.45,6.24a6.14,6.14,0,0,0-5.4,2.91A5.25,5.25,0,0,0,59.1,6.24,5.53,5.53,0,0,0,54.35,8.6V6.46h-2.1V22.59h2.1V12.19a4.18,4.18,0,0,1,4.27-4c2.65,0,4.07,2,4.07,4.59v9.82h2.1V12.44a4,4,0,0,1,4.33-4.26c2.59,0,4.11,2,4.11,4.59v9.82h2.1V12.77C75.33,8.79,73.16,6.24,69.45,6.24Z"/><path class="cls-1" d="M41,8.37a7.84,7.84,0,0,0-5.43-2.13,8,8,0,0,0-8.18,8.34,8,8,0,0,0,8.18,8.31A7.67,7.67,0,0,0,41,20.75v1.88h2.07V6.5H41ZM35.44,20.78a6,6,0,0,1-5.95-6.2,6,6,0,0,1,5.95-6.24c3.49,0,5.88,2.46,5.88,6.24S38.93,20.78,35.44,20.78Z"/><rect class="cls-1" x="46.61" width="2.1" height="22.59"/></g></g></svg>