<svg xmlns="http://www.w3.org/2000/svg" viewBox="0 0 130.81 22.9"><title>Asset 1</title><g id="Layer_2" data-name="Layer 2"><g id="Layer_1-2" data-name="Layer 1"><path d="M117.5,11.05l1.71-1a7.85,7.85,0,0,0-6.79-3.77,8.07,8.07,0,0,0-8.29,8.22,8.07,8.07,0,0,0,8.29,8.21,7.81,7.81,0,0,0,6.79-3.79l-1.71-1a5.8,5.8,0,0,1-5.08,2.85,6.12,6.12,0,0,1-6.35-6.3,6.13,6.13,0,0,1,6.35-6.33A5.7,5.7,0,0,1,117.5,11.05Z"/><path d="M127.68,16.3c1.32-1.31,2.83-3.09,2.83-5.2a4.67,4.67,0,0,0-4.88-4.78,5.3,5.3,0,0,0-4.9,3l1.59.94a3.55,3.55,0,0,1,3.34-2.11,2.83,2.83,0,0,1,2.94,3c0,1.47-1.16,2.83-2.29,4l-5.62,5.73V22.4h10.12V20.56H123.4Z"/><path d="M17.89,6.18c-4.89,0-8.12,3.69-8.12,8.35s3,8.31,8.06,8.31a7.75,7.75,0,0,0,7.08-3.91L23.1,17.76a5.68,5.68,0,0,1-5.27,3.14,5.9,5.9,0,0,1-6-6H25.4V14.3C25.36,9.16,22,6.18,17.89,6.18Zm-6,6.86a5.93,5.93,0,0,1,5.89-4.92A5.37,5.37,0,0,1,23.29,13Z"/><polygon points="0 6.47 0 22.64 2.1 22.64 2.1 8.41 9.71 8.41 9.71 6.47 0 6.47"/><path d="M93.22,14.3c0-5.14-3.36-8.12-7.51-8.12-4.88,0-8.12,3.69-8.12,8.35s3,8.31,8.06,8.31a7.75,7.75,0,0,0,7.08-3.91l-1.81-1.17a5.68,5.68,0,0,1-5.27,3.14,5.89,5.89,0,0,1-6-6H93.22ZM79.76,13a5.93,5.93,0,0,1,5.89-4.92A5.38,5.38,0,0,1,91.12,13Z"/><path d="M69.5,6.24a6.15,6.15,0,0,0-5.4,2.92,5.24,5.24,0,0,0-4.95-2.92,5.54,5.54,0,0,0-4.76,2.37V6.47h-2.1V22.61h2.1V12.2a4.19,4.19,0,0,1,4.27-4c2.66,0,4.08,2,4.08,4.6v9.83h2.1V12.46a4,4,0,0,1,4.34-4.28c2.59,0,4.11,2,4.11,4.6v9.83h2.1V12.78C75.39,8.8,73.22,6.24,69.5,6.24Z"/><path d="M41,8.38A7.8,7.8,0,0,0,35.6,6.24a8,8,0,0,0-8.19,8.35A8,8,0,0,0,35.6,22.9,7.67,7.67,0,0,0,41,20.77v1.88H43.1V6.5H41ZM35.47,20.8a6,6,0,0,1-5.95-6.21,6,6,0,0,1,5.95-6.24c3.49,0,5.89,2.46,5.89,6.24S39,20.8,35.47,20.8Z"/><rect x="46.65" width="2.1" height="22.61"/></g></g></svg>