<svg id="Layer_1" data-name="Layer 1" xmlns="http://www.w3.org/2000/svg" viewBox="0 0 843.3089 133.1055"><defs><style>.cls-1{fill:#fff;}</style></defs><title>realme-5-pro-logo</title><path class="cls-1" d="M103.9651,35.9086c-28.3883,0-47.1885,21.4322-47.1885,48.5046,0,26.6963,17.4841,48.3166,46.8127,48.3166,19.3643,0,33.0883-8.8362,41.1724-22.7484l-10.5282-6.7681c-6.3919,10.9042-15.4163,18.2363-30.6442,18.2363-20.3043,0-34.4045-15.7922-34.5925-34.9684h78.5848V83.0971C147.3939,53.2046,128.03,35.9086,103.9651,35.9086ZM69.3726,75.7651a34.476,34.476,0,0,1,34.2163-28.5765c16.3562,0,29.5163,10.9042,31.7722,28.5764Z"/><polygon class="cls-1" points="0 37.6 0 131.602 12.22 131.602 12.22 48.881 56.401 48.881 56.401 37.6 0 37.6"/><path class="cls-1" d="M541.739,83.0969c-.1883-29.8923-19.5523-47.1885-43.6169-47.1885-28.3882,0-47.1886,21.4322-47.1886,48.5046,0,26.6963,17.4844,48.3166,46.8128,48.3166,19.3644,0,33.0884-8.8362,41.1726-22.7484l-10.5283-6.7681c-6.392,10.9042-15.4163,18.2363-30.6443,18.2363-20.3041,0-34.4043-15.7922-34.5926-34.9684H541.739ZM463.53,75.7649a34.4758,34.4758,0,0,1,34.2166-28.5764c16.3562,0,29.5165,10.9042,31.7723,28.5764Z"/><path class="cls-1" d="M403.904,36.2844c-12.9722,0-24.6284,5.8281-31.3965,16.92-5.076-9.7762-14.288-16.92-28.7642-16.92-11.0921,0-21.2442,4.3241-27.6363,13.7242V37.6h-12.22v93.8131h12.22V70.8768c0-14.1,12.7841-23.3123,24.8164-23.3123,15.4163,0,23.6882,11.4682,23.6882,26.6963v57.1527h12.22V72.3808c0-18.2362,13.3481-24.8163,25.1923-24.8163,15.04,0,23.8763,11.4682,23.8763,26.6963v57.1527h12.22V74.2608C438.1205,51.1365,425.5244,36.2844,403.904,36.2844Z"/><path class="cls-1" d="M238.462,48.6925a45.4537,45.4537,0,0,0-31.5844-12.4081c-27.8243,0-47.5646,21.0562-47.5646,48.5045s19.74,48.3166,47.5646,48.3166c12.22,0,23.6883-4.512,31.5844-12.4082v10.9042h12.0322V37.7886H238.462Zm-32.3365,72.1929c-20.3041,0-34.5924-16.1682-34.5924-36.0965,0-20.1162,14.2883-36.2844,34.5924-36.2844S240.342,62.7927,240.342,84.7889C240.342,106.5973,226.43,120.8854,206.1255,120.8854Z"/><rect class="cls-1" x="271.0803" width="12.2202" height="131.4136"/><path class="cls-1" d="M736.1389,57.1817h-16.991v50.8242h6.3782V87.14h10.6128c10.0472,0,17.0655-6.1453,17.0655-14.9437C753.204,63.3534,746.1857,57.1817,736.1389,57.1817Zm0,24.0248H725.5266V63.1106h10.6123c6.5491,0,10.6163,3.4832,10.6163,9.0855C746.7547,77.7542,742.6876,81.2065,736.1389,81.2065Z"/><path class="cls-1" d="M765.9271,75.9353V71.9334h-5.9489v36.0725h5.9489V84.6919c1.3476-5.0129,4.227-7.249,9.3271-7.249h3.6178V71.5846h-3.0472C771.7689,71.5846,767.9536,73.313,765.9271,75.9353Z"/><path class="cls-1" d="M800.0659,71.2337c-10.9109,0-19.1388,8.0546-19.1388,18.7359,0,10.6836,8.2279,18.7382,19.1388,18.7382s19.1389-8.0546,19.1389-18.7382C819.2048,79.2886,810.9763,71.2337,800.0659,71.2337Zm0,31.9646c-7.5579,0-13.0448-5.5648-13.0448-13.2287S792.508,76.741,800.0659,76.741,813.11,82.3057,813.11,89.97s-5.4865,13.229-13.0444,13.229Z"/><path class="cls-1" d="M825.489,35.9737H710.3344A17.8347,17.8347,0,0,0,692.5209,53.79v58.3118a17.8342,17.8342,0,0,0,17.8135,17.8136H825.489a17.8374,17.8374,0,0,0,17.82-17.8136V53.79A17.838,17.838,0,0,0,825.489,35.9737ZM698.907,53.79a11.4427,11.4427,0,0,1,11.4273-11.43H825.489a11.4433,11.4433,0,0,1,11.43,11.43v58.3118a11.4425,11.4425,0,0,1-11.43,11.4273H710.3344a11.4419,11.4419,0,0,1-11.4272-11.4273Z"/><path class="cls-1" d="M619.2659,71.7759l.0315-.5158,1.6045-24.7526h40.14V35.7886h-50.526l-3.3846,47.1125,26.05.6929c12.21,0,20.0984,7.0454,20.0984,17.95,0,10.8229-8.0016,17.818-20.3752,17.818-10.53,0-18.0414-4.9978-20.7149-13.7355l-9.7314,5.5452c4.2712,12.0087,15.8962,19.4474,30.4464,19.4474,15.2987,0,31.7675-9.0962,31.7675-29.0751s-16.1857-29.0751-31.2265-29.0751Z"/></svg>