<svg data-name="图层 1" xmlns="http://www.w3.org/2000/svg" viewBox="0 0 269.8 54.14"><title>RM-5-logo</title><path d="M251.33 29.88v-.21l.65-10.07h16.33v-4.32h-20.54l-1.38 19.16 10.6.28c5 0 8.17 2.87 8.17 7.3s-3.25 7.25-8.29 7.25c-4.28 0-7.34-2-8.43-5.59l-4 2.26c1.74 4.88 6.47 7.91 12.38 7.91 6.22 0 12.92-3.7 12.92-11.83s-6.58-11.83-12.7-11.83zM42.29 14.61c-11.55 0-19.19 8.72-19.19 19.73 0 10.86 7.11 19.65 19 19.65 7.88 0 13.46-3.59 16.75-9.25l-4.26-2.76c-2.6 4.44-6.27 7.42-12.46 7.42-8.26 0-14-6.42-14.07-14.22h32V33.8c-.11-12.16-7.98-19.19-17.77-19.19zM28.22 30.82A14 14 0 0 1 42.14 19.2c6.65 0 12 4.44 12.92 11.62zM0 15.29v38.24h4.97V19.88h17.97v-4.59H0zM220.35 33.8c-.08-12.16-8-19.19-17.74-19.19-11.55 0-19.19 8.72-19.19 19.73 0 10.86 7.11 19.65 19 19.65 7.88 0 13.46-3.59 16.75-9.25l-4.28-2.75c-2.6 4.44-6.27 7.42-12.46 7.42-8.26 0-14-6.42-14.07-14.22h32zm-31.81-3a14 14 0 0 1 13.92-11.62c6.65 0 12 4.44 12.92 11.62zm-24.26-16.04a14.54 14.54 0 0 0-12.77 6.88c-2.06-4-5.81-6.88-11.7-6.88a13.08 13.08 0 0 0-11.22 5.58v-5.06h-5v38.16h5V28.83c0-5.74 5.2-9.48 10.09-9.48 6.27 0 9.63 4.66 9.63 10.86v23.25h5v-24c0-7.42 5.43-10.09 10.25-10.09 6.12 0 9.71 4.66 9.71 10.86v23.25h5V30.21c-.07-9.41-5.19-15.45-13.99-15.45zm-67.29 5.05a18.49 18.49 0 0 0-12.85-5c-11.32 0-19.35 8.56-19.35 19.73s8 19.65 19.35 19.65a18.15 18.15 0 0 0 12.85-5v4.44h4.89V15.37h-4.89zM83.84 49.17c-8.26 0-14.07-6.58-14.07-14.68s5.82-14.76 14.07-14.76 13.92 5.81 13.92 14.76-5.66 14.68-13.92 14.68zM110.26 0h4.97v53.45h-4.97z"/></svg>