<?xml version="1.0" encoding="UTF-8"?>
<svg width="618px" height="289px" viewBox="0 0 618 289" version="1.1" xmlns="http://www.w3.org/2000/svg" xmlns:xlink="http://www.w3.org/1999/xlink">
    <!-- Generator: Sketch 56.3 (81716) - https://sketch.com -->
    <title>编组 5</title>
    <desc>Created with Sketch.</desc>
    <g id="页面-1" stroke="none" stroke-width="1" fill="none" fill-rule="evenodd">
        <g id="编组-5" transform="translate(-0.006677, -0.418635)" fill="#979797" fill-rule="nonzero">
            <path d="M43.9430357,2.41863545 L576.712251,2.41863545 C588.967649,2.21954901 598.782052,5.62785791 606.15546,12.6435622 C613.528868,19.6592664 617.479274,29.2037715 618.006677,41.2770776 L618.006677,54.00062 L618.006677,242.951473 C617.846589,254.225544 614.805678,264.158537 608.883946,272.750451 C602.962214,281.342365 592.610964,285.898434 577.830196,286.418658 L40.7604249,286.418658 C25.4519875,285.532094 14.7911235,281.287206 8.77783294,273.683992 C2.76454237,266.080779 -0.159176119,256.138553 0.00667748225,243.857314 L0.00667748225,46.1623979 C0.207990597,32.050439 3.867081,21.2318223 10.9839487,13.7065475 C18.1008164,6.18127282 29.0871787,2.41863545 43.9430357,2.41863545 Z M43.9430357,3.41863545 C29.3403425,3.41863545 18.6164848,7.09136956 11.7104959,14.3936641 C4.78247378,21.7192562 1.20456286,32.2978544 1.00667748,46.1623979 L1.00658631,243.870817 C0.843662828,255.935085 3.70156514,265.6535 9.56217588,273.063665 C15.3713106,280.408743 25.7688109,284.548767 40.7604249,285.419277 L577.795022,285.419277 C592.284934,284.90929 602.339421,280.48384 608.060567,272.18296 C613.867613,263.757445 616.849443,254.017436 617.00763,242.951473 L617.00763,54.00062 L617.00763,41.3207194 C616.491028,29.4946696 612.642448,20.1961854 605.466144,13.3680233 C598.293422,6.54326883 588.733911,3.22347797 576.712251,3.41863545 L43.9430357,3.41863545 Z" id="矩形"></path>
            <path d="M12.7291867,16.405026 C15.2461395,13.6160537 19.118968,11.0877456 24.3476721,8.82010155 C29.5763762,6.55245749 35.4435709,5.41863545 41.9492562,5.41863545 L573.246807,5.41863545 C585.631499,4.82368879 595.520984,7.91798321 602.915261,14.7015187 C610.309539,21.4850542 614.006677,31.0243143 614.006677,43.3192991 L614.006677,55.7292331 L614.006677,241.60766 C613.98783,254.592772 610.761613,264.878544 604.328027,272.464974 C597.89444,280.051404 586.464677,283.369812 570.038738,282.420199 L45.1267412,282.418635 C29.3441474,282.415827 18.5449626,278.869669 12.7291867,271.780162 C6.91341076,264.690654 4.0055228,254.727146 4.0055228,241.889637 L4.0055228,43.6166874 C4.29723311,37.4685718 5.07585441,32.2315456 6.3413867,27.9056087 C7.606919,23.5796718 9.73618565,19.7461442 12.7291867,16.405026 Z M7.30115972,28.1863857 C6.05982076,32.4296232 5.29259727,37.5899875 5.0055228,43.6166874 L5.0055228,241.889637 C5.0055228,254.512707 7.84851355,264.253854 13.5023272,271.145927 C19.0929046,277.960915 29.6143648,281.415875 45.1267441,281.418635 L570.096453,281.421866 C586.239413,282.35512 597.370142,279.12353 603.56535,271.818194 C609.833621,264.426703 612.988153,254.369475 613.006677,241.60766 L613.006677,43.3192991 C613.006677,31.2901658 609.41407,22.0206145 602.239242,15.4384024 C595.054445,8.84704501 585.426796,5.8346757 573.246807,6.41863545 L41.9492562,6.41863545 C35.5761155,6.41863545 29.844134,7.52632785 24.7455561,9.73753728 C19.6385877,11.9523856 15.8820682,14.4045725 13.4728031,17.0736351 C10.5801574,20.3031236 8.52466528,24.0041078 7.30115972,28.1863857 Z" id="矩形"></path>
            <path d="M603.94691,185.733423 L603.94691,172.088136 C604.031685,168.231727 602.402819,164.580335 599.083896,161.162873 C598.86093,160.933288 598.037792,160.087658 598.093422,160.144843 C597.691989,159.732187 597.388878,159.419519 597.092739,159.112119 C591.213547,153.009359 588.638927,149.145714 588.638927,145.014564 C588.638927,139.988069 591.020842,136.187803 597.096083,130.282706 C597.647705,129.746533 598.157222,129.221863 598.627935,128.704971 C602.483727,124.470906 603.94691,120.571805 603.94691,114.903471 L603.94691,45.246254 C603.94691,33.6741528 601.863246,25.8704786 597.644909,21.8363334 C591.343495,15.8066853 585.180825,13.7201108 573.519612,13.7201108 L50.5124533,13.7201108 C46.4136113,13.7201108 43.2426239,13.999951 40.9903006,14.5647249 C36.9073891,15.5858202 33.7301035,17.2524786 30.5105109,20.4509491 C26.5046772,24.4305027 24.3204365,29.7958029 23.9544807,36.5217507 L23.9537422,252.602838 C23.8307446,258.65655 25.3183094,263.705761 28.422101,267.7211 C30.4252373,270.312534 33.591115,272.545308 37.2479355,273.808354 C39.8122658,274.69406 42.9128175,275.134755 46.550428,275.134755 L575.137186,275.134755 C584.262333,275.260134 591.084432,273.040595 595.566936,268.453837 C601.337486,262.549075 603.126594,256.042521 603.126594,245.846169 C603.126594,240.703468 603.398909,220.665279 603.94691,185.741218 L603.94691,185.733423 Z M602.126594,245.846169 C602.126594,255.806404 600.403061,262.074479 594.851748,267.754905 C590.583216,272.122714 584.023878,274.256765 575.144053,274.134803 L46.550428,274.134755 C43.0169379,274.134755 40.0246511,273.709448 37.5744051,272.863146 C34.0989926,271.662758 31.0954767,269.544492 29.2132879,267.109526 C26.2567009,263.284624 24.8349641,258.458851 24.9536392,252.612986 L24.9537422,36.5489153 C25.3061178,30.0861531 27.3946482,24.9559525 31.2152868,21.1603792 C34.2988909,18.097005 37.3157772,16.5144847 41.2332204,15.5347712 C43.3924656,14.9933369 46.4885061,14.7201108 50.5124533,14.7201108 L573.519612,14.7201108 C584.939861,14.7201108 590.854295,16.722637 596.953655,22.5589456 C600.927661,26.3594278 602.943514,33.9214643 602.943514,45.246254 L602.943514,114.903471 C602.943514,120.326584 601.573929,123.984754 597.888572,128.031664 C597.431915,128.533122 596.936511,129.043259 596.399089,129.56563 C590.146239,135.643362 587.638927,139.643693 587.638927,145.014564 C587.638927,149.503621 590.311722,153.514594 596.372564,159.805911 C596.670028,160.114687 596.974167,160.428415 597.376635,160.842135 C597.32138,160.785335 598.144029,161.630462 598.366523,161.859562 C601.508744,165.095076 603.025415,168.494963 602.943644,172.076724 L602.943514,185.733423 C602.398892,220.658542 602.126594,240.695517 602.126594,245.846169 Z" id="路径-21"></path>
            <path d="M285.290857,147.418635 L283.867029,147.418635 L283.867029,138.260432 C283.867029,137.49871 283.890466,136.778014 283.937342,136.098323 C283.814294,136.22137 283.6766,136.350275 283.524256,136.485042 C283.371911,136.619808 282.674652,137.191091 281.432459,138.198909 L280.659021,137.196956 L284.060388,134.569026 L285.290857,134.569026 L285.290857,147.418635 Z M290.32699,141.925471 C290.32699,139.400068 290.817708,137.511903 291.799158,136.260921 C292.780608,135.009938 294.232254,134.384456 296.154138,134.384456 C296.816251,134.384456 297.33773,134.440119 297.718592,134.551448 L297.718592,135.808284 C297.267417,135.661799 296.751798,135.588557 296.171717,135.588557 C294.794757,135.588557 293.743009,136.017752 293.016443,136.876155 C292.289877,137.734558 291.891443,139.083665 291.821131,140.923518 L291.926599,140.923518 C292.571134,139.915701 293.590655,139.4118 294.985193,139.4118 C296.139496,139.4118 297.049155,139.760429 297.714197,140.457698 C298.379239,141.154967 298.711756,142.101247 298.711756,143.296565 C298.711756,144.632509 298.347013,145.682792 297.617517,146.447444 C296.888021,147.212096 295.902192,147.594417 294.659998,147.594417 C293.329913,147.594417 292.275236,147.09491 291.495935,146.095882 C290.716635,145.096853 290.32699,143.70673 290.32699,141.925471 Z M294.64242,146.355159 C295.474455,146.355159 296.120445,146.092954 296.580408,145.568538 C297.040371,145.044121 297.270349,144.286804 297.270349,143.296565 C297.270349,142.446952 297.056484,141.778989 296.628748,141.292659 C296.201011,140.806328 295.562346,140.563167 294.712732,140.563167 C294.185386,140.563167 293.701992,140.671564 293.262537,140.888362 C292.823082,141.10516 292.472987,141.403985 292.212244,141.784846 C291.9515,142.165708 291.821131,142.561212 291.821131,142.97137 C291.821131,143.574888 291.938317,144.137383 292.172693,144.65887 C292.407069,145.180357 292.739585,145.593439 293.170252,145.898128 C293.600918,146.202817 294.091636,146.355159 294.64242,146.355159 Z M300.926599,146.486995 C300.926599,146.094415 301.015954,145.797054 301.194666,145.594905 C301.373378,145.392756 301.629723,145.291682 301.963709,145.291682 C302.303554,145.291682 302.568688,145.392756 302.759119,145.594905 C302.94955,145.797054 303.044763,146.094415 303.044763,146.486995 C303.044763,146.867856 302.948085,147.160822 302.754724,147.365901 C302.561364,147.57098 302.297695,147.673518 301.963709,147.673518 C301.664879,147.673518 301.417323,147.581234 301.221033,147.396663 C301.024743,147.212092 300.926599,146.908872 300.926599,146.486995 Z M309.276209,139.570003 C310.629731,139.570003 311.694662,139.905449 312.471033,140.57635 C313.247404,141.247252 313.635584,142.1657 313.635584,143.331721 C313.635584,144.661806 313.212248,145.704764 312.365564,146.460628 C311.51888,147.216491 310.351411,147.594417 308.863123,147.594417 C307.41585,147.594417 306.311369,147.362974 305.549646,146.900081 L305.549646,145.493831 C305.959805,145.757504 306.469565,145.964045 307.078943,146.11346 C307.688321,146.262874 308.288901,146.337581 308.880701,146.337581 C309.911956,146.337581 310.713218,146.094419 311.28451,145.608089 C311.855801,145.121758 312.141443,144.41864 312.141443,143.498714 C312.141443,141.705736 311.042821,140.80926 308.845545,140.80926 C308.288901,140.80926 307.544768,140.894221 306.613123,141.064143 L305.857263,140.580745 L306.340662,134.569026 L312.73031,134.569026 L312.73031,135.913753 L307.588709,135.913753 L307.263513,139.772151 C307.937345,139.637385 308.608237,139.570003 309.276209,139.570003 Z M320.069177,147.594417 C318.674639,147.594417 317.59506,147.165222 316.830408,146.306819 C316.065756,145.448416 315.683435,144.234073 315.683435,142.663753 C315.683435,141.052416 316.071615,139.807312 316.847986,138.928401 C317.624357,138.04949 318.730303,137.610042 320.165857,137.610042 C320.62875,137.610042 321.091636,137.659846 321.554529,137.759456 C322.017422,137.859066 322.3807,137.976252 322.644373,138.111018 L322.196131,139.350276 C321.873863,139.221369 321.522304,139.114437 321.141443,139.029475 C320.760582,138.944514 320.423671,138.902034 320.130701,138.902034 C318.17366,138.902034 317.195154,140.150068 317.195154,142.646175 C317.195154,143.829774 317.433921,144.737968 317.911463,145.370784 C318.389004,146.0036 319.096517,146.320003 320.034021,146.320003 C320.83676,146.320003 321.659994,146.147153 322.503748,145.801448 L322.503748,147.09344 C321.859213,147.427426 321.047698,147.594417 320.069177,147.594417 Z M337.067224,147.418635 L337.067224,141.152034 C337.067224,140.384452 336.903163,139.808774 336.575037,139.424983 C336.24691,139.041192 335.73715,138.8493 335.04574,138.8493 C334.137532,138.8493 333.466641,139.110042 333.033045,139.631526 C332.599449,140.153013 332.382654,140.955739 332.382654,142.039729 L332.382654,147.418635 L330.92367,147.418635 L330.92367,141.152034 C330.92367,140.384452 330.759609,139.808774 330.431482,139.424983 C330.103356,139.041192 329.590665,138.8493 328.893396,138.8493 C327.979329,138.8493 327.309902,139.123223 326.885095,139.671077 C326.460289,140.218931 326.247888,141.116871 326.247888,142.364925 L326.247888,147.418635 L324.788904,147.418635 L324.788904,137.785823 L325.975427,137.785823 L326.212732,139.104182 L326.283045,139.104182 C326.558437,138.63543 326.946616,138.269223 327.447595,138.00555 C327.948575,137.741876 328.509604,137.610042 329.130701,137.610042 C330.636568,137.610042 331.620933,138.154958 332.083826,139.244807 L332.154138,139.244807 C332.441249,138.740899 332.857261,138.342465 333.402185,138.049495 C333.94711,137.756525 334.568197,137.610042 335.265467,137.610042 C336.355316,137.610042 337.171226,137.889824 337.71322,138.449397 C338.255215,139.00897 338.526209,139.903981 338.526209,141.134456 L338.526209,147.418635 L337.067224,147.418635 Z" id="16.5cm"></path>
            <path d="M601.006677,148.918635 C603.491959,148.918635 605.506677,146.903917 605.506677,144.418635 C605.506677,141.933354 603.491959,139.918635 601.006677,139.918635 C598.521396,139.918635 596.506677,141.933354 596.506677,144.418635 C596.506677,146.903917 598.521396,148.918635 601.006677,148.918635 Z M601.006677,147.918635 C599.073681,147.918635 597.506677,146.351632 597.506677,144.418635 C597.506677,142.485639 599.073681,140.918635 601.006677,140.918635 C602.939674,140.918635 604.506677,142.485639 604.506677,144.418635 C604.506677,146.351632 602.939674,147.918635 601.006677,147.918635 Z" id="椭圆形"></path>
            <path d="M601.006677,145.918635 C601.835105,145.918635 602.506677,145.247063 602.506677,144.418635 C602.506677,143.590208 601.835105,142.918635 601.006677,142.918635 C600.17825,142.918635 599.506677,143.590208 599.506677,144.418635 C599.506677,145.247063 600.17825,145.918635 601.006677,145.918635 Z M601.006677,144.918635 C600.730535,144.918635 600.506677,144.694778 600.506677,144.418635 C600.506677,144.142493 600.730535,143.918635 601.006677,143.918635 C601.28282,143.918635 601.506677,144.142493 601.506677,144.418635 C601.506677,144.694778 601.28282,144.918635 601.006677,144.918635 Z" id="椭圆形"></path>
            <path d="M427.431405,287.130475 L427.556412,286.799747 L427.431405,286.941486 L427.431405,287.130475 Z M426.971052,287.463452 L383.97836,287.463452 L383.097628,286.562647 L383.097628,285.685056 L382.097628,285.685056 L382.097628,286.970276 L383.557531,288.463452 L427.422454,288.463452 L428.431405,287.319464 L428.431405,285.685056 L427.431405,285.685056 L427.431405,286.941486 L426.971052,287.463452 Z M426.821761,287.632724 L427.196753,287.463452 L426.971052,287.463452 L426.821761,287.632724 Z" id="路径-23"></path>
            <polygon id="路径-24" points="366.135827 1.5 402.734657 1.5 403.193512 1.97380532 403.193512 2.41039501 404.193512 2.41039501 404.193512 1.56895017 403.158291 0.5 365.730865 0.5 364.637128 1.55961479 364.637128 2.83533556 365.637128 2.83533556 365.637128 1.9831407"></polygon>
            <polygon id="路径-24" points="413.005376 1.5 449.604206 1.5 450.063061 1.97380532 450.063061 2.41039501 451.063061 2.41039501 451.063061 1.56895017 450.027841 0.5 412.600414 0.5 411.506677 1.55961479 411.506677 2.83533556 412.506677 2.83533556 412.506677 1.9831407"></polygon>
            <polygon id="路径-25" points="597.100618 21.7388715 355.307963 126.459819 355.705392 127.377452 597.498047 22.6565045"></polygon>
            <polygon id="路径-25" points="266.305448 162.460917 28.6164647 266.957594 29.0189242 267.873032 266.707907 163.376354"></polygon>
            <path d="M613.21863,102.605143 L611.849021,103.463039 C611.119269,103.920142 610.676121,104.720626 610.676121,105.581719 L610.676121,183.155516 C610.676121,183.983795 611.086357,184.758305 611.771555,185.223654 L613.203137,186.195906 L613.764963,185.368651 L612.333381,184.396399 C611.922263,184.117189 611.676121,183.652483 611.676121,183.155516 L611.676121,105.581719 C611.676121,105.065063 611.94201,104.584773 612.379861,104.310511 L613.74947,103.452615 L613.21863,102.605143 Z" id="路径-22"></path>
        </g>
    </g>
</svg>