<?xml version="1.0" encoding="UTF-8"?>
<svg width="256px" height="231px" viewBox="0 0 256 231" version="1.1" xmlns="http://www.w3.org/2000/svg" xmlns:xlink="http://www.w3.org/1999/xlink">
    <!-- Generator: Sketch 56.3 (81716) - https://sketch.com -->
    <title>编组 4</title>
    <desc>Created with Sketch.</desc>
    <g id="页面-1" stroke="none" stroke-width="1" fill="none" fill-rule="evenodd">
        <g id="编组-4" transform="translate(1.000000, 1.302156)" fill="#979797" fill-rule="nonzero">
            <path d="M76,50.6978439 C78.209139,50.6978439 80,52.4887049 80,54.6978439 L80,61.6978439 C80,63.9069829 78.209139,65.6978439 76,65.6978439 C73.790861,65.6978439 72,63.9069829 72,61.6978439 L72,54.6978439 C72,52.4887049 73.790861,50.6978439 76,50.6978439 Z M76,51.6978439 C74.3431458,51.6978439 73,53.0409896 73,54.6978439 L73,61.6978439 C73,63.3546981 74.3431458,64.6978439 76,64.6978439 C77.6568542,64.6978439 79,63.3546981 79,61.6978439 L79,54.6978439 C79,53.0409896 77.6568542,51.6978439 76,51.6978439 Z" id="矩形"></path>
            <path d="M127,151.197844 C136.664983,151.197844 144.5,143.362827 144.5,133.697844 C144.5,124.032861 136.664983,116.197844 127,116.197844 C117.335017,116.197844 109.5,124.032861 109.5,133.697844 C109.5,143.362827 117.335017,151.197844 127,151.197844 Z M127,150.197844 C117.887302,150.197844 110.5,142.810542 110.5,133.697844 C110.5,124.585145 117.887302,117.197844 127,117.197844 C136.112698,117.197844 143.5,124.585145 143.5,133.697844 C143.5,142.810542 136.112698,150.197844 127,150.197844 Z" id="椭圆形"></path>
            <path d="M127,153.197844 C137.769553,153.197844 146.5,144.467396 146.5,133.697844 C146.5,122.928291 137.769553,114.197844 127,114.197844 C116.230447,114.197844 107.5,122.928291 107.5,133.697844 C107.5,144.467396 116.230447,153.197844 127,153.197844 Z M127,152.197844 C116.782732,152.197844 108.5,143.915112 108.5,133.697844 C108.5,123.480576 116.782732,115.197844 127,115.197844 C137.217268,115.197844 145.5,123.480576 145.5,133.697844 C145.5,143.915112 137.217268,152.197844 127,152.197844 Z" id="椭圆形"></path>
            <path d="M3.068292,228.697844 L3.068292,43.0441664 C3.07780497,38.9431476 3.16502909,35.915347 3.32920875,33.9676556 C4.18572914,23.8066075 7.24144366,15.8240605 12.4852331,10.3139803 C18.6982761,3.78542568 29.547842,0.543142605 45.053907,0.6274101 L212.692376,0.627417484 C226.820031,0.543259496 236.935772,4.06144649 243.078621,11.1543345 C247.747528,16.5453243 249.982772,22.3108555 250.687826,31.0226576 C250.68917,31.0392677 250.688819,31.0647255 250.685527,31.1618263 C250.680654,31.3055325 250.680199,31.4002038 250.686983,31.5210252 L250.690547,31.5860798 C250.708491,31.9213218 250.727031,32.3801515 250.752348,33.0976555 C250.765363,33.4665226 250.820372,35.088478 250.833281,35.4616234 C250.877561,36.7415371 250.940046,39.2733149 251.020659,43.0548229 L251.020546,229.519629 L252.020546,229.519629 L252.020546,43.0441664 C251.939725,39.2476084 251.877167,36.7128324 251.832683,35.4270478 C251.819796,35.0545281 251.764771,33.4320858 251.751726,33.0623931 C251.726206,32.3391194 251.707478,31.8756638 251.689118,31.5326332 L251.68541,31.4649658 C251.680683,31.3807794 251.681015,31.3118455 251.684952,31.195715 C251.689896,31.049916 251.690391,31.0139615 251.684567,30.9419905 C250.963053,22.0268001 248.649513,16.0593157 243.834538,10.499667 C237.47498,3.15655401 227.081253,-0.458314507 212.689397,-0.374197161 L45.0566242,-0.374197161 C29.3039451,-0.458197616 18.1977854,2.86076592 11.7608387,9.62459448 C6.34433385,15.316161 3.20702919,23.5118487 2.33274271,33.883659 C2.16576417,35.864554 2.0778658,38.9157595 2.068292,43.0430067 L2.068292,228.697844 L3.068292,228.697844 Z" id="路径-26"></path>
            <path d="M6.53987475,228.697844 L6.53987475,39.415844 C6.61777546,26.3490971 9.61808365,17.1850022 15.5042605,11.9002879 C21.4057857,6.60179362 30.9656366,3.936793 44.1957368,3.936793 L211.73117,3.936793 C224.980976,3.936793 234.387664,6.9458318 239.976636,12.9302011 C245.570683,18.9200054 248.133445,28.3448954 247.634717,41.2267393 L247.634343,229.519629 L248.634343,229.519629 L248.634343,41.2460826 C249.142104,28.1405711 246.510007,18.46069 240.707474,12.2476505 C234.899865,6.02917607 225.232631,2.936793 211.73117,2.936793 L44.1957368,2.936793 C30.7416183,2.936793 20.9511293,5.66608864 14.8361934,11.1561869 C8.70590912,16.6600651 5.61931585,26.0877079 5.53987475,39.4128635 L5.53987475,228.697844 L6.53987475,228.697844 Z" id="路径-27"></path>
            <path d="M44.5,19.6978439 C54.7172679,19.6978439 63,27.980576 63,38.1978439 L63,140.197844 C63,150.415112 54.7172679,158.697844 44.5,158.697844 C34.2827321,158.697844 26,150.415112 26,140.197844 L26,38.1978439 C26,27.980576 34.2827321,19.6978439 44.5,19.6978439 Z M44.5,20.6978439 C34.8350169,20.6978439 27,28.5328607 27,38.1978439 L27,140.197844 C27,149.862827 34.8350169,157.697844 44.5,157.697844 C54.1649831,157.697844 62,149.862827 62,140.197844 L62,38.1978439 C62,28.5328607 54.1649831,20.6978439 44.5,20.6978439 Z" id="矩形"></path>
            <path d="M44.5,22.6978439 C53.0604136,22.6978439 60,29.6374302 60,38.1978439 L60,140.197844 C60,148.758257 53.0604136,155.697844 44.5,155.697844 C35.9395864,155.697844 29,148.758257 29,140.197844 L29,38.1978439 C29,29.6374302 35.9395864,22.6978439 44.5,22.6978439 Z M44.5,23.6978439 C36.4918711,23.6978439 30,30.189715 30,38.1978439 L30,140.197844 C30,148.205973 36.4918711,154.697844 44.5,154.697844 C52.5081289,154.697844 59,148.205973 59,140.197844 L59,38.1978439 C59,30.189715 52.5081289,23.6978439 44.5,23.6978439 Z" id="矩形"></path>
            <path d="M44.5,48.1978439 C49.4705627,48.1978439 53.5,44.1684066 53.5,39.1978439 C53.5,34.2272811 49.4705627,30.1978439 44.5,30.1978439 C39.5294373,30.1978439 35.5,34.2272811 35.5,39.1978439 C35.5,44.1684066 39.5294373,48.1978439 44.5,48.1978439 Z M44.5,47.1978439 C40.081722,47.1978439 36.5,43.6161218 36.5,39.1978439 C36.5,34.7795659 40.081722,31.1978439 44.5,31.1978439 C48.918278,31.1978439 52.5,34.7795659 52.5,39.1978439 C52.5,43.6161218 48.918278,47.1978439 44.5,47.1978439 Z" id="椭圆形"></path>
            <path d="M44.5,88.1978439 C49.4705627,88.1978439 53.5,84.1684066 53.5,79.1978439 C53.5,74.2272811 49.4705627,70.1978439 44.5,70.1978439 C39.5294373,70.1978439 35.5,74.2272811 35.5,79.1978439 C35.5,84.1684066 39.5294373,88.1978439 44.5,88.1978439 Z M44.5,87.1978439 C40.081722,87.1978439 36.5,83.6161218 36.5,79.1978439 C36.5,74.7795659 40.081722,71.1978439 44.5,71.1978439 C48.918278,71.1978439 52.5,74.7795659 52.5,79.1978439 C52.5,83.6161218 48.918278,87.1978439 44.5,87.1978439 Z" id="椭圆形"></path>
            <path d="M44.5,120.197844 C49.4705627,120.197844 53.5,116.168407 53.5,111.197844 C53.5,106.227281 49.4705627,102.197844 44.5,102.197844 C39.5294373,102.197844 35.5,106.227281 35.5,111.197844 C35.5,116.168407 39.5294373,120.197844 44.5,120.197844 Z M44.5,119.197844 C40.081722,119.197844 36.5,115.616122 36.5,111.197844 C36.5,106.779566 40.081722,103.197844 44.5,103.197844 C48.918278,103.197844 52.5,106.779566 52.5,111.197844 C52.5,115.616122 48.918278,119.197844 44.5,119.197844 Z" id="椭圆形"></path>
            <path d="M44.5,149.197844 C49.4705627,149.197844 53.5,145.168407 53.5,140.197844 C53.5,135.227281 49.4705627,131.197844 44.5,131.197844 C39.5294373,131.197844 35.5,135.227281 35.5,140.197844 C35.5,145.168407 39.5294373,149.197844 44.5,149.197844 Z M44.5,148.197844 C40.081722,148.197844 36.5,144.616122 36.5,140.197844 C36.5,135.779566 40.081722,132.197844 44.5,132.197844 C48.918278,132.197844 52.5,135.779566 52.5,140.197844 C52.5,144.616122 48.918278,148.197844 44.5,148.197844 Z" id="椭圆形"></path>
            <path d="M44.5,143.197844 C46.1568542,143.197844 47.5,141.854698 47.5,140.197844 C47.5,138.54099 46.1568542,137.197844 44.5,137.197844 C42.8431458,137.197844 41.5,138.54099 41.5,140.197844 C41.5,141.854698 42.8431458,143.197844 44.5,143.197844 Z M44.5,142.197844 C43.3954305,142.197844 42.5,141.302413 42.5,140.197844 C42.5,139.093274 43.3954305,138.197844 44.5,138.197844 C45.6045695,138.197844 46.5,139.093274 46.5,140.197844 C46.5,141.302413 45.6045695,142.197844 44.5,142.197844 Z" id="椭圆形"></path>
            <path d="M44.5,114.197844 C46.1568542,114.197844 47.5,112.854698 47.5,111.197844 C47.5,109.54099 46.1568542,108.197844 44.5,108.197844 C42.8431458,108.197844 41.5,109.54099 41.5,111.197844 C41.5,112.854698 42.8431458,114.197844 44.5,114.197844 Z M44.5,113.197844 C43.3954305,113.197844 42.5,112.302413 42.5,111.197844 C42.5,110.093274 43.3954305,109.197844 44.5,109.197844 C45.6045695,109.197844 46.5,110.093274 46.5,111.197844 C46.5,112.302413 45.6045695,113.197844 44.5,113.197844 Z" id="椭圆形"></path>
            <path d="M44.5,84.1978439 C47.2614237,84.1978439 49.5,81.9592676 49.5,79.1978439 C49.5,76.4364201 47.2614237,74.1978439 44.5,74.1978439 C41.7385763,74.1978439 39.5,76.4364201 39.5,79.1978439 C39.5,81.9592676 41.7385763,84.1978439 44.5,84.1978439 Z M44.5,83.1978439 C42.290861,83.1978439 40.5,81.4069829 40.5,79.1978439 C40.5,76.9887049 42.290861,75.1978439 44.5,75.1978439 C46.709139,75.1978439 48.5,76.9887049 48.5,79.1978439 C48.5,81.4069829 46.709139,83.1978439 44.5,83.1978439 Z" id="椭圆形"></path>
            <path d="M44.5,81.1978439 C45.6045695,81.1978439 46.5,80.3024134 46.5,79.1978439 C46.5,78.0932744 45.6045695,77.1978439 44.5,77.1978439 C43.3954305,77.1978439 42.5,78.0932744 42.5,79.1978439 C42.5,80.3024134 43.3954305,81.1978439 44.5,81.1978439 Z M44.5,80.1978439 C43.9477153,80.1978439 43.5,79.7501286 43.5,79.1978439 C43.5,78.6455591 43.9477153,78.1978439 44.5,78.1978439 C45.0522847,78.1978439 45.5,78.6455591 45.5,79.1978439 C45.5,79.7501286 45.0522847,80.1978439 44.5,80.1978439 Z" id="椭圆形"></path>
            <path d="M44.5,44.1978439 C47.2614237,44.1978439 49.5,41.9592676 49.5,39.1978439 C49.5,36.4364201 47.2614237,34.1978439 44.5,34.1978439 C41.7385763,34.1978439 39.5,36.4364201 39.5,39.1978439 C39.5,41.9592676 41.7385763,44.1978439 44.5,44.1978439 Z M44.5,43.1978439 C42.290861,43.1978439 40.5,41.4069829 40.5,39.1978439 C40.5,36.9887049 42.290861,35.1978439 44.5,35.1978439 C46.709139,35.1978439 48.5,36.9887049 48.5,39.1978439 C48.5,41.4069829 46.709139,43.1978439 44.5,43.1978439 Z" id="椭圆形"></path>
            <path d="M44.5,41.1978439 C45.6045695,41.1978439 46.5,40.3024134 46.5,39.1978439 C46.5,38.0932744 45.6045695,37.1978439 44.5,37.1978439 C43.3954305,37.1978439 42.5,38.0932744 42.5,39.1978439 C42.5,40.3024134 43.3954305,41.1978439 44.5,41.1978439 Z M44.5,40.1978439 C43.9477153,40.1978439 43.5,39.7501286 43.5,39.1978439 C43.5,38.6455591 43.9477153,38.1978439 44.5,38.1978439 C45.0522847,38.1978439 45.5,38.6455591 45.5,39.1978439 C45.5,39.7501286 45.0522847,40.1978439 44.5,40.1978439 Z" id="椭圆形"></path>
            <polygon id="路径-29" points="0.5 204.177174 0.5 166.811913 1.50273697 166.197844 3 166.197844 3 165.197844 1.22086776 165.197844 -0.5 166.251692 -0.5 204.832734 1.16238353 205.55575 1.36180236 205.597239 3 205.597239 3 204.597239 1.46582771 204.597239"></polygon>
            <polygon id="路径-30" points="253.025806 146.467408 253.025806 178.678215 252.629378 179.276214 252 179.276214 252 180.276214 253.166233 180.276214 254.025806 178.979575 254.025806 146.008479 253.08324 145.197844 252 145.197844 252 146.197844 252.712371 146.197844"></polygon>
            <polygon id="路径-30" points="253.025806 187.467408 253.025806 219.678215 252.629378 220.276214 252 220.276214 252 221.276214 253.166233 221.276214 254.025806 219.979575 254.025806 187.008479 253.08324 186.197844 252 186.197844 252 187.197844 252.712371 187.197844"></polygon>
        </g>
    </g>
</svg>