<?xml version="1.0" encoding="UTF-8"?>
<svg width="689px" height="370px" viewBox="0 0 689 370" version="1.1" xmlns="http://www.w3.org/2000/svg" xmlns:xlink="http://www.w3.org/1999/xlink">
    <!-- Generator: Sketch 56.3 (81716) - https://sketch.com -->
    <title>编组 6</title>
    <desc>Created with Sketch.</desc>
    <g id="页面-1" stroke="none" stroke-width="1" fill="none" fill-rule="evenodd">
        <g id="编组-6">
            <g id="编组-3" transform="translate(56.000000, 25.000000)" fill="#979797">
                <path d="M9.37814645,42.1424605 C5.32617412,43.4310509 2.14002849,46.5931526 0.822668618,50.6402402 L0.697559247,51.0245912 C0.397421507,52.4923347 0.307900285,53.1023974 0.307900285,53.9312027 L0.307900285,55.4160067 C0.307900285,60.4390167 2.74197766,65.1505994 6.83856385,68.0572489 L357.083093,316.566135 C368.713288,324.818104 383.435567,327.408293 397.183852,323.621331 L539.925992,284.303035 C547.144041,282.314823 552.615806,276.41388 554.054352,269.066514 C554.138547,268.636492 554.241095,267.728466 554.284306,266.763397 C554.348803,265.322933 554.286475,263.871007 554.056849,262.494994 C553.972448,261.989227 553.827902,261.331126 553.601818,260.589878 C553.23923,259.401083 552.772858,258.378023 552.176849,257.626487 C551.891421,257.266579 551.223242,256.130099 550.20372,254.26146 L550.146008,254.177391 L547.98317,251.629061 C546.517798,249.902509 544.812964,248.394469 542.920477,247.15077 L183.581777,11.0016822 C172.450827,3.68667913 158.760002,1.38118468 145.847224,4.64729488 L17.1634307,37.196096 C15.6510433,37.7671352 14.5986563,38.2260322 13.942079,38.5963619 C13.2819608,38.9686886 12.4442654,39.5769005 11.421592,40.423575 L9.37814645,42.1424605 Z M551.393333,258.247859 C551.89718,258.883184 552.316033,259.802002 552.64532,260.881615 C552.857022,261.57571 552.99269,262.193395 553.070489,262.659595 C553.28748,263.959898 553.346878,265.343554 553.285307,266.718666 C553.244223,267.636215 553.1472,268.495318 553.072985,268.874371 C551.707322,275.849486 546.512782,281.451461 539.660432,283.338941 L396.918292,322.657236 C383.459445,326.364473 369.047109,323.828814 357.66176,315.750571 L7.41723072,67.2416848 C3.58494041,64.5225611 1.30790029,60.1149515 1.30790029,55.4160067 L1.30790029,53.9312027 C1.30790029,53.1892011 1.39031705,52.6275533 1.66308847,51.2784406 C1.71100588,51.1419388 1.71100588,51.1419388 1.77356056,50.9497633 C3.00090961,47.1791996 5.98328131,44.2397481 9.77123907,43.0671818 L9.94524592,42.9721726 L12.0623089,41.1913423 C13.040195,40.3817673 13.8340112,39.805414 14.4333526,39.4673672 C15.0362347,39.1273232 16.0493957,38.6855309 17.4636157,38.148234 L146.092438,5.61676389 C158.733368,2.41941389 172.135965,4.67637162 183.032579,11.8373746 L542.371279,247.986463 C544.184063,249.177782 545.817096,250.622309 547.220752,252.276146 L549.35045,254.785429 C550.38895,256.687465 551.059685,257.827148 551.393333,258.247859 Z" id="路径-3" fill-rule="nonzero"></path>
                <path d="M11.6670938,40.2975008 C7.48596919,43.994366 7.17179243,47.9008972 10.7674771,51.7652822 C14.1442353,55.3943807 131.713807,137.518457 364.704808,299.009327 C373.48715,305.096551 384.495885,307.029551 394.826636,304.298354 L539.559552,266.034527 C545.299269,264.304078 548.823712,262.468128 550.176205,260.448791 C552.446698,257.058838 551.356231,253.183236 546.607918,249.578307 L546.003238,250.374775 C550.362663,253.68446 551.291696,256.986315 549.345347,259.892306 C548.162154,261.658871 544.800582,263.409978 539.287405,265.072425 L394.571042,303.33157 C384.523325,305.987939 373.8162,304.107898 365.274469,298.187448 C133.126408,137.280837 14.7919061,54.622445 11.499578,51.084086 C8.29691821,47.6420961 8.55924921,44.3802246 12.3294845,41.0466594 L11.6670938,40.2975008 Z" id="路径-4" fill-rule="nonzero"></path>
                <path d="M12.2366161,39.7643402 C12.206183,39.7998981 12.206183,39.7998981 12.1739059,39.8364472 C12.158823,39.8534171 11.836801,40.2018906 11.728721,40.328356 C11.5296792,40.5612565 11.3590419,40.7955496 11.1965112,41.0707086 C10.9226541,41.5343395 10.6875445,42.0919691 10.4837091,42.7910509 C9.81363256,45.0891715 11.057896,47.8405623 13.9131062,50.198906 C15.8239543,51.7772263 131.844747,133.203298 362.887729,295.119235 L366.010778,297.016637 C374.019705,301.879217 383.59186,303.475699 392.745381,301.47554 L399.542572,299.990269 L540.413521,262.660964 C544.37854,261.55021 547.135008,259.77974 548.664546,257.333143 C549.020968,256.763022 549.226165,256.156078 549.287919,255.521511 C549.44877,253.868658 548.660202,252.166565 547.253013,250.462852 C546.880473,250.011811 546.485735,249.587679 546.069016,249.177504 C545.821982,248.934351 545.184834,248.341156 545.342851,248.491166 L544.65436,249.21641 C544.505258,249.074864 545.132252,249.658605 545.367528,249.890185 C545.761292,250.277766 546.133162,250.677327 546.482001,251.099673 C547.735799,252.617671 548.42171,254.098183 548.292621,255.424651 C548.24578,255.90598 548.090748,256.364542 547.816612,256.80304 C546.434848,259.013264 543.887893,260.649164 540.150562,261.696183 L399.307758,299.018476 L392.531906,300.498592 C383.629166,302.443951 374.319262,300.891209 366.529758,296.161851 L363.434171,294.282381 C133.033472,132.815246 16.425492,50.9770714 14.5499382,49.4279033 C11.973558,47.2998674 10.9017419,44.9298027 11.4437325,43.0709706 C11.6250564,42.4490951 11.8278352,41.9681474 12.0575245,41.5792911 C12.1889022,41.356873 12.3257579,41.1689636 12.4889239,40.9780416 C12.5817747,40.8693961 12.8944553,40.5310314 12.9213471,40.5007752 C12.9603581,40.4566062 12.9603581,40.4566062 12.9993151,40.4110938 L12.2366161,39.7643402 Z" id="路径-5" fill-rule="nonzero"></path>
                <path d="M22.7347036,40.3366109 L22.7876325,40.3200914 L74.154073,27.3698247 C76.4817742,27.1039367 78.280286,26.9707127 79.5551833,26.9707127 C80.1211674,26.9707127 80.7429162,27.0596685 81.4333899,27.2260487 C81.9864607,27.3593197 82.5572182,27.5344047 83.2431935,27.7717338 C83.413206,27.8305536 83.5834244,27.8907119 83.8018786,27.9688481 C84.0669939,28.0639046 84.2044488,28.1131781 84.3150508,28.1524817 C84.6974569,28.288374 84.9465251,28.3717015 85.1540278,28.4309248 C85.6606854,28.5755296 88.0284745,29.3109711 88.6597337,29.4968672 C90.9285889,30.1650098 92.792382,30.5885447 94.5857243,30.7831155 C96.1461626,30.9524172 97.557416,30.9287601 98.8186499,30.6870706 C101.74022,30.1272118 102.79736,28.5486327 102.136451,25.702209 C101.666519,22.6406769 102.81413,20.6472681 105.514119,19.9055669 C107.586215,19.3363511 122.461464,15.5985741 150.172395,8.68393915 C160.813802,6.02861576 172.080155,7.9172678 181.273898,13.8976862 L525.447419,237.778572 C526.822088,238.721235 527.780835,239.385924 528.325304,239.77382 C531.588324,242.098497 532.814733,244.253984 532.124563,246.747149 C531.264277,249.854834 527.854144,252.019794 521.992534,253.304765 L392.484965,287.53282 C383.466156,290.09633 376.705453,291.035025 372.176798,290.336158 C367.644387,289.636711 361.731138,286.739911 354.412027,281.6525 L25.1486368,53.6441276 C23.1145853,52.2790374 21.7205982,51.3224725 20.962858,50.7716216 C18.514701,48.9918962 17.7562887,47.8732002 17.3844989,46.0382878 C17.0239069,44.2586402 17.9206529,42.7302671 20.1795023,41.4260742 C20.6247963,41.1689746 21.469881,40.8098122 22.7347036,40.3366109 Z M20.6795154,42.292092 C18.7621608,43.399116 18.0990628,44.52927 18.3645827,45.8397033 C18.6848084,47.4201293 19.2985259,48.3253932 21.5508671,49.9627673 C22.2955147,50.5041004 23.6817961,51.4553775 25.7119181,52.8178946 L354.982056,280.830875 C362.18795,285.839591 367.978953,288.676505 372.329314,289.347857 C376.683431,290.01979 383.319531,289.098394 392.220499,286.568469 L521.75767,252.332969 C527.315908,251.114064 530.424382,249.140616 531.160808,246.480357 C531.715864,244.475279 530.70346,242.695919 527.745066,240.588267 C527.206824,240.204806 526.25188,239.542754 524.892011,238.610061 L180.728622,14.7359429 C171.767633,8.90692749 160.786504,7.06608943 150.414499,9.65418944 C122.728109,16.5627007 107.83877,20.3040181 105.779011,20.8698449 C103.591728,21.4707031 102.728738,22.9697235 103.11765,25.5130206 C103.901437,28.8810378 102.47997,31.0036493 99.0068549,31.6692004 C97.6390886,31.9313046 96.1305559,31.9565924 94.4778611,31.7772813 C92.6146848,31.5751337 90.6982291,31.1396316 88.3772435,30.4561374 C87.7348232,30.2669545 85.3725009,29.533211 84.8795777,29.3925261 C84.6463041,29.3259476 84.3813179,29.2372946 83.9802038,29.0947543 C83.8680719,29.0549069 83.7290065,29.0050562 83.4650955,28.9104303 C83.2496315,28.8333636 83.0824212,28.7742685 82.9162354,28.7167726 C82.2581172,28.4890813 81.715826,28.3227286 81.1991296,28.1982226 C80.5795383,28.0489226 80.032897,27.9707127 79.5551833,27.9707127 C78.3252233,27.9707127 76.5608248,28.1014098 74.3330912,28.351413 L23.0591539,41.2829257 C21.8590775,41.7324869 21.059357,42.0727828 20.6795154,42.292092 Z" id="路径-6" fill-rule="nonzero"></path>
                <path d="M98.1458065,25.0498197 C98.1458065,23.5485968 96.2535881,22.4675724 94.001129,22.4676362 C91.7486562,22.4677 89.8563618,23.5488268 89.8563618,25.0500263 C89.8563618,26.5512491 91.7485801,27.6322736 94.0010393,27.6322097 C96.2535121,27.6321459 98.1458065,26.5510191 98.1458065,25.0498197 Z M90.8563618,25.0500263 C90.8563618,24.2512081 92.2277585,23.4676865 94.0011573,23.4676362 C95.7745248,23.4675859 97.1458065,24.2509992 97.1458065,25.0498197 C97.1458065,25.8486378 95.7744098,26.6321595 94.0010109,26.6322097 C92.2276435,26.63226 90.8563618,25.8488467 90.8563618,25.0500263 Z" id="椭圆形" fill-rule="nonzero" transform="translate(94.001084, 25.049923) rotate(8.000000) translate(-94.001084, -25.049923) "></path>
                <ellipse id="椭圆形" transform="translate(93.938028, 24.925140) rotate(5.000000) translate(-93.938028, -24.925140) " cx="93.9380284" cy="24.92514" rx="1.04135176" ry="1"></ellipse>
                <path d="M32.1009702,82.6107814 L62.595961,104.569017 C63.7588071,105.406336 65.3802617,105.142444 66.2175811,103.979598 C66.4330436,103.68037 66.5822517,103.338653 66.6552605,102.977223 C67.085302,100.848305 66.2236483,98.6654986 64.4553913,97.4043491 L33.7473163,75.5028543 C32.6267557,74.7036524 31.0704807,74.9641651 30.2712788,76.0847257 C30.0517721,76.3924959 29.9051585,76.7461701 29.8425362,77.1189759 C29.4878832,79.2303134 30.3635924,81.3597645 32.1009702,82.6107814 Z M32.6853072,81.7992703 C31.2570639,80.7708489 30.537171,79.0202944 30.82872,77.2846306 C30.8662143,77.0614182 30.9539972,76.8496605 31.0854239,76.6653872 C31.5639354,75.9944665 32.4957342,75.838488 33.1666549,76.3169995 L63.8747298,98.2184942 C65.3218359,99.2505937 66.026996,101.036958 65.6750586,102.779223 C65.6301889,103.00135 65.5384888,103.211362 65.40607,103.395261 C64.891471,104.109922 63.8949589,104.272104 63.180298,103.757505 L32.6853072,81.7992703 Z" id="路径-7" fill-rule="nonzero"></path>
                <path d="M69.7867937,105.961174 L69.6962475,106.433778 C69.4279406,107.8342 69.948722,109.269025 71.0528193,110.171321 C71.7841734,110.769002 72.8615695,110.660639 73.4592507,109.929285 C73.6367856,109.712044 73.7581482,109.454462 73.8126392,109.179248 L73.9038243,108.718705 C74.1825409,107.311008 73.6619405,105.864376 72.550129,104.95709 C71.8177053,104.3594 70.7394354,104.468624 70.1417458,105.201047 C69.9622082,105.421057 69.8402274,105.682278 69.7867937,105.961174 Z M70.7689306,106.149342 C70.7911475,106.033381 70.8418653,105.924769 70.9165144,105.833292 C71.1650248,105.528762 71.6133533,105.483348 71.9178841,105.731858 C72.7432927,106.405428 73.1297863,107.479407 72.9228671,108.524481 L72.8316821,108.985023 C72.8090536,109.099311 72.7586555,109.206277 72.6849307,109.296491 C72.436732,109.6002 71.9893224,109.6452 71.6856134,109.397001 C70.865842,108.727063 70.4791716,107.661732 70.6783844,106.621946 L70.7689306,106.149342 Z" id="路径-14" fill-rule="nonzero"></path>
                <g id="编组-2" transform="translate(89.807900, 118.060108)" fill-rule="nonzero">
                    <path d="M0.718832732,4.79513443 L23.4189214,21.4982843 C24.081666,21.9859441 25.0142531,21.8440099 25.501913,21.1812653 C25.6222733,21.017692 25.7079213,20.8312388 25.7535962,20.6333584 C26.0040282,19.5483938 25.5770296,18.4193164 24.6713205,17.7715854 L1.97238526,1.53811425 C1.35483355,1.09646323 0.49618009,1.23905891 0.0545290716,1.85661062 C-0.040998055,1.99018427 -0.111819509,2.1397933 -0.154578354,2.29834624 C-0.406121399,3.23108633 -0.0592821513,4.22258295 0.718832732,4.79513443 Z M1.3114974,3.98968512 C0.86554416,3.66154439 0.666763633,3.0932978 0.810927995,2.55872575 C0.822582762,2.51550902 0.841886546,2.47473013 0.867924349,2.43832199 C0.988305047,2.26999609 1.22234799,2.23112883 1.39067389,2.35150952 L24.0896091,18.5849807 C24.6667109,18.9977033 24.9387868,19.7171314 24.7792159,20.4084515 C24.7641982,20.4735136 24.7360376,20.5348185 24.6964637,20.5886006 C24.5361235,20.8065079 24.2294933,20.8531752 24.0115861,20.692835 L1.3114974,3.98968512 Z" id="路径-15"></path>
                    <path d="M23.6140473,21.6858668 C23.9158026,21.8487817 24.1613939,21.970522 24.354227,22.0521126 C24.9791923,22.3165451 25.8002344,22.4925371 26.3100492,22.4323283 C27.037819,22.3463793 27.6555374,21.7786296 27.7971361,20.9387948 C28.0954836,19.1692692 27.6198078,17.7366565 26.3106448,16.5801733 C25.0948477,15.5061674 15.803215,8.85975494 3.20610455,0.187833311 L2.88651411,-0.0321576998 C1.9032796,-0.708846216 0.557676157,-0.46041583 -0.119050019,0.522744974 C-0.367159678,0.883203459 -0.5,1.31048864 -0.5,1.74808289 C-0.5,2.77999542 -0.298163853,3.57175257 0.132559301,4.11743907 L0.917499413,3.49786743 C0.648183425,3.15666892 0.5,2.57537916 0.5,1.74808289 C0.5,1.51297129 0.571372741,1.28339856 0.704677646,1.08973063 C1.06827501,0.561489387 1.79126894,0.428007518 2.31955358,0.791587259 L2.6390693,1.01152684 C15.187447,9.64990057 24.4778989,16.2954684 25.6485922,17.3296307 C26.6930716,18.2522987 27.0531367,19.3367218 26.8110536,20.7725383 C26.7445033,21.1672539 26.4863086,21.4045627 26.192765,21.4392299 C25.8842499,21.4756653 25.2232452,21.3339777 24.743897,21.1311581 C24.5848253,21.0638524 24.3654317,20.9550984 24.0891218,20.8059213 L23.6140473,21.6858668 Z" id="路径-16"></path>
                </g>
                <g id="编组-2" transform="translate(119.807900, 139.060108)" fill-rule="nonzero">
                    <path d="M0.718832732,4.79513443 L23.4189214,21.4982843 C24.081666,21.9859441 25.0142531,21.8440099 25.501913,21.1812653 C25.6222733,21.017692 25.7079213,20.8312388 25.7535962,20.6333584 C26.0040282,19.5483938 25.5770296,18.4193164 24.6713205,17.7715854 L1.97238526,1.53811425 C1.35483355,1.09646323 0.49618009,1.23905891 0.0545290716,1.85661062 C-0.040998055,1.99018427 -0.111819509,2.1397933 -0.154578354,2.29834624 C-0.406121399,3.23108633 -0.0592821513,4.22258295 0.718832732,4.79513443 Z M1.3114974,3.98968512 C0.86554416,3.66154439 0.666763633,3.0932978 0.810927995,2.55872575 C0.822582762,2.51550902 0.841886546,2.47473013 0.867924349,2.43832199 C0.988305047,2.26999609 1.22234799,2.23112883 1.39067389,2.35150952 L24.0896091,18.5849807 C24.6667109,18.9977033 24.9387868,19.7171314 24.7792159,20.4084515 C24.7641982,20.4735136 24.7360376,20.5348185 24.6964637,20.5886006 C24.5361235,20.8065079 24.2294933,20.8531752 24.0115861,20.692835 L1.3114974,3.98968512 Z" id="路径-15"></path>
                    <path d="M23.6140473,21.6858668 C23.9158026,21.8487817 24.1613939,21.970522 24.354227,22.0521126 C24.9791923,22.3165451 25.8002344,22.4925371 26.3100492,22.4323283 C27.037819,22.3463793 27.6555374,21.7786296 27.7971361,20.9387948 C28.0954836,19.1692692 27.6198078,17.7366565 26.3106448,16.5801733 C25.0948477,15.5061674 15.803215,8.85975494 3.20610455,0.187833311 L2.88651411,-0.0321576998 C1.9032796,-0.708846216 0.557676157,-0.46041583 -0.119050019,0.522744974 C-0.367159678,0.883203459 -0.5,1.31048864 -0.5,1.74808289 C-0.5,2.77999542 -0.298163853,3.57175257 0.132559301,4.11743907 L0.917499413,3.49786743 C0.648183425,3.15666892 0.5,2.57537916 0.5,1.74808289 C0.5,1.51297129 0.571372741,1.28339856 0.704677646,1.08973063 C1.06827501,0.561489387 1.79126894,0.428007518 2.31955358,0.791587259 L2.6390693,1.01152684 C15.187447,9.64990057 24.4778989,16.2954684 25.6485922,17.3296307 C26.6930716,18.2522987 27.0531367,19.3367218 26.8110536,20.7725383 C26.7445033,21.1672539 26.4863086,21.4045627 26.192765,21.4392299 C25.8842499,21.4756653 25.2232452,21.3339777 24.743897,21.1311581 C24.5848253,21.0638524 24.3654317,20.9550984 24.0891218,20.8059213 L23.6140473,21.6858668 Z" id="路径-16"></path>
                </g>
                <polygon id="路径-17" fill-rule="nonzero" points="113.517281 139.466975 120.517281 144.466975 121.098519 143.653242 114.098519 138.653242"></polygon>
                <polygon id="路径-17" fill-rule="nonzero" points="114.5079 134.460108 122.5079 140.460108 123.1079 139.660108 115.1079 133.660108"></polygon>
                <path d="M417.494938,308.253922 L417.513467,307.679514 C417.6374,303.83762 420.187506,300.498444 423.861271,299.367532 C426.311714,298.613201 428.909697,299.988171 429.664029,302.438615 C429.83426,302.991611 429.899615,303.571557 429.856726,304.148571 L429.801831,304.8871 C429.527515,308.57762 427.02352,311.724689 423.488995,312.821191 C421.048931,313.578163 418.457223,312.213748 417.700251,309.773685 C417.547733,309.282049 417.478342,308.768404 417.494938,308.253922 Z M418.494418,308.286163 C418.481409,308.689427 418.5358,309.092033 418.655347,309.477389 C419.248679,311.389967 421.28012,312.459427 423.192699,311.866095 C426.334764,310.891344 428.560725,308.093714 428.804582,304.812975 L428.859477,304.074445 C428.893127,303.621724 428.84185,303.166702 428.708288,302.732825 C428.116444,300.810223 426.078083,299.731429 424.155481,300.323273 C420.889888,301.328535 418.623111,304.296714 418.512947,307.711756 L418.494418,308.286163 Z" id="路径-18" fill-rule="nonzero"></path>
                <path d="M438.410827,302.275565 C438.473947,301.190088 439.219555,300.264543 440.266714,299.971796 C441.081928,299.743892 441.927541,300.220001 442.155445,301.035214 C442.20231,301.202852 442.220277,301.377247 442.208574,301.550918 L442.191593,301.802908 C442.118728,302.884204 441.38326,303.807099 440.345502,304.119458 C439.54299,304.361009 438.696611,303.906261 438.45506,303.10375 C438.403836,302.933569 438.382906,302.755713 438.393223,302.578291 L438.410827,302.275565 Z M439.412624,302.815529 C439.494995,303.089192 439.783617,303.244265 440.057281,303.161894 C440.696193,302.969586 441.148995,302.401391 441.193856,301.735674 L441.210836,301.483684 C441.214904,301.423326 441.20866,301.362715 441.192372,301.304454 C441.113165,301.021131 440.819277,300.855662 440.535954,300.934869 C439.900165,301.112612 439.447464,301.674563 439.40914,302.333617 L439.391537,302.636343 C439.388019,302.696845 439.395156,302.757496 439.412624,302.815529 Z" id="路径-18" fill-rule="nonzero"></path>
                <path d="M446.410827,300.275565 C446.473947,299.190088 447.219555,298.264543 448.266714,297.971796 C449.081928,297.743892 449.927541,298.220001 450.155445,299.035214 C450.20231,299.202852 450.220277,299.377247 450.208574,299.550918 L450.191593,299.802908 C450.118728,300.884204 449.38326,301.807099 448.345502,302.119458 C447.54299,302.361009 446.696611,301.906261 446.45506,301.10375 C446.403836,300.933569 446.382906,300.755713 446.393223,300.578291 L446.410827,300.275565 Z M447.412624,300.815529 C447.494995,301.089192 447.783617,301.244265 448.057281,301.161894 C448.696193,300.969586 449.148995,300.401391 449.193856,299.735674 L449.210836,299.483684 C449.214904,299.423326 449.20866,299.362715 449.192372,299.304454 C449.113165,299.021131 448.819277,298.855662 448.535954,298.934869 C447.900165,299.112612 447.447464,299.674563 447.40914,300.333617 L447.391537,300.636343 C447.388019,300.696845 447.395156,300.757496 447.412624,300.815529 Z" id="路径-18" fill-rule="nonzero"></path>
                <path d="M492.3079,287.945336 L492.3079,287.448294 C492.3079,285.979077 493.25615,284.677797 494.654737,284.227737 C495.72251,283.884132 496.866658,284.471186 497.210263,285.538959 C497.274959,285.740005 497.3079,285.949912 497.3079,286.161111 L497.3079,286.570912 C497.3079,288.049659 496.368872,289.36523 494.970379,289.84576 C493.920804,290.206401 492.777599,289.647909 492.416958,288.598334 C492.344753,288.388194 492.3079,288.167535 492.3079,287.945336 Z M493.3079,287.945336 C493.3079,288.05696 493.326414,288.16781 493.362686,288.273376 C493.543858,288.800639 494.118157,289.081203 494.645421,288.900032 C495.64005,288.558271 496.3079,287.622618 496.3079,286.570912 L496.3079,286.161111 C496.3079,286.053899 496.291178,285.947343 496.258336,285.845285 C496.08391,285.303247 495.503102,285.005238 494.961063,285.179664 C493.975868,285.496695 493.3079,286.413346 493.3079,287.448294 L493.3079,287.945336 Z" id="路径-18" fill-rule="nonzero"></path>
                <path d="M514.3079,281.945336 L514.3079,281.448294 C514.3079,279.979077 515.25615,278.677797 516.654737,278.227737 C517.72251,277.884132 518.866658,278.471186 519.210263,279.538959 C519.274959,279.740005 519.3079,279.949912 519.3079,280.161111 L519.3079,280.570912 C519.3079,282.049659 518.368872,283.36523 516.970379,283.84576 C515.920804,284.206401 514.777599,283.647909 514.416958,282.598334 C514.344753,282.388194 514.3079,282.167535 514.3079,281.945336 Z M515.3079,281.945336 C515.3079,282.05696 515.326414,282.16781 515.362686,282.273376 C515.543858,282.800639 516.118157,283.081203 516.645421,282.900032 C517.64005,282.558271 518.3079,281.622618 518.3079,280.570912 L518.3079,280.161111 C518.3079,280.053899 518.291178,279.947343 518.258336,279.845285 C518.08391,279.303247 517.503102,279.005238 516.961063,279.179664 C515.975868,279.496695 515.3079,280.413346 515.3079,281.448294 L515.3079,281.945336 Z" id="路径-18" fill-rule="nonzero"></path>
                <path d="M522.3079,279.945336 L522.3079,279.448294 C522.3079,277.979077 523.25615,276.677797 524.654737,276.227737 C525.72251,275.884132 526.866658,276.471186 527.210263,277.538959 C527.274959,277.740005 527.3079,277.949912 527.3079,278.161111 L527.3079,278.570912 C527.3079,280.049659 526.368872,281.36523 524.970379,281.84576 C523.920804,282.206401 522.777599,281.647909 522.416958,280.598334 C522.344753,280.388194 522.3079,280.167535 522.3079,279.945336 Z M523.3079,279.945336 C523.3079,280.05696 523.326414,280.16781 523.362686,280.273376 C523.543858,280.800639 524.118157,281.081203 524.645421,280.900032 C525.64005,280.558271 526.3079,279.622618 526.3079,278.570912 L526.3079,278.161111 C526.3079,278.053899 526.291178,277.947343 526.258336,277.845285 C526.08391,277.303247 525.503102,277.005238 524.961063,277.179664 C523.975868,277.496695 523.3079,278.413346 523.3079,279.448294 L523.3079,279.945336 Z" id="路径-18" fill-rule="nonzero"></path>
                <path d="M529.3079,277.945336 L529.3079,277.448294 C529.3079,275.979077 530.25615,274.677797 531.654737,274.227737 C532.72251,273.884132 533.866658,274.471186 534.210263,275.538959 C534.274959,275.740005 534.3079,275.949912 534.3079,276.161111 L534.3079,276.570912 C534.3079,278.049659 533.368872,279.36523 531.970379,279.84576 C530.920804,280.206401 529.777599,279.647909 529.416958,278.598334 C529.344753,278.388194 529.3079,278.167535 529.3079,277.945336 Z M530.3079,277.945336 C530.3079,278.05696 530.326414,278.16781 530.362686,278.273376 C530.543858,278.800639 531.118157,279.081203 531.645421,278.900032 C532.64005,278.558271 533.3079,277.622618 533.3079,276.570912 L533.3079,276.161111 C533.3079,276.053899 533.291178,275.947343 533.258336,275.845285 C533.08391,275.303247 532.503102,275.005238 531.961063,275.179664 C530.975868,275.496695 530.3079,276.413346 530.3079,277.448294 L530.3079,277.945336 Z" id="路径-18" fill-rule="nonzero"></path>
                <path d="M500.3079,285.945336 L500.3079,285.448294 C500.3079,283.979077 501.25615,282.677797 502.654737,282.227737 C503.72251,281.884132 504.866658,282.471186 505.210263,283.538959 C505.274959,283.740005 505.3079,283.949912 505.3079,284.161111 L505.3079,284.570912 C505.3079,286.049659 504.368872,287.36523 502.970379,287.84576 C501.920804,288.206401 500.777599,287.647909 500.416958,286.598334 C500.344753,286.388194 500.3079,286.167535 500.3079,285.945336 Z M501.3079,285.945336 C501.3079,286.05696 501.326414,286.16781 501.362686,286.273376 C501.543858,286.800639 502.118157,287.081203 502.645421,286.900032 C503.64005,286.558271 504.3079,285.622618 504.3079,284.570912 L504.3079,284.161111 C504.3079,284.053899 504.291178,283.947343 504.258336,283.845285 C504.08391,283.303247 503.503102,283.005238 502.961063,283.179664 C501.975868,283.496695 501.3079,284.413346 501.3079,285.448294 L501.3079,285.945336 Z" id="路径-18" fill-rule="nonzero"></path>
                <path d="M507.3079,283.945336 L507.3079,283.448294 C507.3079,281.979077 508.25615,280.677797 509.654737,280.227737 C510.72251,279.884132 511.866658,280.471186 512.210263,281.538959 C512.274959,281.740005 512.3079,281.949912 512.3079,282.161111 L512.3079,282.570912 C512.3079,284.049659 511.368872,285.36523 509.970379,285.84576 C508.920804,286.206401 507.777599,285.647909 507.416958,284.598334 C507.344753,284.388194 507.3079,284.167535 507.3079,283.945336 Z M508.3079,283.945336 C508.3079,284.05696 508.326414,284.16781 508.362686,284.273376 C508.543858,284.800639 509.118157,285.081203 509.645421,284.900032 C510.64005,284.558271 511.3079,283.622618 511.3079,282.570912 L511.3079,282.161111 C511.3079,282.053899 511.291178,281.947343 511.258336,281.845285 C511.08391,281.303247 510.503102,281.005238 509.961063,281.179664 C508.975868,281.496695 508.3079,282.413346 508.3079,283.448294 L508.3079,283.945336 Z" id="路径-18" fill-rule="nonzero"></path>
                <path d="M463.101204,291.756975 L479.383882,286.958504 C480.178522,286.724325 481.012544,287.178668 481.246722,287.973308 C481.287298,288.110992 481.3079,288.253787 481.3079,288.397326 L481.3079,290.585199 C481.3079,291.323471 481.074449,292.042836 480.640931,292.640421 L478.796085,295.183459 C478.334692,295.819469 477.672708,296.281724 476.916693,296.495814 L467.013271,299.300291 C466.33598,299.492088 465.609212,299.389462 465.011511,299.017623 L462.487311,297.447283 C461.753841,296.99098 461.3079,296.188361 461.3079,295.324538 L461.3079,294.155011 C461.3079,293.046484 462.037888,292.070332 463.101204,291.756975 Z M463.383882,292.716189 C462.745893,292.904204 462.3079,293.489895 462.3079,294.155011 L462.3079,295.324538 C462.3079,295.842832 462.575465,296.324404 463.015547,296.598185 L465.539747,298.168526 C465.898368,298.391629 466.334428,298.453204 466.740803,298.338126 L476.644225,295.533649 C477.184235,295.380728 477.657081,295.050545 477.986648,294.596253 L479.831494,292.053215 C480.141149,291.626369 480.3079,291.112536 480.3079,290.585199 L480.3079,288.397326 C480.3079,288.34948 480.301033,288.301881 480.287508,288.255986 C480.209448,287.991107 479.931441,287.839659 479.666561,287.917718 L463.383882,292.716189 Z" id="路径-19" fill-rule="nonzero"></path>
                <path d="M57.7249252,27.7653958 L60.1581783,28.1748724 C61.7085021,28.4357664 63.2958554,28.3760157 64.8221788,27.9993114 L114.18931,15.815256 C115.02166,15.6098277 115.690693,14.9922178 115.961893,14.1789165 L116.282225,13.2182745 L115.333576,12.9019423 L115.013245,13.8625843 C114.850525,14.3505651 114.449105,14.721131 113.949694,14.844388 L64.5825638,27.0284435 C63.188964,27.3723909 61.7396415,27.4269458 60.3241285,27.1887382 L57.8908754,26.7792617 L57.7249252,27.7653958 Z" id="路径-20" fill-rule="nonzero"></path>
            </g>
            <g id="编组-8">
                <path d="M26.2285156,78.5 L0.5,85.5" id="路径-9" stroke="#D7D7D7"></path>
                <path d="M417.5,360.5 L387.5,369.5" id="路径-9" stroke="#D7D7D7"></path>
                <path d="M115.152,224.576 L116.448,224.576 L116.448,234.864 L123.056,234.864 L123.056,236 L115.152,236 L115.152,224.576 Z M127.808,227.504 C129.136,227.504 130.144,227.952 130.816,228.848 C131.424,229.648 131.744,230.784 131.776,232.224 L125.248,232.224 C125.312,233.152 125.552,233.872 126,234.384 C126.448,234.896 127.072,235.152 127.856,235.152 C128.528,235.152 129.088,234.976 129.504,234.64 C129.856,234.352 130.128,233.92 130.336,233.344 L131.616,233.344 C131.424,234.144 131.056,234.784 130.496,235.296 C129.808,235.904 128.928,236.224 127.856,236.224 C126.672,236.224 125.712,235.824 125.008,235.056 C124.272,234.256 123.92,233.2 123.92,231.856 C123.92,230.64 124.256,229.616 124.96,228.8 C125.664,227.936 126.608,227.504 127.808,227.504 Z M127.84,228.576 C127.104,228.576 126.512,228.816 126.064,229.296 C125.616,229.776 125.36,230.416 125.28,231.232 L130.448,231.232 C130.288,229.456 129.408,228.576 127.84,228.576 Z M137.152,227.504 C139.2,227.504 140.24,228.64 140.24,230.912 L140.24,236 L138.96,236 L138.96,231.008 C138.96,229.392 138.224,228.592 136.784,228.592 C136.208,228.592 135.712,228.8 135.296,229.216 C134.848,229.664 134.608,230.256 134.56,231.008 L134.56,236 L133.28,236 L133.28,227.728 L134.56,227.728 L134.56,228.944 C134.848,228.48 135.216,228.128 135.664,227.888 C136.112,227.632 136.608,227.504 137.152,227.504 Z M145.632,227.504 C146.88,227.504 147.808,228.048 148.416,229.152 L148.416,227.728 L149.696,227.728 L149.696,235.424 C149.696,238.064 148.432,239.392 145.92,239.392 C144.8,239.392 143.936,239.168 143.36,238.72 C142.768,238.272 142.4,237.6 142.256,236.704 L143.536,236.704 C143.632,237.264 143.872,237.68 144.24,237.936 C144.608,238.208 145.168,238.352 145.92,238.352 C147.584,238.352 148.416,237.424 148.416,235.6 L148.416,234.144 C147.808,235.248 146.88,235.808 145.632,235.808 C144.48,235.808 143.568,235.408 142.896,234.624 C142.224,233.856 141.904,232.88 141.904,231.68 C141.904,230.464 142.224,229.488 142.896,228.72 C143.568,227.904 144.48,227.504 145.632,227.504 Z M145.824,228.56 C144.992,228.56 144.352,228.848 143.888,229.456 C143.44,230 143.216,230.752 143.216,231.68 C143.216,232.544 143.408,233.264 143.808,233.808 C144.256,234.416 144.912,234.736 145.808,234.736 C146.64,234.736 147.28,234.448 147.76,233.872 C148.208,233.312 148.432,232.576 148.432,231.68 C148.432,230.752 148.208,230 147.76,229.456 C147.28,228.848 146.64,228.56 145.824,228.56 Z M153.888,225.056 L153.888,227.728 L155.936,227.728 L155.936,228.8 L153.888,228.8 L153.888,234.064 C153.888,234.368 153.936,234.592 154.064,234.72 C154.176,234.848 154.384,234.928 154.672,234.928 L155.728,234.928 L155.728,236 L154.48,236 C153.808,236 153.312,235.824 153.024,235.472 C152.752,235.152 152.624,234.688 152.624,234.064 L152.624,228.8 L150.96,228.8 L150.96,227.728 L152.624,227.728 L152.624,225.584 L153.888,225.056 Z M157.36,224.352 L158.64,224.352 L158.64,229.088 C158.928,228.56 159.312,228.16 159.792,227.888 C160.24,227.632 160.736,227.504 161.296,227.504 C162.256,227.504 163.008,227.776 163.52,228.352 C164.032,228.912 164.288,229.728 164.288,230.784 L164.288,236 L163.008,236 L163.008,230.976 C163.008,230.208 162.816,229.616 162.464,229.2 C162.08,228.784 161.552,228.576 160.864,228.576 C160.224,228.576 159.696,228.832 159.28,229.344 C158.848,229.856 158.64,230.512 158.64,231.28 L158.64,236 L157.36,236 L157.36,224.352 Z" id="Length" fill="#9B9B9B" fill-rule="nonzero"></path>
                <path d="M641.152,287.576 L642.464,287.576 L642.464,292.536 L649.072,292.536 L649.072,287.576 L650.384,287.576 L650.384,299 L649.072,299 L649.072,293.672 L642.464,293.672 L642.464,299 L641.152,299 L641.152,287.576 Z M655.92,290.504 C657.248,290.504 658.256,290.952 658.928,291.848 C659.536,292.648 659.856,293.784 659.888,295.224 L653.36,295.224 C653.424,296.152 653.664,296.872 654.112,297.384 C654.56,297.896 655.184,298.152 655.968,298.152 C656.64,298.152 657.2,297.976 657.616,297.64 C657.968,297.352 658.24,296.92 658.448,296.344 L659.728,296.344 C659.536,297.144 659.168,297.784 658.608,298.296 C657.92,298.904 657.04,299.224 655.968,299.224 C654.784,299.224 653.824,298.824 653.12,298.056 C652.384,297.256 652.032,296.2 652.032,294.856 C652.032,293.64 652.368,292.616 653.072,291.8 C653.776,290.936 654.72,290.504 655.92,290.504 Z M655.952,291.576 C655.216,291.576 654.624,291.816 654.176,292.296 C653.728,292.776 653.472,293.416 653.392,294.232 L658.56,294.232 C658.4,292.456 657.52,291.576 655.952,291.576 Z M662.448,287.608 C662.72,287.608 662.944,287.688 663.136,287.88 C663.328,288.04 663.424,288.264 663.424,288.552 C663.424,288.824 663.328,289.048 663.136,289.24 C662.944,289.416 662.72,289.512 662.448,289.512 C662.176,289.512 661.952,289.416 661.76,289.24 C661.568,289.048 661.488,288.824 661.488,288.552 C661.488,288.264 661.568,288.04 661.76,287.88 C661.952,287.688 662.176,287.608 662.448,287.608 Z M661.808,290.728 L663.088,290.728 L663.088,299 L661.808,299 L661.808,290.728 Z M668.896,290.504 C670.144,290.504 671.072,291.048 671.68,292.152 L671.68,290.728 L672.96,290.728 L672.96,298.424 C672.96,301.064 671.696,302.392 669.184,302.392 C668.064,302.392 667.2,302.168 666.624,301.72 C666.032,301.272 665.664,300.6 665.52,299.704 L666.8,299.704 C666.896,300.264 667.136,300.68 667.504,300.936 C667.872,301.208 668.432,301.352 669.184,301.352 C670.848,301.352 671.68,300.424 671.68,298.6 L671.68,297.144 C671.072,298.248 670.144,298.808 668.896,298.808 C667.744,298.808 666.832,298.408 666.16,297.624 C665.488,296.856 665.168,295.88 665.168,294.68 C665.168,293.464 665.488,292.488 666.16,291.72 C666.832,290.904 667.744,290.504 668.896,290.504 Z M669.088,291.56 C668.256,291.56 667.616,291.848 667.152,292.456 C666.704,293 666.48,293.752 666.48,294.68 C666.48,295.544 666.672,296.264 667.072,296.808 C667.52,297.416 668.176,297.736 669.072,297.736 C669.904,297.736 670.544,297.448 671.024,296.872 C671.472,296.312 671.696,295.576 671.696,294.68 C671.696,293.752 671.472,293 671.024,292.456 C670.544,291.848 669.904,291.56 669.088,291.56 Z M674.944,287.352 L676.224,287.352 L676.224,292.088 C676.512,291.56 676.896,291.16 677.376,290.888 C677.824,290.632 678.32,290.504 678.88,290.504 C679.84,290.504 680.592,290.776 681.104,291.352 C681.616,291.912 681.872,292.728 681.872,293.784 L681.872,299 L680.592,299 L680.592,293.976 C680.592,293.208 680.4,292.616 680.048,292.2 C679.664,291.784 679.136,291.576 678.448,291.576 C677.808,291.576 677.28,291.832 676.864,292.344 C676.432,292.856 676.224,293.512 676.224,294.28 L676.224,299 L674.944,299 L674.944,287.352 Z M686.048,288.056 L686.048,290.728 L688.096,290.728 L688.096,291.8 L686.048,291.8 L686.048,297.064 C686.048,297.368 686.096,297.592 686.224,297.72 C686.336,297.848 686.544,297.928 686.832,297.928 L687.888,297.928 L687.888,299 L686.64,299 C685.968,299 685.472,298.824 685.184,298.472 C684.912,298.152 684.784,297.688 684.784,297.064 L684.784,291.8 L683.12,291.8 L683.12,290.728 L684.784,290.728 L684.784,288.584 L686.048,288.056 Z" id="Height" fill="#9B9B9B" fill-rule="nonzero"></path>
                <path d="M113.08,1.576 L114.552,1.576 L117.064,11.16 L117.128,11.16 L119.736,1.576 L121.16,1.576 L123.752,11.16 L123.816,11.16 L126.328,1.576 L127.8,1.576 L124.52,13 L123.064,13 L120.472,3.48 L120.424,3.48 L117.816,13 L116.36,13 L113.08,1.576 Z M129.928,1.608 C130.2,1.608 130.424,1.688 130.616,1.88 C130.808,2.04 130.904,2.264 130.904,2.552 C130.904,2.824 130.808,3.048 130.616,3.24 C130.424,3.416 130.2,3.512 129.928,3.512 C129.656,3.512 129.432,3.416 129.24,3.24 C129.048,3.048 128.968,2.824 128.968,2.552 C128.968,2.264 129.048,2.04 129.24,1.88 C129.432,1.688 129.656,1.608 129.928,1.608 Z M129.288,4.728 L130.568,4.728 L130.568,13 L129.288,13 L129.288,4.728 Z M139.08,1.352 L140.36,1.352 L140.36,13 L139.16,13 L139.16,11.64 C138.584,12.696 137.656,13.224 136.408,13.224 C135.192,13.224 134.248,12.776 133.576,11.912 C132.952,11.112 132.648,10.088 132.648,8.84 C132.648,7.624 132.952,6.632 133.576,5.832 C134.248,4.936 135.16,4.504 136.344,4.504 C137.528,4.504 138.44,5.08 139.08,6.248 L139.08,1.352 Z M136.616,5.56 C135.704,5.56 135.016,5.88 134.568,6.52 C134.152,7.08 133.96,7.848 133.96,8.84 C133.96,9.832 134.152,10.616 134.552,11.192 C135,11.832 135.672,12.168 136.568,12.168 C137.4,12.168 138.04,11.848 138.504,11.208 C138.904,10.632 139.112,9.88 139.112,8.952 L139.112,8.792 C139.112,7.832 138.872,7.048 138.424,6.456 C137.96,5.848 137.352,5.56 136.616,5.56 Z M144.552,2.056 L144.552,4.728 L146.6,4.728 L146.6,5.8 L144.552,5.8 L144.552,11.064 C144.552,11.368 144.6,11.592 144.728,11.72 C144.84,11.848 145.048,11.928 145.336,11.928 L146.392,11.928 L146.392,13 L145.144,13 C144.472,13 143.976,12.824 143.688,12.472 C143.416,12.152 143.288,11.688 143.288,11.064 L143.288,5.8 L141.624,5.8 L141.624,4.728 L143.288,4.728 L143.288,2.584 L144.552,2.056 Z M148.024,1.352 L149.304,1.352 L149.304,6.088 C149.592,5.56 149.976,5.16 150.456,4.888 C150.904,4.632 151.4,4.504 151.96,4.504 C152.92,4.504 153.672,4.776 154.184,5.352 C154.696,5.912 154.952,6.728 154.952,7.784 L154.952,13 L153.672,13 L153.672,7.976 C153.672,7.208 153.48,6.616 153.128,6.2 C152.744,5.784 152.216,5.576 151.528,5.576 C150.888,5.576 150.36,5.832 149.944,6.344 C149.512,6.856 149.304,7.512 149.304,8.28 L149.304,13 L148.024,13 L148.024,1.352 Z" id="Width" fill="#9B9B9B" fill-rule="nonzero"></path>
                <path d="M11.5,82.5 L402.5,365" id="路径-10" stroke="#D7D7D7"></path>
                <path d="M26.8554687,45.7716064 L47.6269531,58.7716064" id="路径-11" stroke="#D7D7D7"></path>
                <path d="M201.241211,1.27160645 L222.012695,14.2716064" id="路径-11" stroke="#D7D7D7"></path>
                <path d="M211.5,7.288 L36.5,51.5" id="路径-12" stroke="#D7D7D7"></path>
                <path d="M612.449219,277.5 L640.037109,277.5" id="路径-13" stroke="#D7D7D7"></path>
                <path d="M626,277.5 L626,310.5" id="路径-13" stroke="#D7D7D7"></path>
                <path d="M612.449219,310.5 L640.037109,310.5" id="路径-13" stroke="#D7D7D7"></path>
            </g>
        </g>
    </g>
</svg>